<?xml version="1.0" encoding="utf-8"?>
<svg width="21px" height="17px" viewbox="0 0 21 17" version="1.1" xmlns:xlink="http://www.w3.org/1999/xlink" xmlns="http://www.w3.org/2000/svg">
  <g id="Kamera" transform="translate(0.100097656 0.1000061)">
    <g id="685655camera">
      <path d="M19.3254 2.45131C18.9264 2.03325 18.3753 1.78622 17.7482 1.78622L14.5938 1.78622L14.5938 1.74822C14.5938 1.27316 14.4038 0.817102 14.0808 0.513064C13.7577 0.190024 13.3207 0 12.8456 0L7.14489 0C6.65083 0 6.21378 0.190024 5.89074 0.513064C5.5677 0.836105 5.37767 1.27316 5.37767 1.74822L5.37767 1.78622L2.24228 1.78622C1.6152 1.78622 1.06413 2.03325 0.665083 2.45131C0.266033 2.85036 0 3.42043 0 4.0285L0 13.4917C-1.3502e-15 14.1188 0.247031 14.6698 0.665083 15.0689C1.06413 15.4679 1.6342 15.734 2.24228 15.734L17.7482 15.734C18.3753 15.734 18.9264 15.4869 19.3254 15.0689C19.7245 14.6698 19.9905 14.0998 19.9905 13.4917L19.9905 4.0285C19.9905 3.40143 19.7435 2.85036 19.3254 2.45131ZM19.0024 13.4917L18.9834 13.4917C18.9834 13.8337 18.8504 14.1378 18.6223 14.3658C18.3943 14.5938 18.0903 14.7268 17.7482 14.7268L2.24228 14.7268C1.90024 14.7268 1.5962 14.5938 1.36817 14.3658C1.14014 14.1378 1.00713 13.8337 1.00713 13.4917L1.00713 4.0285C1.00713 3.68646 1.14014 3.38242 1.36817 3.15439C1.5962 2.92637 1.90024 2.79335 2.24228 2.79335L5.90974 2.79335C6.19477 2.79335 6.4228 2.56532 6.4228 2.28028L6.4228 1.72922C6.4228 1.52019 6.49881 1.33017 6.63183 1.19715C6.76485 1.06413 6.95487 0.988124 7.1639 0.988124L12.8456 0.988124C13.0546 0.988124 13.2447 1.06413 13.3777 1.19715C13.5107 1.33017 13.5867 1.52019 13.5867 1.72922L13.5867 2.28028C13.5867 2.56532 13.8147 2.79335 14.0998 2.79335L17.7672 2.79335C18.1093 2.79335 18.4133 2.92637 18.6413 3.15439C18.8694 3.38242 19.0024 3.68646 19.0024 4.0285L19.0024 13.4917Z" transform="translate(1.3502E-15 0.038004752)" id="Shape" fill="#0A008E" stroke="#0A008E" stroke-width="0.2" />
      <path d="M4.67458 0C3.38242 0 2.20428 0.532067 1.36817 1.36817C0.513064 2.22328 0 3.38242 0 4.67458C0 5.96675 0.532067 7.14489 1.36817 7.981C2.22328 8.8361 3.38242 9.34917 4.67458 9.34917C5.96675 9.34917 7.14489 8.8171 7.981 7.981C8.8361 7.12589 9.34917 5.96675 9.34917 4.67458C9.34917 3.38242 8.8171 2.20428 7.981 1.36817C7.14489 0.532067 5.96675 0 4.67458 0ZM7.25891 7.27791C6.59382 7.92399 5.68171 8.34204 4.67458 8.34204C3.66746 8.34204 2.75534 7.92399 2.09026 7.27791C1.42518 6.61283 1.02613 5.70071 1.02613 4.69359C1.02613 3.68646 1.44418 2.77435 2.09026 2.10926C2.75534 1.44418 3.66746 1.04513 4.67458 1.04513C5.68171 1.04513 6.59382 1.46318 7.25891 2.10926C7.92399 2.77435 8.32304 3.68646 8.32304 4.69359C8.34204 5.70071 7.92399 6.61283 7.25891 7.27791Z" transform="translate(5.320665 4.1235156)" id="Shape" fill="#0A008E" stroke="none" />
      <path d="M0.931116 1.86223C1.44536 1.86223 1.86223 1.44536 1.86223 0.931116C1.86223 0.416875 1.44536 0 0.931116 0C0.416875 0 0 0.416875 0 0.931116C0 1.44536 0.416875 1.86223 0.931116 1.86223Z" transform="translate(15.828979 4.104513)" id="Oval" fill="#0A008E" stroke="none" />
    </g>
  </g>
</svg>