<?xml version="1.0" encoding="utf-8"?>
<svg width="20px" height="20px" viewbox="0 0 20 20" version="1.1" xmlns:xlink="http://www.w3.org/1999/xlink" xmlns="http://www.w3.org/2000/svg">
  <defs>
    <filter id="filter_1">
      <feColorMatrix in="SourceGraphic" type="matrix" values="0 0 0 0 0.039215688 0 0 0 0 0 0 0 0 0 0.5568628 0 0 0 1 0" />
    </filter>
  </defs>
  <g id="Enterprise--Health--region-analysis--area--20" filter="url(#filter_1)">
    <path d="M18.75 14.375L18.75 13.125L17.5 13.125L17.5 11.875L16.25 11.875L16.25 13.125L14.375 13.125L14.375 11.875L13.125 11.875L13.125 13.125L11.875 13.125L11.875 14.375L13.125 14.375L13.125 16.25L11.875 16.25L11.875 17.5L13.125 17.5L13.125 18.75L14.375 18.75L14.375 17.5L16.25 17.5L16.25 18.75L17.5 18.75L17.5 17.5L18.75 17.5L18.75 16.25L17.5 16.25L17.5 14.375L18.75 14.375ZM16.25 16.25L14.375 16.25L14.375 14.375L16.25 14.375L16.25 16.25ZM10 18.75C5.16751 18.75 1.25 14.8325 1.25 10C1.25 5.16751 5.16751 1.25 10 1.25C14.8325 1.25 18.75 5.16751 18.75 10L17.5 10C17.5 5.85786 14.1421 2.5 10 2.5C5.85786 2.5 2.5 5.85786 2.5 10C2.5 14.1421 5.85786 17.5 10 17.5L10 18.75Z" id="Fill" fill="#0A008E" fill-rule="evenodd" stroke="none" />
  </g>
</svg>