<?xml version="1.0" encoding="utf-8"?>
<svg width="21px" height="21px" viewbox="0 0 21 21" version="1.1" xmlns:xlink="http://www.w3.org/1999/xlink" xmlns="http://www.w3.org/2000/svg">
  <defs>
    <filter id="filter_1">
      <feColorMatrix in="SourceGraphic" type="matrix" values="0 0 0 0 0.039215688 0 0 0 0 0 0 0 0 0 0.5568628 0 0 0 1 0" />
    </filter>
  </defs>
  <g id="touch--id" transform="translate(0.25 0.25)" filter="url(#filter_1)">
    <path d="M9.16601 19.2C9.05038 19.2 8.95226 19.1119 8.94226 18.995C8.87538 18.2488 8.39413 17.4456 7.49538 17.4456C6.67038 17.4456 6.19038 17.91 5.68413 18.66C5.61538 18.7638 5.47538 18.79 5.37163 18.7213C5.26851 18.6519 5.24163 18.5113 5.31101 18.4088C5.80663 17.6744 6.41413 16.995 7.49538 16.995C8.67663 16.995 9.30538 18.0113 9.39038 18.955C9.40163 19.0788 9.31038 19.1881 9.18663 19.1994C9.17913 19.1994 9.17226 19.2 9.16601 19.2ZM11.6185 18.61C11.5785 18.61 11.5379 18.5988 11.501 18.5763C10.3004 17.8412 9.55476 16.6594 9.55476 15.4906C9.55476 15.0631 9.64101 14.5919 9.78413 14.23C9.83038 14.1144 9.95976 14.0594 10.0766 14.1038C10.1923 14.15 10.2485 14.2806 10.2029 14.3962C10.0573 14.7638 10.0054 15.2025 10.0054 15.4906C10.0054 16.5031 10.6691 17.5381 11.7373 18.1925C11.8429 18.2575 11.8766 18.3956 11.811 18.5019C11.7679 18.5713 11.6941 18.61 11.6185 18.61ZM3.67288 17.9556C3.59976 17.9556 3.52851 17.92 3.48538 17.855C3.41663 17.7512 3.44476 17.6112 3.54851 17.5431C5.31351 16.3725 6.74038 15.2381 8.17601 13.8656C8.93038 13.1438 10.1948 11.6962 10.1948 10.11C10.1948 9.12875 9.49788 8.11438 8.33163 8.11438C7.25663 8.11438 6.44788 9.32875 5.66601 10.5037C5.25413 11.1219 4.86538 11.7063 4.43413 12.1275C3.25413 13.2813 2.03163 13.9675 0.671009 14.6838C0.560384 14.7419 0.424759 14.6987 0.367259 14.59C0.309134 14.4794 0.351634 14.3438 0.461634 14.2862C1.79038 13.5869 2.98288 12.9181 4.11976 11.8056C4.51663 11.4181 4.89288 10.8531 5.29101 10.255C6.13851 8.98188 7.01538 7.66563 8.33163 7.66563C9.77976 7.66563 10.6454 8.90938 10.6454 10.1112C10.6454 11.865 9.29288 13.4206 8.48726 14.1919C7.03163 15.5844 5.58538 16.7338 3.79726 17.9194C3.75851 17.9438 3.71538 17.9556 3.67288 17.9556ZM14.0841 17.2375C14.0566 17.2375 14.0285 17.2319 14.0016 17.2219C11.9498 16.4156 11.5185 14.7556 11.5185 13.5056C11.5185 12.9644 11.6254 12.4556 11.7385 11.9175C11.8716 11.28 12.0098 10.6219 12.0098 9.78563C12.0098 8.28375 10.7316 6.20375 8.33163 6.20375C6.31038 6.20375 5.08851 7.75937 4.54038 8.68687C4.01413 9.5775 2.54726 11.7394 0.304134 12.5688C0.186634 12.61 0.0578844 12.5525 0.0147594 12.4356C-0.0283656 12.3188 0.0310094 12.1894 0.147884 12.1462C1.61038 11.6056 3.10726 10.2269 4.15288 8.4575C4.75038 7.4475 6.08663 5.75375 8.33163 5.75375C10.801 5.75375 12.4598 7.83812 12.4598 9.78563C12.4598 10.6681 12.3104 11.3806 12.1785 12.0094C12.071 12.5238 11.9691 13.0106 11.9691 13.5056C11.9691 14.6156 12.3498 16.0894 14.1666 16.8031C14.2823 16.8481 14.3391 16.9788 14.2935 17.095C14.2585 17.1831 14.1735 17.2375 14.0841 17.2375ZM1.99038 16.7163C1.91476 16.7163 1.84101 16.6775 1.79851 16.6087C1.73351 16.5031 1.76663 16.3644 1.87226 16.2994C3.91601 15.0413 6.66351 12.9575 8.14538 10.175C8.20351 10.065 8.33913 10.0231 8.44976 10.0825C8.55913 10.1413 8.60101 10.2775 8.54226 10.3869C7.01226 13.2588 4.19851 15.3962 2.10726 16.6831C2.07163 16.705 2.03101 16.7163 1.99038 16.7163ZM15.2666 15.7162C15.2366 15.7162 15.206 15.71 15.1766 15.6975C13.7779 15.0887 13.5035 14.2219 13.5035 12.9281C13.5035 12.1213 13.5966 11.7162 13.6954 11.2862C13.801 10.8275 13.9098 10.3531 13.9098 9.28563C13.9098 6.89 11.7773 4.30437 8.33101 4.30437C5.72788 4.30437 4.46913 5.60312 3.40226 6.93312C3.28476 7.07937 3.15663 7.25 3.01788 7.435C2.35538 8.3175 1.44851 9.52563 0.309759 9.98687C0.193509 10.0337 0.0628844 9.97812 0.0166344 9.86312C-0.0302406 9.7475 0.0253844 9.61687 0.140384 9.57C1.16351 9.155 2.02726 8.005 2.65788 7.165C2.80038 6.97563 2.93101 6.80062 3.05101 6.65187C4.18601 5.23625 5.52851 3.85437 8.33038 3.85437C12.0541 3.85437 14.3591 6.67375 14.3591 9.28563C14.3591 10.4037 14.2391 10.9263 14.1335 11.3869C14.041 11.7906 13.9535 12.1725 13.9535 12.9281C13.9535 14.25 14.2941 14.8231 15.3554 15.285C15.4698 15.3344 15.5216 15.4669 15.4723 15.5813C15.4366 15.6656 15.3535 15.7162 15.2666 15.7162ZM15.5235 13.8394C15.4773 13.8394 15.431 13.8256 15.3904 13.7963C15.2904 13.7225 15.2685 13.5819 15.3416 13.4812C15.9023 12.7137 16.251 11.3775 16.251 9.9925C16.251 9.2375 16.1904 8.41063 15.7504 7.4725C15.6979 7.36 15.746 7.22563 15.8585 7.17313C15.971 7.12125 16.1054 7.16813 16.1579 7.28125C16.6366 8.30188 16.701 9.22437 16.701 9.9925C16.701 11.49 16.3285 12.8944 15.7048 13.7475C15.6604 13.8069 15.5923 13.8394 15.5235 13.8394ZM0.682884 7.09437C0.640384 7.09437 0.597259 7.0825 0.559134 7.0575C0.455384 6.98938 0.426634 6.84937 0.494759 6.74562C1.84726 4.6925 4.13101 1.96312 8.33101 1.96312C11.2448 1.96312 13.9429 3.4175 15.5479 5.85437C15.616 5.95875 15.5873 6.09812 15.4835 6.16625C15.3804 6.23438 15.2404 6.20625 15.1716 6.10187C13.6504 3.79187 11.0935 2.41313 8.33101 2.41313C4.34851 2.41313 2.16601 5.0275 0.870384 6.99375C0.827884 7.05937 0.756009 7.09437 0.682884 7.09437ZM15.0841 3.305C15.0254 3.305 14.9673 3.2825 14.9235 3.2375C13.1966 1.47375 10.831 0.458125 8.43288 0.45C8.42101 0.45 8.40913 0.45 8.39726 0.45C5.84226 0.45 3.56101 1.4025 1.79851 3.20625C1.71226 3.295 1.56913 3.29625 1.48101 3.21C1.39163 3.12313 1.39038 2.98063 1.47726 2.89188C3.32601 0.999375 5.71913 0 8.39726 0C8.40976 0 8.42226 0 8.43476 0C10.9523 0.00875 13.4354 1.07375 15.2448 2.9225C15.3323 3.01125 15.3304 3.15375 15.2416 3.24062C15.1979 3.28375 15.141 3.305 15.0841 3.305Z" transform="translate(1.6489906 0.4)" id="touch--id_1_" fill="#0A008E" fill-rule="evenodd" stroke="none" stroke-width="0.5" />
    <path d="M0 0L20 0L20 20L0 20L0 0Z" id="_Transparent_Rectangle" fill="none" fill-rule="evenodd" stroke="none" />
  </g>
</svg>