<?xml version="1.0" encoding="utf-8"?>
<svg width="20px" height="20px" viewbox="0 0 20 20" version="1.1" xmlns:xlink="http://www.w3.org/1999/xlink" xmlns="http://www.w3.org/2000/svg">
  <g id="Actions--Formatting--edit--20-Copy">
    <path d="M0 15.6229L17.5 15.6229L17.5 16.8729L0 16.8729L0 15.6229ZM14.6312 4.37286C14.866 4.1384 14.9979 3.82024 14.9979 3.48848C14.9979 3.15672 14.866 2.83857 14.6312 2.60411L12.3937 0.366608C12.1593 0.131887 11.8411 0 11.5094 0C11.1776 0 10.8595 0.131887 10.625 0.366608L1.25 9.74161L1.25 13.7479L5.25625 13.7479L14.6312 4.37286ZM11.5063 1.24786L13.75 3.49161L11.875 5.36661L9.63125 3.12286L11.5063 1.24786ZM2.5 12.4979L2.5 10.2541L8.75 4.00411L10.9937 6.24786L4.74375 12.4979L2.5 12.4979Z" transform="translate(1.25 1.2521417)" id="Fill" fill="#000000" fill-rule="evenodd" stroke="none" />
  </g>
</svg>