<?xml version="1.0" encoding="utf-8"?>
<svg width="14px" height="14px" viewbox="0 0 14 14" version="1.1" xmlns:xlink="http://www.w3.org/1999/xlink" xmlns="http://www.w3.org/2000/svg">
  <g id="Group-3">
    <path d="M14 7C14 10.866 10.866 14 7 14C3.13401 14 0 10.866 0 7C0 3.13401 3.13401 0 7 0C10.866 0 14 3.13401 14 7ZM12 7C12 9.76142 9.76142 12 7 12C4.23858 12 2 9.76142 2 7C2 4.23858 4.23858 2 7 2C9.76142 2 12 4.23858 12 7Z" id="Combined-Shape" fill="#0A008E" fill-opacity="0.1" fill-rule="evenodd" stroke="none" />
    <path d="M5.93033 3.27948L4.237 4.34374C3.32712 2.89604 1.74111 2 0 2L0 0C2.43614 0 4.65817 1.25537 5.93033 3.27948Z" transform="translate(7 1.4210855E-14)" id="Oval" fill="#0A008E" stroke="none" />
  </g>
</svg>