<?xml version="1.0" encoding="utf-8"?>
<svg width="20px" height="20px" viewbox="0 0 20 20" version="1.1" xmlns:xlink="http://www.w3.org/1999/xlink" xmlns="http://www.w3.org/2000/svg">
  <g id="Actions--Navigation--add--alt--20">
    <path d="M10 2.5C14.1421 2.5 17.5 5.85786 17.5 10C17.5 14.1421 14.1421 17.5 10 17.5C5.85786 17.5 2.5 14.1421 2.5 10C2.5 5.85786 5.85786 2.5 10 2.5L10 2.5ZM10 1.25C5.16751 1.25 1.25 5.16751 1.25 10C1.25 14.8325 5.16751 18.75 10 18.75C14.8325 18.75 18.75 14.8325 18.75 10C18.75 5.16751 14.8325 1.25 10 1.25ZM13.75 9.375L10.625 9.375L10.625 6.25L9.375 6.25L9.375 9.375L6.25 9.375L6.25 10.625L9.375 10.625L9.375 13.75L10.625 13.75L10.625 10.625L13.75 10.625L13.75 9.375Z" id="Fill" fill="#000000" fill-rule="evenodd" stroke="none" />
  </g>
</svg>