<?xml version="1.0" encoding="utf-8"?>
<svg width="20px" height="20px" viewbox="0 0 20 20" version="1.1" xmlns:xlink="http://www.w3.org/1999/xlink" xmlns="http://www.w3.org/2000/svg">
  <defs>
    <filter id="filter_1">
      <feColorMatrix in="SourceGraphic" type="matrix" values="0 0 0 0 0.039215688 0 0 0 0 0 0 0 0 0 0.5568628 0 0 0 1 0" />
    </filter>
  </defs>
  <g id="Planning--Travel--earth--20" filter="url(#filter_1)">
    <path d="M8.75 0C3.91751 -8.32667e-16 5.55112e-16 3.91751 0 8.75C-5.55112e-16 13.5825 3.91751 17.5 8.75 17.5C13.5825 17.5 17.5 13.5825 17.5 8.75C17.4945 3.91979 13.5802 0.00551079 8.75 0ZM11.875 1.94125C12.5369 2.24633 13.1508 2.64615 13.6975 3.12812L13.4394 3.75L11.875 3.75L11.875 1.94125ZM7.11125 16.0644C4.35314 15.4515 2.17512 13.3379 1.47989 10.5994C0.784664 7.86086 1.6907 4.96424 3.8225 3.11L4.66562 4.375L6.75437 4.375L5.81687 6.875L3.3 6.875L2.43625 9.4675L4.04062 11.875L7.16563 11.875L8.06063 13.2169L7.11125 16.0644ZM8.75 16.25C8.62313 16.25 8.49875 16.2375 8.37313 16.2313L9.24625 13.6125C9.36927 13.2469 9.31546 12.8448 9.10063 12.5244L8.20563 11.1819C7.97417 10.8337 7.5837 10.6246 7.16563 10.625L4.70937 10.625L3.81437 9.2825L4.20062 8.125L5.625 8.125L5.625 9.375L6.875 9.375L6.875 7.61312L8.71 2.71938L7.54 2.28062L7.22312 3.125L5.33437 3.125L4.83 2.36875C6.55808 1.28956 8.65576 0.973729 10.625 1.49625L10.625 3.75C10.6257 4.44007 11.1849 4.99931 11.875 5L13.4913 5C13.8229 5.0009 14.1412 4.86901 14.375 4.63375L14.4625 4.54625L14.6388 4.12125C15.1433 4.76217 15.5398 5.48122 15.8125 6.25L12.8744 6.25C12.2641 6.24811 11.7423 6.68866 11.6419 7.29062L11.2687 9.44125C11.1761 9.96344 11.4248 10.4869 11.8881 10.745L13.2413 11.66L14.1525 13.9387C12.7428 15.4145 10.7909 16.2495 8.75 16.25ZM14.2594 10.84L12.5625 9.69312L12.5 9.65562L12.8744 7.5L16.1369 7.5C16.4643 9.34404 16.0743 11.2435 15.0469 12.8094L14.2594 10.84Z" transform="translate(1.25 1.25)" id="Fill" fill="#0A008E" fill-rule="evenodd" stroke="none" />
  </g>
</svg>