<?xml version="1.0" encoding="utf-8"?>
<svg width="20px" height="20px" viewbox="0 0 20 20" version="1.1" xmlns:xlink="http://www.w3.org/1999/xlink" xmlns="http://www.w3.org/2000/svg">
  <g id="Actions--Operations--delete--20">
    <path d="M7.5 7.5L8.75 7.5L8.75 15L7.5 15L7.5 7.5ZM11.25 7.5L12.5 7.5L12.5 15L11.25 15L11.25 7.5ZM2.5 3.75L2.5 5L3.75 5L3.75 17.5C3.75 18.1904 4.30964 18.75 5 18.75L15 18.75C15.6904 18.75 16.25 18.1904 16.25 17.5L16.25 5L17.5 5L17.5 3.75L2.5 3.75ZM5 17.5L5 5L15 5L15 17.5L5 17.5ZM7.5 1.25L12.5 1.25L12.5 2.5L7.5 2.5L7.5 1.25Z" id="Fill" fill="#000000" fill-rule="evenodd" stroke="none" />
  </g>
</svg>