<?xml version="1.0" encoding="utf-8"?>
<svg width="14px" height="41px" viewbox="0 0 14 41" version="1.1" xmlns:xlink="http://www.w3.org/1999/xlink" xmlns="http://www.w3.org/2000/svg">
  <path d="M7.00104 0L6.99904 0Q6.90064 0 6.80414 0.0191955Q6.70764 0.038391 6.61673 0.0760443Q6.52583 0.113698 6.44402 0.168362Q6.36221 0.223026 6.29264 0.2926Q6.22306 0.362175 6.1684 0.443985Q6.11373 0.525796 6.07608 0.616699Q6.03843 0.707602 6.01923 0.804105Q6.00004 0.900607 6.00004 0.999L6.00004 36.5663L1.66266 32.2812C1.48083 32.1014 1.23278 32.0002 0.973927 32.0002C0.715078 32.0002 0.467025 32.1014 0.285195 32.2812C-0.0949497 32.6589 -0.0949497 33.2643 0.285195 33.6419L0.284508 33.6419L6.52443 39.8052C6.64964 39.9298 6.82093 40 6.99974 40C7.17855 40 7.34984 39.9298 7.47506 39.8052L13.715 33.6419C14.0951 33.2643 14.0951 32.6589 13.715 32.2812C13.5333 32.1013 13.2854 32 13.0266 32C12.7678 32 12.5198 32.1013 12.3382 32.2812L8.00004 36.5659L8.00004 0.999Q8.00004 0.900607 7.98084 0.804105Q7.96164 0.707602 7.92399 0.616699Q7.88634 0.525796 7.83167 0.443985Q7.77701 0.362175 7.70744 0.2926Q7.63786 0.223026 7.55605 0.168362Q7.47424 0.113698 7.38334 0.0760443Q7.29243 0.038391 7.19593 0.0191955Q7.09943 0 7.00104 0Z" id="Combined-Shape" fill="#0A008E" fill-rule="evenodd" stroke="none" />
</svg>