<svg width="300" height="270" xmlns="http://www.w3.org/2000/svg">

 <g>
  <title>Layer 1</title>
  <path fill-rule="evenodd" fill-opacity="0.1" fill="#6C63FF" id="Path" d="m136.173,108.60649c-11.6,-3.75783 -23.8636,-6.90811 -36.3975,-6.58344c-18.4268,0.47897 -36.1438,9.07473 -44.8819,21.77875c-7.3861,10.7656 -8.372,23.4181 -11.5962,35.3892c-3.9724,14.7484 -11.5126,28.7447 -19.56028,42.4323c-4.32248,7.3517 -8.8826,14.8577 -9.63405,22.9357c-1.03085,11.216 5.75795,22.428 16.46133,29.944c10.7035,7.516 24.9458,11.521 39.2556,12.456c7.6141,0.495 15.5718,0.113 22.351,-2.632c7.1709,-2.893 12.4151,-8.188 19.6149,-11.049c6.6731,-2.649 14.4511,-2.989 21.9371,-2.6c9.694,0.491 19.295,2.137 28.6,4.905c10.434,3.125 20.129,7.622 30.54,10.791c10.411,3.17 22.049,4.964 32.717,2.415c10.016,-2.392 17.961,-8.288 25.126,-14.26c11.545,-9.601 22.281,-20.137 32.097,-31.503c6.471,-7.519 12.499,-15.459 15.389,-24.2444c5.52,-16.7993 -1.876,-35.8199 -18.424,-47.3892c-13.709,-9.589 -32.152,-13.8226 -50.212,-16.3943c-16.471,-2.3691 -35.527,-2.6038 -50.666,-8.6375c-14.438,-5.7702 -27.572,-12.8487 -42.717,-17.75411z"/>
  <path fill-rule="evenodd" fill-opacity="0.1" fill="#6C63FF" id="Oval" d="m284.5,165c4.1421,0 7.5,-0.22386 7.5,-0.5c0,-0.27614 -3.3579,-0.5 -7.5,-0.5c-4.14214,0 -7.5,0.22386 -7.5,0.5c0,0.27614 3.35786,0.5 7.5,0.5z"/>
  <path fill-rule="evenodd" fill-opacity="0.1" fill="#6C63FF" id="Oval-2" d="m255.5,168c4.1421,0 7.5,-0.22386 7.5,-0.5c0,-0.27614 -3.3579,-0.5 -7.5,-0.5c-4.14214,0 -7.5,0.22386 -7.5,0.5c0,0.27614 3.35786,0.5 7.5,0.5z"/>
  <path fill-rule="evenodd" fill-opacity="0.1" fill="#6C63FF" id="Oval-3" d="m221.5,165c4.1421,0 7.5,-0.22386 7.5,-0.5c0,-0.27614 -3.3579,-0.5 -7.5,-0.5c-4.14214,0 -7.5,0.22386 -7.5,0.5c0,0.27614 3.35786,0.5 7.5,0.5z"/>
  <path fill-rule="evenodd" fill-opacity="0.1" fill="#6C63FF" id="Oval-4" d="m267.5,177c3.03757,0 5.5,-0.22386 5.5,-0.5c0,-0.27614 -2.46243,-0.5 -5.5,-0.5c-3.03757,0 -5.5,0.22386 -5.5,0.5c0,0.27614 2.46243,0.5 5.5,0.5z"/>
  <path fill-rule="evenodd" fill-opacity="0.1" fill="#6C63FF" id="Oval-5" d="m237.5,176c3.03757,0 5.5,-0.22386 5.5,-0.5c0,-0.27614 -2.46243,-0.5 -5.5,-0.5c-3.03757,0 -5.5,0.22386 -5.5,0.5c0,0.27614 2.46243,0.5 5.5,0.5z"/>
  <path fill-rule="evenodd" fill="#6C63FF" id="Path-2" d="m254.7943,168c0,0 10.4751,-33.9105 -1.6382,-47.49259c-9.047,-10.16103 -19.3477,-8.93557 -23.952,-7.68779c-2.41226,0.63403 -4.42068,2.28282 -5.49283,4.50928c-1.61555,3.43062 -1.31829,8.9994 10.04863,15.5c19.0343,10.8855 20.2201,25.8175 20.2201,25.8175l0.8143,9.3536z"/>
  <path stroke="#565987" fill-rule="evenodd" fill="none" id="Path-3" d="m231,118c0,0 30.9207,9.46528 23.9866,50"/>
  <path stroke="#565987" fill-rule="evenodd" fill="none" id="Path-4" d="m249,120c0,0 -4.02327,2.79811 -2.75148,7"/>
  <path stroke="#565987" fill-rule="evenodd" fill="none" id="Path-5" d="m235,123c0,0 2.24341,-1.62734 5,-0.73011"/>
  <path stroke="#565987" fill-rule="evenodd" fill="none" id="Path-6" d="m247,135.59928c0,0 3.97299,-1.58519 5,0.40072"/>
  <path stroke="#565987" fill-rule="evenodd" fill="none" id="Path-7" d="m258,141.01215c0,0 -3.92963,-0.19617 -4,0.98785"/>
  <path fill-rule="evenodd" fill="#6C63FF" id="Path-8" d="m255,168c0,0 -11.94206,-25.55006 -15.20728,-24.99096c-1.57132,0.26467 -2.27527,1.87912 -2.59897,3.49689c-0.4022,2.094 -0.17483,4.2679 0.65053,6.21961c1.69389,4.08906 6.2413,11.85366 17.15572,15.27446z"/>
  <path stroke="#565987" fill-rule="evenodd" fill="none" id="Path-9" d="m240,149c0,0 12.571,18.1999 15,19"/>
  <path stroke="#565987" fill-rule="evenodd" fill="none" id="Path-10" d="m240,150.99998l3,0"/>
  <path stroke="#565987" fill-rule="evenodd" fill="none" id="Path-11" d="m243,157.90043l4,0.1991"/>
  <path stroke="#565987" fill-rule="evenodd" fill="none" id="Path-12" d="m246,153l-1,3"/>
  <path stroke="#565987" fill-rule="evenodd" fill="none" id="Path-13" d="m251.04485,159l-0.0899,3"/>
  <path fill-rule="evenodd" fill="#6C63FF" id="Path-14" d="m256,168c0,0 11.9421,-25.55006 15.2073,-24.99096c1.5713,0.26467 2.2753,1.87912 2.5989,3.49689c0.4023,2.094 0.1749,4.2679 -0.6505,6.21961c-1.6939,4.08906 -6.2413,11.85366 -17.1557,15.27446z"/>
  <path stroke="#565987" fill-rule="evenodd" fill="none" id="Path-15" d="m271,149c0,0 -12.57098,18.1999 -15,19"/>
  <path stroke="#565987" fill-rule="evenodd" fill="none" id="Path-16" d="m271,150.99998l-3,0"/>
  <path stroke="#565987" fill-rule="evenodd" fill="none" id="Path-17" d="m268,157.90043l-4,0.1991"/>
  <path stroke="#565987" fill-rule="evenodd" fill="none" id="Path-18" d="m265,153l1,3"/>
  <path stroke="#565987" fill-rule="evenodd" fill="none" id="Path-19" d="m259.95334,159l0.09312,3"/>
  <path fill-rule="evenodd" fill="#6C63FF" id="Path-20" d="m234.68028,174.01121c-0.31123,-0.24365 -0.53845,-0.57111 -0.65209,-0.93978c-0.10383,-0.38258 0.08607,-0.78246 0.45586,-0.95996c0.41963,-0.15279 0.86643,0.12396 1.20757,0.40647c0.34114,0.28251 0.72756,0.59673 1.17135,0.53908c-0.46355,-0.40243 -0.6721,-1.00752 -0.54945,-1.59417c0.01855,-0.11962 0.07072,-0.2322 0.15095,-0.32575c0.23246,-0.23639 0.65511,-0.13261 0.93285,0.05189c0.88455,0.59673 1.1321,1.74407 1.13814,2.7761c0.04317,-0.38327 0.04317,-0.76985 0,-1.15311c-0.03504,-0.38764 0.13345,-0.76665 0.44982,-1.01185c0.20965,-0.1097 0.44637,-0.16347 0.6853,-0.15567c0.39946,-0.05426 0.80428,0.05574 1.11398,0.30269c0.3351,0.34593 0.24755,0.92537 -0.04528,1.30589c-0.32937,0.34838 -0.7183,0.64081 -1.15022,0.86483c-0.33077,0.18683 -0.61262,0.44315 -0.82416,0.74952c-0.02374,0.04262 -0.04393,0.08696 -0.06038,0.13261l-2.49364,0c-0.55446,-0.26234 -1.06931,-0.59494 -1.5306,-0.98879l0,0z"/>
  <path fill-rule="evenodd" fill="#6C63FF" id="Path-21" d="m281.6799,164.00638c-0.31242,-0.24232 -0.53985,-0.56989 -0.6519,-0.9389c-0.10342,-0.38141 0.08652,-0.77992 0.45573,-0.95619c0.41951,-0.15264 0.86618,0.12385 1.20722,0.40321c0.34104,0.27937 0.73036,0.59906 1.17402,0.53858c-0.46556,-0.40079 -0.67543,-1.00599 -0.55231,-1.59268c0.01827,-0.11926 0.07165,-0.23112 0.15392,-0.32257c0.23239,-0.23616 0.6519,-0.13536 0.92956,0.05184c0.88429,0.5933 1.13177,1.72804 1.1378,2.77351c0.04448,-0.38284 0.04448,-0.76919 0,-1.15203c-0.03502,-0.38728 0.13342,-0.76593 0.44969,-1.0109c0.2106,-0.10679 0.44672,-0.1594 0.6851,-0.15265c0.39725,-0.05966 0.80233,0.0451 1.11366,0.28801c0.33802,0.34273 0.25049,0.92162 -0.04527,1.30179c-0.32713,0.35488 -0.71617,0.65305 -1.14988,0.8813c-0.33068,0.18665 -0.61245,0.44273 -0.82392,0.74882c-0.02482,0.04207 -0.04505,0.08646 -0.06037,0.13248l-2.4929,0c-0.55415,-0.26469 -1.06875,-0.59886 -1.53015,-0.99362l0,0z"/>
  <path fill-rule="evenodd" fill="#6C63FF" id="Path-22" d="m264.67881,174.01121c-0.31056,-0.24365 -0.53729,-0.57111 -0.65068,-0.93978c-0.1036,-0.38258 0.08588,-0.78246 0.45488,-0.95996c0.41873,-0.15279 0.86457,0.12396 1.20497,0.40647c0.34041,0.28251 0.726,0.59673 1.16883,0.53908c-0.46313,-0.40214 -0.67231,-1.00704 -0.55128,-1.59417c0.02092,-0.11947 0.07385,-0.23171 0.15364,-0.32575c0.23195,-0.23639 0.65369,-0.13261 0.93084,0.05189c0.88264,0.59673 1.12966,1.74407 1.13569,2.7761c0.04809,-0.38275 0.05314,-0.76933 0.01506,-1.15311c-0.03496,-0.38764 0.13317,-0.76665 0.44885,-1.01185c0.2092,-0.1097 0.44541,-0.16347 0.68383,-0.15567c0.3986,-0.05426 0.80255,0.05574 1.11159,0.30269c0.33438,0.34593 0.24702,0.92537 -0.04519,1.30589c-0.32866,0.34838 -0.71676,0.64081 -1.14774,0.86483c-0.33006,0.18683 -0.61131,0.44315 -0.8224,0.74952c-0.02368,0.04262 -0.04383,0.08696 -0.06024,0.13261l-2.48828,0c-0.55855,-0.26122 -1.07742,-0.59386 -1.54237,-0.98879l0,0z"/>
  <path fill-rule="evenodd" fill="#6C63FF" id="Path-23" d="m221.2471,153c0,0 -1.00191,1.28317 0.46217,3.21901c1.46408,1.93584 2.66638,3.57386 2.18158,4.78099c0,0 -2.20744,-3.59604 -4.00441,-3.64673c-1.79698,-0.0507 -0.61731,-2.18931 1.36066,-4.35327z"/>
  <path fill-rule="evenodd" fill-opacity="0.1" fill="#000000" id="Path-24" d="m221.27321,153c-0.08961,0.12358 -0.16011,0.25919 -0.20925,0.40254c-1.77208,2.01901 -2.71698,3.90491 -1.01355,3.95245c1.58899,0.04438 3.49513,2.79556 3.94959,3.48653c0,0.05388 -0.0327,0.10777 -0.05231,0.15848c0,0 -2.23309,-3.59746 -4.05095,-3.64818c-1.81786,-0.05071 -0.62448,-2.187 1.37647,-4.35182z"/>
  <path fill-rule="evenodd" fill="#FFD037" id="Path-25" d="m218.88592,154.26108c0,0.40956 0.05137,0.73892 0.11559,0.73892c0.06421,0 0.11237,-0.32936 0.11237,-0.73892c0,-0.40956 -0.06421,-0.2148 -0.12522,-0.2148c-0.061,0 -0.10274,-0.19189 -0.10274,0.2148z"/>
  <path fill-rule="evenodd" fill="#FFD037" id="Path-26" d="m218.23762,155.50017c0.3896,0.35615 0.73245,0.56777 0.7605,0.48002c0.02806,-0.08774 -0.26181,-0.44905 -0.65141,-0.80004c-0.3896,-0.35098 -0.23688,-0.09807 -0.26804,0c-0.03117,0.09807 -0.23065,-0.03097 0.15895,0.32002z"/>
  <path fill-rule="evenodd" fill="#6C63FF" id="Path-27" d="m226.75202,153c0,0 1.00231,1.28317 -0.46235,3.21901c-1.46466,1.93584 -2.66742,3.57386 -2.1792,4.78099c0,0 2.20507,-3.59604 4.00275,-3.64673c1.79768,-0.0507 0.61754,-2.18931 -1.3612,-4.35327z"/>
  <path fill-rule="evenodd" fill-opacity="0.1" fill="#000000" id="Path-28" d="m226.72679,153c0.08961,0.12358 0.16011,0.25919 0.20925,0.40254c1.77208,2.01901 2.71698,3.90491 1.01355,3.95245c-1.58899,0.04438 -3.49513,2.79556 -3.94959,3.48653c0.01508,0.05391 0.03364,0.10684 0.05558,0.15848c0,0 2.22982,-3.59746 4.04768,-3.64818c1.81786,-0.05071 0.62448,-2.187 -1.37647,-4.35182z"/>
  <path fill-rule="evenodd" fill="#FFD037" id="Path-29" d="m229.11388,154.26108c0,0.40956 -0.05137,0.73892 -0.11558,0.73892c-0.06422,0 -0.11238,-0.32936 -0.11238,-0.73892c0,-0.40956 0.06421,-0.2148 0.12522,-0.2148c0.061,0 0.10274,-0.19189 0.10274,0.2148z"/>
  <path fill-rule="evenodd" fill="#FFD037" id="Path-30" d="m229.76238,155.50017c-0.3896,0.35615 -0.73245,0.56777 -0.7605,0.48002c-0.02806,-0.08774 0.26181,-0.44905 0.65141,-0.80004c0.3896,-0.35098 0.23688,-0.09807 0.26804,0c0.03117,0.09807 0.23065,-0.03097 -0.15895,0.32002z"/>
  <path fill-rule="evenodd" fill="#A8A8A8" id="Path-31" d="m229,161.4293c0,0 -2.9508,-0.07947 -3.84116,-0.64795c-0.89035,-0.56848 -4.54389,-1.24699 -4.77586,-0.3362c-0.23197,0.9108 -4.43473,4.52952 -1.10527,4.55397c3.32946,0.02445 7.75054,-0.46457 8.63749,-0.95053c0.8869,-0.48596 1.0848,-2.61929 1.0848,-2.61929z"/>
  <path fill-rule="evenodd" fill-opacity="0.2" fill="#000000" id="Path-32" d="m219.2334,164.64637c3.33635,0.02739 7.75523,-0.52042 8.64651,-1.06481c0.68299,-0.41086 0.94589,-1.89679 1.02449,-2.58156l0.0956,0c0,0 -0.1844,2.39668 -1.07569,2.93422c-0.89129,0.53754 -5.30675,1.0922 -8.64652,1.06481c-0.963,0 -1.29424,-0.34239 -1.27717,-0.85938c0.14684,0.31156 0.51565,0.5033 1.23278,0.50672z"/>
  <path fill-rule="evenodd" fill-opacity="0.1" fill="#6C63FF" id="Oval-6" d="m44,33c3.866,0 7,-3.134 7,-7c0,-3.86599 -3.134,-7 -7,-7c-3.86599,0 -7,3.13401 -7,7c0,3.866 3.13401,7 7,7z"/>
  <path fill-rule="evenodd" fill-opacity="0.1" fill="#6C63FF" id="Oval-7" d="m165,22c3.866,0 7,-3.134 7,-7c0,-3.86599 -3.134,-7 -7,-7c-3.86599,0 -7,3.13401 -7,7c0,3.866 3.13401,7 7,7z"/>
  <path fill-rule="evenodd" fill-opacity="0.1" fill="#6C63FF" id="Oval-8" d="m275,49c3.866,0 7,-3.134 7,-7c0,-3.86599 -3.134,-7 -7,-7c-3.86599,0 -7,3.13401 -7,7c0,3.866 3.13401,7 7,7z"/>
  <path fill-rule="evenodd" fill-opacity="0.1" fill="#6C63FF" id="Oval-9" d="m14.5,101c6.3513,0 11.5,-5.1487 11.5,-11.5c0,-6.35127 -5.1487,-11.5 -11.5,-11.5c-6.35127,0 -11.5,5.14873 -11.5,11.5c0,6.3513 5.14873,11.5 11.5,11.5z"/>
  <path fill-rule="evenodd" fill-opacity="0.1" fill="#6C63FF" id="Oval-10" d="m25.5,160c6.3513,0 11.5,-5.1487 11.5,-11.5c0,-6.35127 -5.1487,-11.5 -11.5,-11.5c-6.35127,0 -11.5,5.14873 -11.5,11.5c0,6.3513 5.14873,11.5 11.5,11.5z"/>
  <path fill-rule="evenodd" fill-opacity="0.1" fill="#6C63FF" id="Oval-11" d="m243.5,108c6.3513,0 11.5,-5.1487 11.5,-11.5c0,-6.35127 -5.1487,-11.5 -11.5,-11.5c-6.35127,0 -11.5,5.14873 -11.5,11.5c0,6.3513 5.14873,11.5 11.5,11.5z"/>
  <path fill-rule="evenodd" fill="#D0CDE1" id="Path-33" d="m244.51047,176.5586l7.29353,-10.97l-7.29723,12.1633l-0.00425,1.2481c-0.52012,-0.0046 -1.03499,-0.0223 -1.54461,-0.0531c-0.00232,-0.2834 0.6176,-15.8763 0.59125,-16.1584c0.03598,-0.0107 0.05617,-1.4748 0.07044,-1.5389l-7.6196,-11.9878l7.62778,10.8532l0.02274,0.3209l0.45251,-12.1147l-6.54986,-12.4059l6.60166,10.2772c0.00245,-0.1648 0.31246,-25.03902 0.31551,-25.1925c0.00187,0.08153 0.14415,19.795 0.1452,19.878l6.26416,-7.9349l-6.27015,9.64l-0.03203,10.8426l5.81308,-10.4849c-7.25465,15.2906 -5.64916,9.9398 -5.83445,18.1079l8.44385,-14.5994l-8.45107,16.7027l-0.03846,13.4066z"/>
  <path fill-rule="evenodd" fill="#3F3D56" id="Rectangle" d="m0,69l173,0l0,103l-173,0l0,-103z"/>
  <path fill-rule="evenodd" fill="#6C63FF" id="Path-34" d="m43,69c-0.3609,22.7493 -18.42,40.9977 -40.57467,41c-0.47696,0 -0.95114,-0.0085 -1.42533,-0.0256l0,-40.9744l42,0z"/>
  <path fill-rule="evenodd" fill="#6C63FF" id="Path-35" d="m96,173l-16,0c1.2331,-3.00385 4.42693,-5 8,-5c3.5731,0 6.7669,1.99615 8,5l0,0z"/>
  <path fill-rule="evenodd" fill="#6C63FF" id="Path-36" d="m174,120l0,34c-8.96017,-0.4431 -16,-7.923 -16,-17c0,-9.07704 7.03983,-16.55686 16,-17z"/>
  <path fill-rule="evenodd" fill="#FFFFFF" id="Rectangle-2" d="m33.499,107l108.002,0q0.135,0 0.27,0.00662q0.135,0.00663 0.269,0.01986q0.134,0.01323 0.268,0.03304q0.133,0.01981 0.266,0.04614q0.132,0.02634 0.263,0.05914q0.131,0.0328 0.26,0.07199q0.129,0.03918 0.257,0.08466q0.127,0.04548 0.251,0.09714q0.125,0.05166 0.247,0.10937q0.122,0.05772 0.241,0.12135q0.119,0.06364 0.235,0.13304q0.116,0.0694 0.228,0.1444q0.112,0.075 0.221,0.15541q0.108,0.08042 0.213,0.16606q0.104,0.08563 0.204,0.17629q0.1,0.09066 0.195,0.18611q0.096,0.09545 0.186,0.19548q0.091,0.10002 0.177,0.20437q0.085,0.10435 0.166,0.21278q0.08,0.10843 0.155,0.22067q0.075,0.11224 0.145,0.22803q0.069,0.11579 0.133,0.23484q0.063,0.11905 0.121,0.24108q0.058,0.12204 0.109,0.24675q0.052,0.12472 0.098,0.25182q0.045,0.1271 0.084,0.25628q0.039,0.12918 0.072,0.26013q0.033,0.13095 0.059,0.26335q0.027,0.1324 0.046,0.26593q0.02,0.13353 0.034,0.26787q0.013,0.13435 0.019,0.26918q0.007,0.13483 0.007,0.26982l0,0.002q0,0.13499 -0.007,0.26982q-0.006,0.13483 -0.019,0.26918q-0.014,0.13434 -0.034,0.26787q-0.019,0.13353 -0.046,0.26593q-0.026,0.1324 -0.059,0.26335q-0.033,0.13094 -0.072,0.26013q-0.039,0.12918 -0.084,0.25628q-0.046,0.1271 -0.098,0.25182q-0.051,0.12471 -0.109,0.24674q-0.058,0.12204 -0.121,0.24109q-0.064,0.11905 -0.133,0.23484q-0.07,0.11579 -0.145,0.22803q-0.075,0.11224 -0.155,0.22067q-0.081,0.10843 -0.166,0.21278q-0.086,0.10435 -0.177,0.20437q-0.09,0.10003 -0.186,0.19548q-0.095,0.09545 -0.195,0.18611q-0.1,0.09066 -0.204,0.17629q-0.105,0.08564 -0.213,0.16606q-0.109,0.08041 -0.221,0.15546q-0.112,0.0749 -0.228,0.1443q-0.116,0.0694 -0.235,0.1331q-0.119,0.0636 -0.241,0.1213q-0.122,0.0578 -0.247,0.1094q-0.124,0.0517 -0.251,0.0971q-0.128,0.0455 -0.257,0.0847q-0.129,0.0392 -0.26,0.072q-0.131,0.0328 -0.263,0.0591q-0.133,0.0264 -0.266,0.0462q-0.134,0.0198 -0.268,0.033q-0.134,0.0133 -0.269,0.0199q-0.135,0.0066 -0.27,0.0066l-108.002,0q-0.13499,0 -0.26982,-0.0066q-0.13483,-0.0066 -0.26918,-0.0199q-0.13434,-0.0132 -0.26787,-0.033q-0.13353,-0.0198 -0.26593,-0.0462q-0.1324,-0.0263 -0.26335,-0.0591q-0.13095,-0.0328 -0.26013,-0.072q-0.12918,-0.0392 -0.25628,-0.0847q-0.1271,-0.0454 -0.25182,-0.0971q-0.12471,-0.0516 -0.24675,-0.1094q-0.12203,-0.0577 -0.24108,-0.1213q-0.11905,-0.0637 -0.23484,-0.1331q-0.11579,-0.0694 -0.22803,-0.1444q-0.11224,-0.07495 -0.22067,-0.15536q-0.10843,-0.08042 -0.21278,-0.16606q-0.10435,-0.08563 -0.20437,-0.17629q-0.10003,-0.09066 -0.19548,-0.18611q-0.09545,-0.09545 -0.18611,-0.19548q-0.09066,-0.10002 -0.17629,-0.20437q-0.08564,-0.10435 -0.16606,-0.21278q-0.08041,-0.10843 -0.15541,-0.22067q-0.075,-0.11224 -0.1444,-0.22803q-0.0694,-0.11579 -0.13304,-0.23484q-0.06363,-0.11905 -0.12135,-0.24109q-0.05771,-0.12203 -0.10937,-0.24675q-0.05166,-0.12471 -0.09714,-0.25181q-0.04548,-0.12711 -0.08466,-0.25629q-0.03919,-0.12918 -0.07199,-0.26012q-0.0328,-0.13095 -0.05914,-0.26335q-0.02633,-0.1324 -0.04614,-0.26593q-0.01981,-0.13353 -0.03304,-0.26787q-0.01323,-0.13435 -0.01986,-0.26918q-0.00662,-0.13483 -0.00662,-0.26982l0,-0.002q0,-0.13499 0.00662,-0.26982q0.00663,-0.13483 0.01986,-0.26918q0.01323,-0.13434 0.03304,-0.26787q0.01981,-0.13353 0.04614,-0.26593q0.02634,-0.1324 0.05914,-0.26335q0.0328,-0.13095 0.07199,-0.26013q0.03918,-0.12918 0.08466,-0.25628q0.04548,-0.1271 0.09714,-0.25182q0.05166,-0.12471 0.10937,-0.24675q0.05772,-0.12203 0.12135,-0.24108q0.06364,-0.11905 0.13304,-0.23484q0.0694,-0.11579 0.1444,-0.22803q0.075,-0.11224 0.15541,-0.22067q0.08042,-0.10843 0.16606,-0.21278q0.08563,-0.10435 0.17629,-0.20437q0.09066,-0.10003 0.18611,-0.19548q0.09545,-0.09545 0.19548,-0.18611q0.10002,-0.09066 0.20437,-0.17629q0.10435,-0.08564 0.21278,-0.16606q0.10843,-0.08041 0.22067,-0.15541q0.11224,-0.075 0.22803,-0.1444q0.11579,-0.0694 0.23484,-0.13304q0.11905,-0.06363 0.24108,-0.12135q0.12204,-0.05771 0.24675,-0.10937q0.12472,-0.05166 0.25182,-0.09714q0.1271,-0.04548 0.25628,-0.08466q0.12918,-0.03919 0.26013,-0.07199q0.13095,-0.0328 0.26335,-0.05914q0.1324,-0.02633 0.26593,-0.04614q0.13353,-0.01981 0.26787,-0.03304q0.13435,-0.01323 0.26918,-0.01986q0.13483,-0.00662 0.26982,-0.00662z"/>
  <path fill-rule="evenodd" fill="#FFFFFF" id="Rectangle-3" d="m33.499,127l108.002,0q0.135,0 0.27,0.00662q0.135,0.00663 0.269,0.01986q0.134,0.01323 0.268,0.03304q0.133,0.01981 0.266,0.04614q0.132,0.02634 0.263,0.05914q0.131,0.0328 0.26,0.07199q0.129,0.03918 0.257,0.08466q0.127,0.04548 0.251,0.09714q0.125,0.05166 0.247,0.10937q0.122,0.05772 0.241,0.12135q0.119,0.06364 0.235,0.13304q0.116,0.0694 0.228,0.1444q0.112,0.075 0.221,0.15541q0.108,0.08042 0.213,0.16606q0.104,0.08563 0.204,0.17629q0.1,0.09066 0.195,0.18611q0.096,0.09545 0.186,0.19548q0.091,0.10002 0.177,0.20437q0.085,0.10435 0.166,0.21278q0.08,0.10843 0.155,0.22067q0.075,0.11224 0.145,0.22803q0.069,0.11579 0.133,0.23484q0.063,0.11905 0.121,0.24108q0.058,0.12204 0.109,0.24675q0.052,0.12472 0.098,0.25182q0.045,0.1271 0.084,0.25628q0.039,0.12918 0.072,0.26013q0.033,0.13095 0.059,0.26335q0.027,0.1324 0.046,0.26593q0.02,0.13353 0.034,0.26787q0.013,0.13435 0.019,0.26918q0.007,0.13483 0.007,0.26982l0,0.002q0,0.13499 -0.007,0.26982q-0.006,0.13483 -0.019,0.26918q-0.014,0.13434 -0.034,0.26787q-0.019,0.13353 -0.046,0.26593q-0.026,0.1324 -0.059,0.26335q-0.033,0.13094 -0.072,0.26013q-0.039,0.12918 -0.084,0.25628q-0.046,0.1271 -0.098,0.25182q-0.051,0.12471 -0.109,0.24674q-0.058,0.12204 -0.121,0.24109q-0.064,0.11905 -0.133,0.23484q-0.07,0.11579 -0.145,0.22803q-0.075,0.11224 -0.155,0.22067q-0.081,0.10843 -0.166,0.21278q-0.086,0.10435 -0.177,0.20437q-0.09,0.10003 -0.186,0.19548q-0.095,0.09545 -0.195,0.18611q-0.1,0.09066 -0.204,0.17629q-0.105,0.08564 -0.213,0.16606q-0.109,0.08041 -0.221,0.15546q-0.112,0.0749 -0.228,0.1443q-0.116,0.0694 -0.235,0.1331q-0.119,0.0636 -0.241,0.1213q-0.122,0.0578 -0.247,0.1094q-0.124,0.0517 -0.251,0.0971q-0.128,0.0455 -0.257,0.0847q-0.129,0.0392 -0.26,0.072q-0.131,0.0328 -0.263,0.0591q-0.133,0.0264 -0.266,0.0462q-0.134,0.0198 -0.268,0.033q-0.134,0.0133 -0.269,0.0199q-0.135,0.0066 -0.27,0.0066l-108.002,0q-0.13499,0 -0.26982,-0.0066q-0.13483,-0.0066 -0.26918,-0.0199q-0.13434,-0.0132 -0.26787,-0.033q-0.13353,-0.0198 -0.26593,-0.0462q-0.1324,-0.0263 -0.26335,-0.0591q-0.13095,-0.0328 -0.26013,-0.072q-0.12918,-0.0392 -0.25628,-0.0847q-0.1271,-0.0454 -0.25182,-0.0971q-0.12471,-0.0516 -0.24675,-0.1094q-0.12203,-0.0577 -0.24108,-0.1213q-0.11905,-0.0637 -0.23484,-0.1331q-0.11579,-0.0694 -0.22803,-0.1444q-0.11224,-0.07495 -0.22067,-0.15536q-0.10843,-0.08042 -0.21278,-0.16606q-0.10435,-0.08563 -0.20437,-0.17629q-0.10003,-0.09066 -0.19548,-0.18611q-0.09545,-0.09545 -0.18611,-0.19548q-0.09066,-0.10002 -0.17629,-0.20437q-0.08564,-0.10435 -0.16606,-0.21278q-0.08041,-0.10843 -0.15541,-0.22067q-0.075,-0.11224 -0.1444,-0.22803q-0.0694,-0.11579 -0.13304,-0.23484q-0.06363,-0.11905 -0.12135,-0.24109q-0.05771,-0.12203 -0.10937,-0.24675q-0.05166,-0.12471 -0.09714,-0.25181q-0.04548,-0.12711 -0.08466,-0.25629q-0.03919,-0.12918 -0.07199,-0.26012q-0.0328,-0.13095 -0.05914,-0.26335q-0.02633,-0.1324 -0.04614,-0.26593q-0.01981,-0.13353 -0.03304,-0.26787q-0.01323,-0.13435 -0.01986,-0.26918q-0.00662,-0.13483 -0.00662,-0.26982l0,-0.002q0,-0.13499 0.00662,-0.26982q0.00663,-0.13483 0.01986,-0.26918q0.01323,-0.13434 0.03304,-0.26787q0.01981,-0.13353 0.04614,-0.26593q0.02634,-0.1324 0.05914,-0.26335q0.0328,-0.13095 0.07199,-0.26013q0.03918,-0.12918 0.08466,-0.25628q0.04548,-0.1271 0.09714,-0.25182q0.05166,-0.12471 0.10937,-0.24675q0.05772,-0.12203 0.12135,-0.24108q0.06364,-0.11905 0.13304,-0.23484q0.0694,-0.11579 0.1444,-0.22803q0.075,-0.11224 0.15541,-0.22067q0.08042,-0.10843 0.16606,-0.21278q0.08563,-0.10435 0.17629,-0.20437q0.09066,-0.10003 0.18611,-0.19548q0.09545,-0.09545 0.19548,-0.18611q0.10002,-0.09066 0.20437,-0.17629q0.10435,-0.08564 0.21278,-0.16606q0.10843,-0.08041 0.22067,-0.15541q0.11224,-0.075 0.22803,-0.1444q0.11579,-0.0694 0.23484,-0.13304q0.11905,-0.06363 0.24108,-0.12135q0.12204,-0.05771 0.24675,-0.10937q0.12472,-0.05166 0.25182,-0.09714q0.1271,-0.04548 0.25628,-0.08466q0.12918,-0.03919 0.26013,-0.07199q0.13095,-0.0328 0.26335,-0.05914q0.1324,-0.02633 0.26593,-0.04614q0.13353,-0.01981 0.26787,-0.03304q0.13435,-0.01323 0.26918,-0.01986q0.13483,-0.00662 0.26982,-0.00662z"/>
  <path fill-rule="evenodd" fill="#FFFFFF" id="Rectangle-4" d="m110.499,146l31.002,0q0.135,0 0.2698,0.00662q0.1349,0.00663 0.2692,0.01986q0.1343,0.01323 0.2679,0.03304q0.1335,0.01981 0.2659,0.04614q0.1324,0.02634 0.2633,0.05914q0.131,0.0328 0.2602,0.07199q0.1292,0.03918 0.2563,0.08466q0.1271,0.04548 0.2518,0.09714q0.1247,0.05166 0.2467,0.10937q0.1221,0.05772 0.2411,0.12135q0.1191,0.06364 0.2348,0.13304q0.1158,0.0694 0.2281,0.1444q0.1122,0.075 0.2206,0.15541q0.1085,0.08042 0.2128,0.16606q0.1044,0.08563 0.2044,0.17629q0.1,0.09066 0.1955,0.18611q0.0954,0.09545 0.1861,0.19548q0.0906,0.10002 0.1763,0.20437q0.0856,0.10435 0.166,0.21278q0.0804,0.10843 0.1554,0.22067q0.075,0.11224 0.1444,0.22803q0.0694,0.11579 0.1331,0.23484q0.0636,0.11905 0.1213,0.24108q0.0577,0.12204 0.1094,0.24675q0.0517,0.12472 0.0971,0.25182q0.0455,0.1271 0.0847,0.25628q0.0392,0.12918 0.072,0.26013q0.0328,0.13095 0.0591,0.26335q0.0264,0.1324 0.0462,0.26593q0.0198,0.13353 0.033,0.26787q0.0133,0.13435 0.0199,0.26918q0.0066,0.13483 0.0066,0.26982l0,0.002q0,0.13499 -0.0066,0.26982q-0.0066,0.13483 -0.0199,0.26918q-0.0132,0.13434 -0.033,0.26787q-0.0198,0.13353 -0.0462,0.26593q-0.0263,0.1324 -0.0591,0.26335q-0.0328,0.13094 -0.072,0.26013q-0.0392,0.12918 -0.0846,0.25628q-0.0455,0.1271 -0.0972,0.25182q-0.0516,0.12471 -0.1094,0.24674q-0.0577,0.12204 -0.1213,0.24109q-0.0637,0.11905 -0.1331,0.23484q-0.0694,0.11579 -0.1444,0.22803q-0.075,0.11224 -0.1554,0.22067q-0.0804,0.10843 -0.166,0.21278q-0.0857,0.10435 -0.1763,0.20437q-0.0907,0.10003 -0.1861,0.19548q-0.0955,0.09545 -0.1955,0.18611q-0.1,0.09066 -0.2044,0.17629q-0.1043,0.08564 -0.2127,0.16606q-0.1085,0.08041 -0.2207,0.15546q-0.1123,0.0749 -0.228,0.1443q-0.1158,0.0694 -0.2349,0.1331q-0.119,0.0636 -0.2411,0.1213q-0.122,0.0578 -0.2467,0.1094q-0.1247,0.0517 -0.2518,0.0971q-0.1271,0.0455 -0.2563,0.0847q-0.1292,0.0392 -0.2602,0.072q-0.1309,0.0328 -0.2633,0.0591q-0.1324,0.0264 -0.2659,0.0462q-0.1336,0.0198 -0.2679,0.033q-0.1343,0.0133 -0.2692,0.0199q-0.1348,0.0066 -0.2698,0.0066l-31.002,0q-0.13499,0 -0.26982,-0.0066q-0.13483,-0.0066 -0.26918,-0.0199q-0.13434,-0.0132 -0.26787,-0.033q-0.13353,-0.0198 -0.26593,-0.0462q-0.1324,-0.0263 -0.26335,-0.0591q-0.13095,-0.0328 -0.26013,-0.072q-0.12918,-0.0392 -0.25628,-0.0847q-0.1271,-0.0454 -0.25182,-0.0971q-0.12471,-0.0516 -0.24675,-0.1094q-0.12203,-0.0577 -0.24108,-0.1213q-0.11905,-0.0637 -0.23484,-0.1331q-0.11579,-0.0694 -0.22803,-0.1444q-0.11224,-0.07495 -0.22067,-0.15536q-0.10843,-0.08042 -0.21278,-0.16606q-0.10435,-0.08563 -0.20437,-0.17629q-0.10003,-0.09066 -0.19548,-0.18611q-0.09545,-0.09545 -0.18611,-0.19548q-0.09066,-0.10002 -0.17629,-0.20437q-0.08564,-0.10435 -0.16606,-0.21278q-0.08041,-0.10843 -0.15541,-0.22067q-0.075,-0.11224 -0.1444,-0.22803q-0.0694,-0.11579 -0.13304,-0.23484q-0.06363,-0.11905 -0.12135,-0.24109q-0.05771,-0.12203 -0.10937,-0.24675q-0.05166,-0.12471 -0.09714,-0.25181q-0.04548,-0.12711 -0.08466,-0.25629q-0.03919,-0.12918 -0.07199,-0.26012q-0.0328,-0.13095 -0.05914,-0.26335q-0.02633,-0.1324 -0.04614,-0.26593q-0.01981,-0.13353 -0.03304,-0.26787q-0.01323,-0.13435 -0.01986,-0.26918q-0.00662,-0.13483 -0.00662,-0.26982l0,-0.002q0,-0.13499 0.00662,-0.26982q0.00663,-0.13483 0.01986,-0.26918q0.01323,-0.13434 0.03304,-0.26787q0.01981,-0.13353 0.04614,-0.26593q0.02634,-0.1324 0.05914,-0.26335q0.0328,-0.13095 0.07199,-0.26013q0.03918,-0.12918 0.08466,-0.25628q0.04548,-0.1271 0.09714,-0.25182q0.05166,-0.12471 0.10937,-0.24675q0.05772,-0.12203 0.12135,-0.24108q0.06364,-0.11905 0.13304,-0.23484q0.0694,-0.11579 0.1444,-0.22803q0.075,-0.11224 0.15541,-0.22067q0.08042,-0.10843 0.16606,-0.21278q0.08563,-0.10435 0.17629,-0.20437q0.09066,-0.10003 0.18611,-0.19548q0.09545,-0.09545 0.19548,-0.18611q0.10002,-0.09066 0.20437,-0.17629q0.10435,-0.08564 0.21278,-0.16606q0.10843,-0.08041 0.22067,-0.15541q0.11224,-0.075 0.22803,-0.1444q0.11579,-0.0694 0.23484,-0.13304q0.11905,-0.06363 0.24108,-0.12135q0.12204,-0.05771 0.24675,-0.10937q0.12472,-0.05166 0.25182,-0.09714q0.1271,-0.04548 0.25628,-0.08466q0.12918,-0.03919 0.26013,-0.07199q0.13095,-0.0328 0.26335,-0.05914q0.1324,-0.02633 0.26593,-0.04614q0.13353,-0.01981 0.26787,-0.03304q0.13435,-0.01323 0.26918,-0.01986q0.13483,-0.00662 0.26982,-0.00662z"/>
  <path fill-rule="evenodd" fill="#A0616A" id="Path-37" d="m201.28095,33.0069c0,0 4.75285,1.84655 5.01685,7.91377c0.2641,6.06723 -1.32019,22.94993 -1.32019,22.94993c0,0 5.80909,8.4413 1.32019,10.8155c-4.48876,2.3741 -5.01685,-9.4966 -5.01685,-9.4966l-5.28095,-25.06021c0,0 3.16857,-7.38618 5.28095,-7.12239z"/>
  <path fill-rule="evenodd" fill="#A0616A" id="Path-38" d="m152.8941,52.1406c0,0 -11.31929,7.4874 -11.84577,1.6044c-0.52648,-5.883 3.42211,-28.88023 3.42211,-28.88023c0,0 0.52648,-9.89417 6.05449,-7.48747c5.52807,2.40671 -1.57943,10.6964 -1.57943,10.6964l0.78972,18.7187l5.26478,-0.2674l-2.1059,5.6156z"/>
  <path fill-rule="evenodd" fill="#2F2E41" id="Path-39" d="m170.7366,58.15976c0,0 -34.49565,-12.90746 -32.66633,2.10734c1.82931,15.0148 10.71453,33.9809 10.71453,33.9809l3.136,5.0049l6.5333,0l-4.1813,-27.132c0,0 14.8958,8.4294 19.3385,7.1123c0,0 5.7492,38.7224 7.8399,41.62c2.0906,2.8976 5.7493,37.9318 5.7493,37.9318l3.3973,4.215l6.5332,0l0,-59.269c0,0 11.2373,-36.8785 2.6133,-38.7224c-8.6239,-1.8439 -29.0077,-6.84884 -29.0077,-6.84884z"/>
  <path fill-rule="evenodd" fill="#2F2E41" id="Path-40" d="m151.7662,97.3253c0,0 -1.6311,-2.98193 -4.3497,0c-2.7187,2.98193 -9.24332,6.50602 -9.24332,6.50602c0,0 -14.13679,3.25298 -2.71861,5.96388c11.41813,2.7108 12.77743,0 12.77743,0c0,0 1.9031,0.5421 3.5342,1.0843c1.6312,0.5422 12.2338,-1.3554 12.2338,-2.9819c0,-1.6265 -3.5995,-11.34697 -5.0621,-9.8753c-1.4626,1.47167 -7.1717,-0.697 -7.1717,-0.697z"/>
  <path fill-rule="evenodd" fill="#2F2E41" id="Path-41" d="m192.2374,160.44581c0,0 -4.0453,-3.19453 -4.9971,-2.28181c-0.9518,0.91273 -5.94892,7.0736 -5.94892,7.0736c0,0 -13.32554,9.8118 -1.18978,11.409c12.1358,1.5973 11.4219,-2.7381 11.4219,-2.7381l3.8073,0c0.4759,0 6.9007,-2.7382 6.6628,-3.8791c-0.238,-1.1409 -3.0935,-10.44421 -4.0453,-9.78572c-0.9518,0.65849 -5.7109,0.20213 -5.7109,0.20213z"/>
  <path fill-rule="evenodd" fill="#A0616A" id="Oval-12" d="m156,21c4.9706,0 9,-4.0294 9,-9c0,-4.97056 -4.0294,-9 -9,-9c-4.97056,0 -9,4.02944 -9,9c0,4.9706 4.02944,9 9,9z"/>
  <path fill-rule="evenodd" fill="#A0616A" id="Path-42" d="m162.45255,13c0,0 6.75075,5.5873 11.42435,5.5873c4.6736,0 -6.7507,10.4127 -6.7507,10.4127l-10.1262,-8.88889l5.45255,-7.11111z"/>
  <path fill-rule="evenodd" fill="#575A89" id="Path-43" d="m165.6372,28.6353l-0.2081,-2.1074c0,0 5.2869,-9.39516 6.8907,-10.19768c1.6038,-0.80251 2.673,-0.8025 2.673,-0.8025c0,0 5.3461,-5.61755 11.2268,-2.67503c5.8806,2.94253 19.7804,21.66771 19.7804,21.66771c0,0 -9.8902,0.8025 -8.5537,8.5601c0,0 9.8902,25.4127 7.2172,25.6802c-2.673,0.2675 -10.6921,-1.605 -18.9785,2.14c-8.2864,3.7451 -12.0287,1.3375 -12.0287,1.3375l-4.2768,-13.9101c0,0 -8.0191,-4.5475 -7.7518,-8.5601l-11.6277,5.2163l1.06921,-9.8976l7.08353,-8.1588c0,0 -1.33651,-1.07 7.48446,-8.2926z"/>
  <path fill-rule="evenodd" fill="#2F2E41" id="Path-44" d="m146.68707,13.7865c-0.37194,0.4013 -0.83815,0.7095 -1.35904,0.8984c-0.53305,0.1459 -1.20463,-0.033 -1.41706,-0.5295l0.39573,-0.4999l-1.18634,-0.7156l0.51694,-0.5887l-0.95555,-1.0072l0.75419,-0.5808l-1.43594,-0.99687c1.86106,-2.94775 3.87376,-5.9324 6.812,-7.88647c2.93824,-1.95407 7.0439,-2.64842 10.0539,-0.80014c1.5627,0.95961 2.6678,2.48266 3.553,4.05861c1.7802,3.16939 3.3494,6.25887 3.5811,9.86167c-1.1183,-1.057 -2.7508,-1.6527 -3.8691,-2.7097c-0.4952,-0.51 -1.0562,-0.9558 -1.6691,-1.3262c-1.1696,-0.6403 -2.5691,-0.6969 -3.8785,-0.98569c-1.101,-0.24284 -1.8155,-0.72456 -2.6484,-1.41321c-0.9909,-0.81922 -1.0313,-0.50246 -2.03192,0.41989c-1.73753,1.60161 -3.47616,3.20211 -5.21591,4.80141z"/>
 </g>
</svg>