<?xml version="1.0" encoding="utf-8"?>
<svg width="20px" height="20px" viewbox="0 0 20 20" version="1.1" xmlns:xlink="http://www.w3.org/1999/xlink" xmlns="http://www.w3.org/2000/svg">
  <defs>
    <filter id="filter_1">
      <feColorMatrix in="SourceGraphic" type="matrix" values="0 0 0 0 0.039215688 0 0 0 0 0 0 0 0 0 0.5568628 0 0 0 1 0" />
    </filter>
  </defs>
  <g id="Kamera">
    <g id="Actions--Toggle--screen--20" filter="url(#filter_1)">
      <path d="M16.25 0L1.25 0C0.559644 0 0 0.559644 0 1.25L0 11.25C0 11.9404 0.559644 12.5 1.25 12.5L6.25 12.5L6.25 15L3.75 15L3.75 16.25L13.75 16.25L13.75 15L11.25 15L11.25 12.5L16.25 12.5C16.9404 12.5 17.5 11.9404 17.5 11.25L17.5 1.25C17.5 0.559644 16.9404 0 16.25 0ZM10 15L7.5 15L7.5 12.5L10 12.5L10 15ZM16.25 11.25L1.25 11.25L1.25 1.25L16.25 1.25L16.25 11.25Z" transform="translate(1.25 2.5)" id="Fill" fill="#FFFFFF" fill-rule="evenodd" stroke="none" />
    </g>
  </g>
</svg>