<?xml version="1.0" encoding="utf-8"?>
<svg width="20px" height="20px" viewbox="0 0 20 20" version="1.1" xmlns:xlink="http://www.w3.org/1999/xlink" xmlns="http://www.w3.org/2000/svg">
  <path d="M12.5 13.75L13.75 13.75L10.625 6.25L9.375 6.25L6.25 13.75L7.5 13.75L8.275 11.875L11.7313 11.875L12.5 13.75ZM8.79375 10.625L9.93125 7.8625L10.0875 7.8625L11.25 10.625L8.79375 10.625ZM7.5 17.5L3.75 17.5C3.05964 17.5 2.5 16.9404 2.5 16.25L2.5 3.75C2.5 3.05964 3.05964 2.5 3.75 2.5L16.25 2.5C16.9404 2.5 17.5 3.05964 17.5 3.75L17.5 10.625L16.25 10.625L16.25 3.75L3.75 3.75L3.75 16.25L7.5 16.25L7.5 17.5ZM14.375 16.9875L12.7563 15.3687L11.875 16.25L14.375 18.75L18.75 14.375L17.8687 13.4937L14.375 16.9875Z" id="Fill" fill="#000000" fill-rule="evenodd" stroke="none" />
</svg>