<?xml version="1.0" encoding="utf-8"?>
<svg width="16px" height="16px" viewbox="0 0 16 16" version="1.1" xmlns:xlink="http://www.w3.org/1999/xlink" xmlns="http://www.w3.org/2000/svg">
  <g id="Group-10">
    <g id="Organization--Status--information--16">
      <path d="M8.5 11L8.5 6.5L6.5 6.5L6.5 7.5L7.5 7.5L7.5 11L6 11L6 12L10 12L10 11L8.5 11ZM8 3.5C7.6 3.5 7.2 3.8 7.2 4.3C7.2 4.8 7.6 5 8 5C8.4 5 8.8 4.7 8.8 4.2C8.8 3.7 8.4 3.5 8 3.5ZM8 15C4.1 15 1 11.9 1 8C1 4.1 4.1 1 8 1C11.9 1 15 4.1 15 8C15 11.9 11.9 15 8 15ZM8 2C4.7 2 2 4.7 2 8C2 11.3 4.7 14 8 14C11.3 14 14 11.3 14 8C14 4.7 11.3 2 8 2Z" id="Fill" fill="#525252" fill-rule="evenodd" stroke="none" />
    </g>
  </g>
</svg>