<?xml version="1.0" encoding="utf-8"?>
<svg width="32px" height="32px" viewbox="0 0 32 32" version="1.1" xmlns:xlink="http://www.w3.org/1999/xlink" xmlns="http://www.w3.org/2000/svg">
  <g id="Group-17">
    <path d="M16 32C24.8366 32 32 24.8366 32 16C32 7.16344 24.8366 0 16 0C7.16344 0 0 7.16344 0 16C0 24.8366 7.16344 32 16 32Z" id="Oval" fill="#0A008E" fill-opacity="0.1" fill-rule="evenodd" stroke="none" />
    <g id="Group-16" transform="translate(15 10)">
      <path d="M1 2C1.55228 2 2 1.55228 2 1C2 0.447715 1.55228 0 1 0C0.447715 0 0 0.447715 0 1C0 1.55228 0.447715 2 1 2Z" id="Oval" fill="#0A008E" fill-rule="evenodd" stroke="none" />
      <path d="M0.999 0L1.001 0Q1.09939 0 1.1959 0.0191955Q1.2924 0.038391 1.3833 0.0760443Q1.4742 0.113698 1.55601 0.168362Q1.63783 0.223026 1.7074 0.2926Q1.77697 0.362175 1.83164 0.443985Q1.8863 0.525796 1.92396 0.616699Q1.96161 0.707602 1.9808 0.804105Q2 0.900607 2 0.999L2 7.001Q2 7.09939 1.9808 7.19589Q1.96161 7.2924 1.92396 7.3833Q1.8863 7.4742 1.83164 7.55601Q1.77697 7.63782 1.7074 7.7074Q1.63783 7.77697 1.55601 7.83164Q1.4742 7.8863 1.3833 7.92395Q1.2924 7.96161 1.1959 7.9808Q1.09939 8 1.001 8L0.999 8Q0.900607 8 0.804105 7.9808Q0.707602 7.96161 0.616699 7.92395Q0.525796 7.8863 0.443985 7.83164Q0.362175 7.77697 0.2926 7.7074Q0.223026 7.63782 0.168362 7.55601Q0.113698 7.4742 0.0760443 7.3833Q0.038391 7.2924 0.0191955 7.19589Q0 7.09939 0 7.001L0 0.999Q0 0.900607 0.0191955 0.804105Q0.038391 0.707602 0.0760443 0.616699Q0.113698 0.525796 0.168362 0.443985Q0.223026 0.362175 0.2926 0.2926Q0.362175 0.223026 0.443985 0.168362Q0.525796 0.113698 0.616699 0.0760443Q0.707602 0.038391 0.804105 0.0191955Q0.900607 0 0.999 0Z" transform="translate(0 4)" id="Rectangle" fill="#0A008E" fill-rule="evenodd" stroke="none" />
    </g>
  </g>
</svg>