<?xml version="1.0" encoding="utf-8"?>
<svg width="20px" height="20px" viewbox="0 0 20 20" version="1.1" xmlns:xlink="http://www.w3.org/1999/xlink" xmlns="http://www.w3.org/2000/svg">
  <defs>
    <filter id="filter_1">
      <feColorMatrix in="SourceGraphic" type="matrix" values="0 0 0 0 0.039215688 0 0 0 0 0 0 0 0 0 0.5568628 0 0 0 1 0" />
    </filter>
  </defs>
  <g id="Gateway">
    <g id="Actions--Operations--recommend--20" filter="url(#filter_1)">
      <path d="M5.61257 0C3.28578 0.00523925 1.20238 1.44253 0.371291 3.61583C-0.4598 5.78913 0.132981 8.24982 1.86257 9.80625L1.86257 17.5L5.61257 15L9.36257 17.5L9.36257 9.80625C11.0922 8.24982 11.6849 5.78913 10.8538 3.61583C10.0228 1.44253 7.93935 0.00523925 5.61257 0ZM8.11257 15.1625L6.30632 13.9625L5.61257 13.5L4.91882 13.9625L3.11257 15.1625L3.11257 10.6563C4.68484 11.4495 6.54029 11.4495 8.11257 10.6563L8.11257 15.1625ZM8.66882 8.75C7.1785 10.205 4.86909 10.4076 3.14818 9.23439C1.42726 8.06118 0.772002 5.83743 1.58178 3.91852C2.39157 1.9996 4.44185 0.91759 6.483 1.33197C8.52414 1.74635 9.99018 3.54222 9.98757 5.625C9.98609 6.80162 9.51074 7.92805 8.66882 8.75L8.66882 8.75Z" transform="translate(4.3874316 1.25)" id="Fill" fill="#0A008E" fill-rule="evenodd" stroke="none" />
    </g>
  </g>
</svg>