<?xml version="1.0" encoding="utf-8"?>
<svg width="20px" height="20px" viewbox="0 0 20 20" version="1.1" xmlns:xlink="http://www.w3.org/1999/xlink" xmlns="http://www.w3.org/2000/svg">
  <defs>
    <filter id="filter_1">
      <feColorMatrix in="SourceGraphic" type="matrix" values="0 0 0 0 0.039215688 0 0 0 0 0 0 0 0 0 0.5568628 0 0 0 1 0" />
    </filter>
  </defs>
  <g id="Group-11">
    <g id="Actions--Toggle--view--20" filter="url(#filter_1)">
      <path d="M19.3375 9.7875C17.835 5.90106 14.1638 3.28158 10 3.125C5.83619 3.28158 2.16498 5.90106 0.6625 9.7875C0.612855 9.92482 0.612855 10.0752 0.6625 10.2125C2.16498 14.0989 5.83619 16.7184 10 16.875C14.1638 16.7184 17.835 14.0989 19.3375 10.2125C19.3871 10.0752 19.3871 9.92482 19.3375 9.7875ZM10 15.625C6.6875 15.625 3.1875 13.1688 1.91875 10C3.1875 6.83125 6.6875 4.375 10 4.375C13.3125 4.375 16.8125 6.83125 18.0812 10C16.8125 13.1688 13.3125 15.625 10 15.625ZM10 6.25C7.92893 6.25 6.25 7.92893 6.25 10C6.25 12.0711 7.92893 13.75 10 13.75C12.0711 13.75 13.75 12.0711 13.75 10C13.75 7.92893 12.0711 6.25 10 6.25ZM10 12.5C8.61929 12.5 7.5 11.3807 7.5 10C7.5 8.61929 8.61929 7.5 10 7.5C11.3807 7.5 12.5 8.61929 12.5 10C12.5 10.663 12.2366 11.2989 11.7678 11.7678C11.2989 12.2366 10.663 12.5 10 12.5Z" id="Fill" fill="#0A008E" fill-rule="evenodd" stroke="none"/>
    </g>
  </g>
</svg>