<?xml version="1.0" encoding="utf-8"?>
<svg width="48px" height="48px" viewbox="0 0 48 48" version="1.1" xmlns:xlink="http://www.w3.org/1999/xlink" xmlns="http://www.w3.org/2000/svg">
  <g id="btn-nfc">
    <g id="Group-3">
      <g id="Group-10">
        <path d="M23.999 0L24.001 0Q24.5901 0 25.1786 0.0289078Q25.767 0.0578157 26.3533 0.115562Q26.9396 0.173308 27.5224 0.259753Q28.1051 0.346198 28.683 0.461134Q29.2608 0.57607 29.8323 0.71922Q30.4038 0.86237 30.9675 1.03339Q31.5313 1.20441 32.086 1.40288Q32.6407 1.60136 33.185 1.82681Q33.7293 2.05227 34.2619 2.30416Q34.7945 2.55605 35.314 2.83377Q35.8336 3.11149 36.3389 3.41437Q36.8443 3.71725 37.3341 4.04456Q37.824 4.37187 38.2972 4.72282Q38.7704 5.07377 39.2258 5.44752Q39.6812 5.82127 40.1177 6.21691Q40.5543 6.61256 40.9708 7.02914Q41.3874 7.44573 41.7831 7.88226Q42.1787 8.31878 42.5525 8.77419Q42.9262 9.22961 43.2772 9.70281Q43.6281 10.176 43.9554 10.6659Q44.2827 11.1557 44.5856 11.661Q44.8885 12.1664 45.1662 12.6859Q45.4439 13.2055 45.6958 13.7381Q45.9477 14.2707 46.1732 14.815Q46.3986 15.3593 46.5971 15.914Q46.7956 16.4687 46.9666 17.0325Q47.1376 17.5962 47.2808 18.1677Q47.4239 18.7392 47.5389 19.317Q47.6538 19.8948 47.7402 20.4776Q47.8267 21.0604 47.8844 21.6467Q47.9422 22.233 47.9711 22.8214Q48 23.4099 48 23.999L48 24.001Q48 24.5901 47.9711 25.1786Q47.9422 25.767 47.8844 26.3533Q47.8267 26.9396 47.7402 27.5224Q47.6538 28.1051 47.5389 28.683Q47.4239 29.2608 47.2808 29.8323Q47.1376 30.4038 46.9666 30.9675Q46.7956 31.5313 46.5971 32.086Q46.3986 32.6407 46.1732 33.185Q45.9477 33.7293 45.6958 34.2619Q45.4439 34.7945 45.1662 35.314Q44.8885 35.8336 44.5856 36.3389Q44.2827 36.8443 43.9554 37.3341Q43.6281 37.824 43.2772 38.2972Q42.9262 38.7704 42.5525 39.2258Q42.1787 39.6812 41.7831 40.1177Q41.3874 40.5543 40.9708 40.9708Q40.5543 41.3874 40.1177 41.7831Q39.6812 42.1787 39.2258 42.5525Q38.7704 42.9262 38.2972 43.2772Q37.824 43.6281 37.3341 43.9554Q36.8443 44.2827 36.3389 44.5856Q35.8336 44.8885 35.314 45.1662Q34.7945 45.4439 34.2619 45.6958Q33.7293 45.9477 33.185 46.1732Q32.6407 46.3986 32.086 46.5971Q31.5313 46.7956 30.9675 46.9666Q30.4038 47.1376 29.8323 47.2808Q29.2608 47.4239 28.683 47.5389Q28.1051 47.6538 27.5224 47.7402Q26.9396 47.8267 26.3533 47.8844Q25.767 47.9422 25.1786 47.9711Q24.5901 48 24.001 48L23.999 48Q23.4099 48 22.8214 47.9711Q22.233 47.9422 21.6467 47.8844Q21.0604 47.8267 20.4776 47.7402Q19.8948 47.6538 19.317 47.5389Q18.7392 47.4239 18.1677 47.2808Q17.5962 47.1376 17.0325 46.9666Q16.4687 46.7956 15.914 46.5971Q15.3593 46.3986 14.815 46.1732Q14.2707 45.9477 13.7381 45.6958Q13.2055 45.4439 12.6859 45.1662Q12.1664 44.8885 11.661 44.5856Q11.1557 44.2827 10.6659 43.9554Q10.176 43.6281 9.70281 43.2772Q9.22961 42.9262 8.77419 42.5525Q8.31878 42.1787 7.88226 41.7831Q7.44573 41.3874 7.02914 40.9708Q6.61256 40.5543 6.21691 40.1177Q5.82127 39.6812 5.44752 39.2258Q5.07377 38.7704 4.72282 38.2972Q4.37187 37.824 4.04456 37.3341Q3.71725 36.8443 3.41437 36.3389Q3.11149 35.8336 2.83377 35.314Q2.55605 34.7945 2.30416 34.2619Q2.05227 33.7293 1.82681 33.185Q1.60136 32.6407 1.40288 32.086Q1.20441 31.5313 1.03339 30.9675Q0.86237 30.4038 0.71922 29.8323Q0.57607 29.2608 0.461134 28.683Q0.346198 28.1051 0.259753 27.5224Q0.173308 26.9396 0.115562 26.3533Q0.0578157 25.767 0.0289078 25.1786Q0 24.5901 0 24.001L0 23.999Q0 23.4099 0.0289078 22.8214Q0.0578157 22.233 0.115562 21.6467Q0.173308 21.0604 0.259753 20.4776Q0.346198 19.8948 0.461134 19.317Q0.57607 18.7392 0.71922 18.1677Q0.86237 17.5962 1.03339 17.0325Q1.20441 16.4687 1.40288 15.914Q1.60136 15.3593 1.82681 14.815Q2.05227 14.2707 2.30416 13.7381Q2.55605 13.2055 2.83377 12.6859Q3.11149 12.1664 3.41437 11.661Q3.71725 11.1557 4.04456 10.6659Q4.37187 10.176 4.72282 9.70281Q5.07377 9.22961 5.44752 8.77419Q5.82127 8.31878 6.21691 7.88226Q6.61256 7.44573 7.02914 7.02914Q7.44573 6.61256 7.88226 6.21691Q8.31878 5.82127 8.77419 5.44752Q9.22961 5.07377 9.70281 4.72282Q10.176 4.37187 10.6659 4.04456Q11.1557 3.71725 11.661 3.41437Q12.1664 3.11149 12.6859 2.83377Q13.2055 2.55605 13.7381 2.30416Q14.2707 2.05227 14.815 1.82681Q15.3593 1.60136 15.914 1.40288Q16.4687 1.20441 17.0325 1.03339Q17.5962 0.86237 18.1677 0.71922Q18.7392 0.57607 19.317 0.461134Q19.8948 0.346198 20.4776 0.259753Q21.0604 0.173308 21.6467 0.115562Q22.233 0.0578157 22.8214 0.0289078Q23.4099 0 23.999 0Z" id="background" fill="#0A008E" fill-rule="evenodd" stroke="none" />
      </g>
    </g>
    <path d="M2.73712 16.224C2.16344 16.1725 1.6121 15.952 1.14606 15.5863C1.0303 15.4957 0.749051 15.2134 0.654623 15.0919C0.488104 14.8797 0.309401 14.5676 0.213957 14.3245C0.128667 14.1071 0.0687614 13.8815 0.0271317 13.624L0.00377851 13.4798L0.000732438 8.22117C-0.00129828 4.40056 0.000732438 2.92134 0.0088553 2.81318C0.0799303 1.88095 0.566286 1.0373 1.33288 0.517107C1.69536 0.270914 2.12283 0.103009 2.55436 0.0370833C2.76657 0.00412037 2.96456 0 4.01444 0.00309028L5.06026 0.00618056L5.00949 0.0360533C4.52923 0.316239 4.09567 1.04554 3.85706 1.97263C3.71897 2.50931 3.65399 2.95328 3.59104 3.79177C3.5819 3.91126 3.57784 5.40181 3.57581 9.68287L3.57276 15.4143L3.63267 15.3587C3.66617 15.3278 5.10493 13.8826 6.83104 12.1458L9.96951 8.98859L9.96951 7.9997L9.96951 7.01081L9.79995 7.18181C9.51971 7.46199 6.08171 10.9283 5.44609 11.571L4.85719 12.1664L4.85414 9.04731C4.85109 5.89934 4.85414 5.55838 4.88866 4.97123C4.96583 3.64344 5.14961 2.65249 5.45523 1.91391C5.51412 1.77176 5.65323 1.49776 5.73039 1.37105C5.88879 1.1125 6.17106 0.794202 6.38834 0.630417C6.75083 0.356412 7.17931 0.167905 7.72862 0.0422338L7.90834 0L10.5818 0.00412037C13.5202 0.00721065 13.2897 0.00206019 13.6106 0.0679861C14.5863 0.267824 15.425 0.987859 15.7916 1.93863C15.8789 2.16629 15.9337 2.38157 15.9774 2.66897C15.9936 2.78022 15.9957 3.0944 15.9987 8.01C16.0007 11.5679 15.9987 13.281 15.9906 13.384C15.9713 13.6704 15.9286 13.8887 15.8444 14.1494C15.4646 15.3092 14.4462 16.121 13.244 16.225C13.1709 16.2312 12.6805 16.2353 12.0256 16.2353L10.929 16.2353L10.9879 16.2013C11.0894 16.1436 11.1697 16.0787 11.2895 15.9572C11.7616 15.4802 12.1099 14.6459 12.2835 13.5777C12.3383 13.2388 12.3739 12.904 12.4084 12.3982C12.4165 12.2694 12.4206 10.7222 12.4236 6.52255L12.4277 0.823044L12.3881 0.857037C12.3658 0.876609 11.2976 1.94894 10.0142 3.24067C8.73077 4.53241 7.30826 5.96218 6.85541 6.41851L6.02992 7.24773L6.02992 8.24074L6.02992 9.23272L7.91138 7.33426C8.94501 6.28975 10.0964 5.12677 10.4701 4.75079L11.1473 4.06578L11.1473 7.18181C11.1473 8.98344 11.1433 10.4297 11.1372 10.611C11.0793 12.459 10.859 13.693 10.4315 14.5645C10.2761 14.8818 10.1157 15.1166 9.89844 15.3432C9.67404 15.5771 9.45066 15.7408 9.15215 15.8902C8.88206 16.0252 8.60792 16.1199 8.25559 16.2003L8.09922 16.2353L5.46335 16.2343C4.01241 16.2332 2.78687 16.2291 2.73712 16.224Z" transform="matrix(1 2.1456883E-07 2.1456883E-07 -1 16.00028 32.23529)" id="Path" fill="#FFFFFF" fill-rule="evenodd" stroke="none" />
  </g>
</svg>