<?xml version="1.0" encoding="utf-8"?>
<svg width="24px" height="24px" viewbox="0 0 20 24" version="1.1" xmlns:xlink="http://www.w3.org/1999/xlink" xmlns="http://www.w3.org/2000/svg">
  <g id="Group-2" transform="translate(0.100097656 0.099998474)">
    <g id="3602145glocke">
      <path d="M3.3224 3.79703C1.49034 3.79703 0 2.3067 0 0.474629C0 0.212634 0.212634 0 0.474629 0C0.736625 0 0.949258 0.212634 0.949258 0.474629C0.949258 1.78271 2.01433 2.84778 3.3224 2.84778C4.63048 2.84778 5.69555 1.78271 5.69555 0.474629C5.69555 0.212634 5.90818 0 6.17018 0C6.43217 0 6.64481 0.212634 6.64481 0.474629C6.64481 2.3067 5.15447 3.79703 3.3224 3.79703Z" transform="translate(6.1701794 18.985168)" id="Path" fill="#000000" stroke="none" />
      <path d="M17.5613 17.0867L1.42389 17.0867C0.638851 17.0867 0 16.4478 0 15.6628C0 15.246 0.181308 14.8521 0.498361 14.5806C1.99439 13.3162 2.84778 11.4765 2.84778 9.52866L2.84778 6.64481C2.84778 2.98067 5.82845 0 9.49258 0C13.1567 0 16.1374 2.98067 16.1374 6.64481L16.1374 9.52866C16.1374 11.4775 16.9908 13.3162 18.4792 14.574C18.8039 14.8521 18.9852 15.246 18.9852 15.6628C18.9852 16.4478 18.3473 17.0867 17.5613 17.0867ZM9.49258 0.949258C6.35149 0.949258 3.79703 3.50371 3.79703 6.64481L3.79703 9.52866C3.79703 11.7575 2.8212 13.8601 1.11918 15.2992C1.01001 15.3922 0.949258 15.5242 0.949258 15.6628C0.949258 15.9248 1.16189 16.1374 1.42389 16.1374L17.5613 16.1374C17.8233 16.1374 18.0359 15.9248 18.0359 15.6628C18.0359 15.5242 17.9752 15.3922 17.8698 15.302C16.1649 13.8601 15.1881 11.7566 15.1881 9.52866L15.1881 6.64481C15.1881 3.50371 12.6337 0.949258 9.49258 0.949258Z" transform="translate(0 2.8477752)" id="Shape" fill="#000000" stroke="#000000" stroke-width="0.2" />
    </g>
    <g id="3602145glocke">
      <path d="M3.3224 3.79703C1.49034 3.79703 0 2.3067 0 0.474629C0 0.212634 0.212634 0 0.474629 0C0.736625 0 0.949258 0.212634 0.949258 0.474629C0.949258 1.78271 2.01433 2.84778 3.3224 2.84778C4.63048 2.84778 5.69555 1.78271 5.69555 0.474629C5.69555 0.212634 5.90818 0 6.17018 0C6.43217 0 6.64481 0.212634 6.64481 0.474629C6.64481 2.3067 5.15447 3.79703 3.3224 3.79703Z" transform="translate(6.1701794 18.985168)" id="Path" fill="#000000" stroke="none" />
      <path d="M17.5613 17.0867L1.42389 17.0867C0.638851 17.0867 0 16.4478 0 15.6628C0 15.246 0.181308 14.8521 0.498361 14.5806C1.99439 13.3162 2.84778 11.4765 2.84778 9.52866L2.84778 6.64481C2.84778 2.98067 5.82845 0 9.49258 0C13.1567 0 16.1374 2.98067 16.1374 6.64481L16.1374 9.52866C16.1374 11.4775 16.9908 13.3162 18.4792 14.574C18.8039 14.8521 18.9852 15.246 18.9852 15.6628C18.9852 16.4478 18.3473 17.0867 17.5613 17.0867ZM9.49258 0.949258C6.35149 0.949258 3.79703 3.50371 3.79703 6.64481L3.79703 9.52866C3.79703 11.7575 2.8212 13.8601 1.11918 15.2992C1.01001 15.3922 0.949258 15.5242 0.949258 15.6628C0.949258 15.9248 1.16189 16.1374 1.42389 16.1374L17.5613 16.1374C17.8233 16.1374 18.0359 15.9248 18.0359 15.6628C18.0359 15.5242 17.9752 15.3922 17.8698 15.302C16.1649 13.8601 15.1881 11.7566 15.1881 9.52866L15.1881 6.64481C15.1881 3.50371 12.6337 0.949258 9.49258 0.949258Z" transform="translate(0 2.8477752)" id="Shape" fill="#000000" stroke="#000000" stroke-width="0.2" />
    </g>
  </g>
</svg>