<?xml version="1.0" encoding="utf-8"?>
<svg width="21px" height="21px" viewbox="0 0 19 21" version="1.1" xmlns:xlink="http://www.w3.org/1999/xlink" xmlns="http://www.w3.org/2000/svg">
  <g id="Group">
    <path d="M3.40426 4.08511C1.52793 4.08511 0 2.55818 0 0.680851C0 0.30502 0.30502 0 0.680851 0C1.05668 0 1.3617 0.30502 1.3617 0.680851C1.3617 1.80751 2.27859 2.7234 3.40426 2.7234C4.52992 2.7234 5.44681 1.80751 5.44681 0.680851C5.44681 0.30502 5.75183 0 6.12766 0C6.50349 0 6.80851 0.30502 6.80851 0.680851C6.80851 2.55818 5.28075 4.08511 3.40426 4.08511L3.40426 4.08511Z" transform="translate(5.6737037 16.702127)" id="Path" fill="#000000" fill-rule="evenodd" stroke="none" />
    <path d="M16.5673 16.3404L1.5886 16.3404C0.7126 16.3404 0 15.6278 0 14.7518C0 14.2869 0.20246 13.8467 0.555519 13.5444C0.578291 13.5244 0.602726 13.5063 0.628158 13.4899C1.96077 12.327 2.7234 10.6539 2.7234 8.8873L2.7234 6.35455C2.7234 2.85057 5.5748 0 9.07796 0C9.22324 0 9.38032 0.00265957 9.5256 0.0272606C9.89678 0.0889295 10.1474 0.440326 10.0856 0.810672C10.0239 1.18102 9.66622 1.43168 9.30219 1.36985C9.22956 1.35805 9.14977 1.3617 9.07796 1.3617C6.32563 1.3617 4.08511 3.60123 4.08511 6.35455L4.08511 8.8873C4.08511 11.0806 3.12367 13.1559 1.4498 14.5801C1.43617 14.5911 1.42437 14.6011 1.40974 14.611C1.38531 14.642 1.3617 14.6892 1.3617 14.7518C1.3617 14.8752 1.46526 14.9787 1.5886 14.9787L16.5673 14.9787C16.6908 14.9787 16.7944 14.8752 16.7944 14.7518C16.7944 14.6882 16.7708 14.642 16.7453 14.611C16.7317 14.6011 16.7199 14.5911 16.7063 14.5801C15.0314 13.1549 14.071 11.0806 14.071 8.8873L14.071 7.89794C14.071 7.52211 14.376 7.21709 14.7518 7.21709C15.1277 7.21709 15.4327 7.52211 15.4327 7.89794L15.4327 8.8873C15.4327 10.6549 16.1961 12.3288 17.5306 13.4927C17.555 13.509 17.5786 13.5263 17.6004 13.5454C17.9536 13.8467 18.1561 14.2869 18.1561 14.7518C18.1561 15.6278 17.4435 16.3404 16.5673 16.3404L16.5673 16.3404Z" transform="translate(0 1.7234043)" id="Path" fill="#000000" fill-rule="evenodd" stroke="none" />
    <path d="M3.17736 0C1.4252 0 0 1.4252 0 3.17736C0 4.92936 1.4252 6.35455 3.17736 6.35455C4.92936 6.35455 6.35455 4.92936 6.35455 3.17736C6.35455 1.4252 4.92936 0 3.17736 0L3.17736 0Z" transform="translate(12.25532 0.3617021)" id="Shape" fill="#00A53A" fill-rule="evenodd" stroke="none" />
  </g>
</svg>