<?xml version="1.0" encoding="utf-8"?>
<svg width="298px" height="264px" viewbox="0 0 298 264" version="1.1" xmlns:xlink="http://www.w3.org/1999/xlink" xmlns="http://www.w3.org/2000/svg">
  <g id="undraw_mobile_testing_reah" transform="translate(0.5 0.5)">
    <path d="M122.173 6.60649C110.573 2.84866 98.3094 -0.301619 85.7755 0.0230522C67.3487 0.502023 49.6317 9.09778 40.8936 21.8018C33.5075 32.5674 32.5216 45.2199 29.2974 57.191C25.325 71.9394 17.7848 85.9357 9.73712 99.6233C5.41464 106.975 0.854523 114.481 0.103067 122.559C-0.927776 133.775 5.86102 144.987 16.5644 152.503C27.2679 160.019 41.5102 164.024 55.82 164.959C63.4341 165.454 71.3918 165.072 78.171 162.327C85.3419 159.434 90.5861 154.139 97.7859 151.278C104.459 148.629 112.237 148.289 119.723 148.678C129.417 149.169 139.018 150.815 148.323 153.583C158.757 156.708 168.452 161.205 178.863 164.374C189.274 167.544 200.912 169.338 211.58 166.789C221.596 164.397 229.541 158.501 236.706 152.529C248.251 142.928 258.987 132.392 268.803 121.026C275.274 113.507 281.302 105.567 284.192 96.7816C289.712 79.9823 282.316 60.9617 265.768 49.3924C252.059 39.8034 233.616 35.5698 215.556 32.9981C199.085 30.629 180.029 30.3943 164.89 24.3606C150.452 18.5904 137.318 11.5119 122.173 6.60649Z" transform="translate(11 95)" id="Path" fill="#6C63FF" fill-opacity="0.1" stroke="none" />
    <path d="M7.5 1C11.6421 1 15 0.776142 15 0.5C15 0.223858 11.6421 0 7.5 0C3.35786 0 0 0.223858 0 0.5C0 0.776142 3.35786 1 7.5 1Z" transform="translate(274 157)" id="Oval" fill="#6C63FF" fill-opacity="0.1" stroke="none" />
    <path d="M7.5 1C11.6421 1 15 0.776142 15 0.5C15 0.223858 11.6421 0 7.5 0C3.35786 0 0 0.223858 0 0.5C0 0.776142 3.35786 1 7.5 1Z" transform="translate(245 160)" id="Oval" fill="#6C63FF" fill-opacity="0.1" stroke="none" />
    <path d="M7.5 1C11.6421 1 15 0.776142 15 0.5C15 0.223858 11.6421 0 7.5 0C3.35786 0 0 0.223858 0 0.5C0 0.776142 3.35786 1 7.5 1Z" transform="translate(211 157)" id="Oval" fill="#6C63FF" fill-opacity="0.1" stroke="none" />
    <path d="M5.5 1C8.53757 1 11 0.776142 11 0.5C11 0.223858 8.53757 0 5.5 0C2.46243 0 0 0.223858 0 0.5C0 0.776142 2.46243 1 5.5 1Z" transform="translate(259 169)" id="Oval" fill="#6C63FF" fill-opacity="0.1" stroke="none" />
    <path d="M5.5 1C8.53757 1 11 0.776142 11 0.5C11 0.223858 8.53757 0 5.5 0C2.46243 0 0 0.223858 0 0.5C0 0.776142 2.46243 1 5.5 1Z" transform="translate(229 168)" id="Oval" fill="#6C63FF" fill-opacity="0.1" stroke="none" />
    <path d="M31.7943 56C31.7943 56 42.2694 22.0895 30.1561 8.50741C21.1091 -1.65362 10.8084 -0.428165 6.2041 0.819624C3.79184 1.45365 1.78342 3.10244 0.711265 5.3289C-0.904276 8.75952 -0.607016 14.3283 10.7599 20.8289C29.7942 31.7144 30.98 46.6464 30.98 46.6464L31.7943 56Z" transform="translate(220 105)" id="Path" fill="#6C63FF" stroke="none" />
    <path d="M0 0C0 0 30.9207 9.46528 23.9866 50" transform="translate(228 111)" id="Path" fill="none" fill-rule="evenodd" stroke="#565987" stroke-width="1" />
    <path d="M3 0C3 0 -1.02327 2.79811 0.248522 7" transform="translate(243 113)" id="Path" fill="none" fill-rule="evenodd" stroke="#565987" stroke-width="1" />
    <path d="M0 1C0 1 2.24341 -0.62734 5 0.269885" transform="translate(232 115)" id="Path" fill="none" fill-rule="evenodd" stroke="#565987" stroke-width="1" />
    <path d="M0 0.599276C0 0.599276 3.97299 -0.985909 5 1" transform="translate(244 128)" id="Path" fill="none" fill-rule="evenodd" stroke="#565987" stroke-width="1" />
    <path d="M4 0.0121518C4 0.0121518 0.0703704 -0.184017 0 1" transform="translate(251 134)" id="Path" fill="none" fill-rule="evenodd" stroke="#565987" stroke-width="1" />
    <path d="M18 25C18 25 6.05794 -0.55006 2.79272 0.00904397C1.2214 0.273709 0.517447 1.88816 0.193755 3.50593C-0.208453 5.59993 0.0189212 7.77383 0.844283 9.72554C2.53817 13.8146 7.08558 21.5792 18 25Z" transform="translate(234 136)" id="Path" fill="#6C63FF" stroke="none" />
    <path d="M0 0C0 0 12.571 18.1999 15 19" transform="translate(237 142)" id="Path" fill="none" fill-rule="evenodd" stroke="#565987" stroke-width="1" />
    <path d="M0 0.160562L3 0.160562" transform="translate(237 143.83943)" id="Path" fill="none" fill-rule="evenodd" stroke="#565987" stroke-width="1" />
    <path d="M0 0.0610134L4 0.26011" transform="translate(240 150.83943)" id="Path" fill="none" fill-rule="evenodd" stroke="#565987" stroke-width="1" />
    <path d="M1 0L0 3" transform="translate(242 146)" id="Path" fill="none" fill-rule="evenodd" stroke="#565987" stroke-width="1" />
    <path d="M0.205492 0L0.115589 3" transform="translate(247.83936 152)" id="Path" fill="none" fill-rule="evenodd" stroke="#565987" stroke-width="1" />
    <path d="M0 25C0 25 11.9421 -0.55006 15.2073 0.00904397C16.7786 0.273709 17.4826 1.88816 17.8062 3.50593C18.2085 5.59993 17.9811 7.77383 17.1557 9.72554C15.4618 13.8146 10.9144 21.5792 0 25Z" transform="translate(253 136)" id="Path" fill="#6C63FF" stroke="none" />
    <path d="M15 0C15 0 2.42902 18.1999 0 19" transform="translate(253 142)" id="Path" fill="none" fill-rule="evenodd" stroke="#565987" stroke-width="1" />
    <path d="M3 0.160562L0 0.160562" transform="translate(265 143.83943)" id="Path" fill="none" fill-rule="evenodd" stroke="#565987" stroke-width="1" />
    <path d="M4 0.0610134L0 0.26011" transform="translate(261 150.83943)" id="Path" fill="none" fill-rule="evenodd" stroke="#565987" stroke-width="1" />
    <path d="M0 0L1 3" transform="translate(262 146)" id="Path" fill="none" fill-rule="evenodd" stroke="#565987" stroke-width="1" />
    <path d="M0.113984 0L0.207097 3" transform="translate(256.83936 152)" id="Path" fill="none" fill-rule="evenodd" stroke="#565987" stroke-width="1" />
    <path d="M0.680279 3.01121C0.369048 2.76756 0.141828 2.4401 0.0281889 2.07143C-0.0756373 1.68885 0.114258 1.28897 0.484048 1.11147C0.90368 0.958683 1.35048 1.23543 1.69162 1.51794C2.03276 1.80045 2.41918 2.11467 2.86297 2.05702C2.39942 1.65459 2.19087 1.0495 2.31352 0.462847C2.33207 0.343229 2.38424 0.230652 2.46447 0.137095C2.69693 -0.0992918 3.11958 0.00448774 3.39732 0.188985C4.28187 0.785717 4.52942 1.93306 4.53546 2.96509C4.57863 2.58182 4.57863 2.19524 4.53546 1.81198C4.50042 1.42434 4.66891 1.04533 4.98528 0.800131C5.19493 0.690429 5.43165 0.636657 5.67058 0.644462C6.07004 0.590205 6.47486 0.700203 6.78456 0.947152C7.11966 1.29308 7.03211 1.87252 6.73928 2.25304C6.40991 2.60142 6.02098 2.89385 5.58906 3.11787C5.25829 3.3047 4.97644 3.56102 4.7649 3.86739C4.74116 3.91001 4.72097 3.95435 4.70452 4L2.21088 4C1.65642 3.73766 1.14157 3.40506 0.680279 3.01121L0.680279 3.01121Z" transform="translate(231 164)" id="Path" fill="#6C63FF" stroke="none" />
    <path d="M0.679902 3.00638C0.367484 2.76406 0.140046 2.43649 0.0280042 2.06748C-0.075415 1.68607 0.114517 1.28756 0.483729 1.11129C0.903237 0.958651 1.34991 1.23514 1.69095 1.5145C2.03199 1.79387 2.42131 2.11356 2.86497 2.05308C2.39941 1.65229 2.18954 1.04709 2.31266 0.4604C2.33093 0.341139 2.38431 0.229279 2.46658 0.137832C2.69897 -0.098333 3.11848 0.00246924 3.39614 0.189673C4.28043 0.782967 4.52791 1.91771 4.53394 2.96318C4.57842 2.58034 4.57842 2.19399 4.53394 1.81115C4.49892 1.42387 4.66736 1.04522 4.98363 0.800247C5.19423 0.693459 5.43035 0.640851 5.66873 0.647604C6.06598 0.587938 6.47106 0.692695 6.78239 0.93561C7.12041 1.27834 7.03288 1.85723 6.73712 2.2374C6.40999 2.59228 6.02095 2.89045 5.58724 3.1187C5.25656 3.30535 4.97479 3.56143 4.76332 3.86752C4.7385 3.90959 4.71827 3.95398 4.70295 4L2.21005 4C1.6559 3.73531 1.1413 3.40114 0.679902 3.00638L0.679902 3.00638Z" transform="translate(278 154)" id="Path" fill="#6C63FF" stroke="none" />
    <path d="M0.678815 3.01121C0.368254 2.76756 0.141523 2.4401 0.0281283 2.07143C-0.0754745 1.68885 0.114012 1.28897 0.483006 1.11147C0.901735 0.958683 1.34758 1.23543 1.68798 1.51794C2.02839 1.80045 2.41398 2.11467 2.85681 2.05702C2.39368 1.65488 2.1845 1.04998 2.30553 0.462847C2.32645 0.343378 2.37938 0.231141 2.45917 0.137095C2.69112 -0.0992918 3.11286 0.00448774 3.39001 0.188985C4.27265 0.785717 4.51967 1.93306 4.5257 2.96509C4.57379 2.58234 4.57884 2.19576 4.54076 1.81198C4.5058 1.42434 4.67393 1.04533 4.98961 0.800131C5.19881 0.690429 5.43502 0.636657 5.67344 0.644462C6.07204 0.590205 6.47599 0.700203 6.78503 0.947152C7.11941 1.29308 7.03205 1.87252 6.73984 2.25304C6.41118 2.60142 6.02308 2.89385 5.5921 3.11787C5.26204 3.3047 4.98079 3.56102 4.7697 3.86739C4.74602 3.91001 4.72587 3.95435 4.70946 4L2.22118 4C1.66263 3.73878 1.14376 3.40614 0.678815 3.01121L0.678815 3.01121Z" transform="translate(261 164)" id="Path" fill="#6C63FF" stroke="none" />
    <path d="M2.2471 0C2.2471 0 1.24519 1.28317 2.70927 3.21901C4.17335 5.15485 5.37565 6.79287 4.89085 8C4.89085 8 2.68341 4.40396 0.886438 4.35327C-0.910539 4.30257 0.269131 2.16396 2.2471 0Z" transform="translate(216 146)" id="Path" fill="#6C63FF" stroke="none" />
    <path d="M2.27321 0C2.1836 0.123577 2.1131 0.259189 2.06396 0.402536C0.291876 2.42155 -0.653019 4.30745 1.05041 4.35499C2.6394 4.39937 4.54554 7.15055 5 7.84152C5 7.8954 4.9673 7.94929 4.94769 8C4.94769 8 2.7146 4.40254 0.896739 4.35182C-0.92112 4.30111 0.272258 2.16482 2.27321 0Z" transform="translate(216 146)" id="Path" fill="#000000" fill-opacity="0.1" stroke="none" />
    <path d="M0.0465568 0.261079C0.0465568 0.670636 0.0979297 1 0.162146 1C0.226362 1 0.274524 0.670636 0.274524 0.261079C0.274524 -0.148478 0.210308 0.0462761 0.149303 0.0462761C0.0882973 0.0462761 0.0465568 -0.145614 0.0465568 0.261079Z" transform="translate(215.83936 147)" id="Path" fill="#FFD037" stroke="none" />
    <path d="M0.237623 0.500169C0.627224 0.856316 0.970073 1.06794 0.998124 0.980194C1.02618 0.892447 0.736313 0.531139 0.346711 0.180153C-0.0428899 -0.170832 0.109834 0.0820838 0.0786657 0.180153C0.0474976 0.278223 -0.151978 0.149184 0.237623 0.500169Z" transform="translate(215 148)" id="Path" fill="#FFD037" stroke="none" />
    <path d="M2.75202 0C2.75202 0 3.75433 1.28317 2.28967 3.21901C0.825013 5.15485 -0.377752 6.79287 0.110467 8C0.110467 8 2.31554 4.40396 4.11322 4.35327C5.9109 4.30257 4.73076 2.16396 2.75202 0Z" transform="translate(221 146)" id="Path" fill="#6C63FF" stroke="none" />
    <path d="M2.72679 0C2.8164 0.123577 2.8869 0.259189 2.93604 0.402536C4.70812 2.42155 5.65302 4.30745 3.94959 4.35499C2.3606 4.39937 0.454465 7.15055 0 7.84152C0.0150797 7.89543 0.0336437 7.94836 0.055582 8C0.055582 8 2.2854 4.40254 4.10326 4.35182C5.92112 4.30111 4.72774 2.16482 2.72679 0Z" transform="translate(221 146)" id="Path" fill="#000000" fill-opacity="0.1" stroke="none" />
    <path d="M0.274524 0.261079C0.274524 0.670636 0.223151 1 0.158935 1C0.0947189 1 0.0465568 0.670636 0.0465568 0.261079C0.0465568 -0.148478 0.110773 0.0462761 0.171778 0.0462761C0.232784 0.0462761 0.274524 -0.145614 0.274524 0.261079Z" transform="translate(225.83936 147)" id="Path" fill="#FFD037" stroke="none" />
    <path d="M0.762377 0.500169C0.372776 0.856316 0.0299268 1.06794 0.00187551 0.980194C-0.0261758 0.892447 0.263687 0.531139 0.653289 0.180153C1.04289 -0.170832 0.890166 0.0820838 0.921334 0.180153C0.952502 0.278223 1.15198 0.149184 0.762377 0.500169Z" transform="translate(226 148)" id="Path" fill="#FFD037" stroke="none" />
    <path d="M11 1.4293C11 1.4293 8.0492 1.34983 7.15884 0.781353C6.26849 0.212871 2.61495 -0.465639 2.38298 0.445154C2.15101 1.35595 -2.05175 4.97467 1.27771 4.99912C4.60717 5.02357 9.02825 4.53455 9.9152 4.04859C10.8021 3.56263 11 1.4293 11 1.4293Z" transform="translate(215 153)" id="Path" fill="#A8A8A8" stroke="none" />
    <path d="M1.2334 3.64637C4.56975 3.67376 8.98863 3.12595 9.87991 2.58156C10.5629 2.1707 10.8258 0.684765 10.9044 0L11 0C11 0 10.8156 2.39668 9.92431 2.93422C9.03302 3.47176 4.61756 4.02642 1.27779 3.99903C0.314794 3.99903 -0.0164508 3.65664 0.000623626 3.13965C0.147464 3.45121 0.516273 3.64295 1.2334 3.64637Z" transform="translate(215 154)" id="Path" fill="#000000" fill-opacity="0.2" stroke="none" />
    <path d="M7 14C10.866 14 14 10.866 14 7C14 3.13401 10.866 0 7 0C3.13401 0 0 3.13401 0 7C0 10.866 3.13401 14 7 14Z" transform="translate(34 12)" id="Oval" fill="#6C63FF" fill-opacity="0.1" stroke="none" />
    <path d="M7 14C10.866 14 14 10.866 14 7C14 3.13401 10.866 0 7 0C3.13401 0 0 3.13401 0 7C0 10.866 3.13401 14 7 14Z" transform="translate(155 1)" id="Oval" fill="#6C63FF" fill-opacity="0.1" stroke="none" />
    <path d="M7 14C10.866 14 14 10.866 14 7C14 3.13401 10.866 0 7 0C3.13401 0 0 3.13401 0 7C0 10.866 3.13401 14 7 14Z" transform="translate(265 28)" id="Oval" fill="#6C63FF" fill-opacity="0.1" stroke="none" />
    <path d="M11.5 23C17.8513 23 23 17.8513 23 11.5C23 5.14873 17.8513 0 11.5 0C5.14873 0 0 5.14873 0 11.5C0 17.8513 5.14873 23 11.5 23Z" transform="translate(0 71)" id="Oval" fill="#6C63FF" fill-opacity="0.1" stroke="none" />
    <path d="M11.5 23C17.8513 23 23 17.8513 23 11.5C23 5.14873 17.8513 0 11.5 0C5.14873 0 0 5.14873 0 11.5C0 17.8513 5.14873 23 11.5 23Z" transform="translate(11 130)" id="Oval" fill="#6C63FF" fill-opacity="0.1" stroke="none" />
    <path d="M11.5 23C17.8513 23 23 17.8513 23 11.5C23 5.14873 17.8513 0 11.5 0C5.14873 0 0 5.14873 0 11.5C0 17.8513 5.14873 23 11.5 23Z" transform="translate(229 78)" id="Oval" fill="#6C63FF" fill-opacity="0.1" stroke="none" />
    <path d="M10.4129 1.54942C9.99169 1.58795 9.56392 1.56868 9.14602 1.6329C8.44444 1.76916 7.77495 2.03157 7.17171 2.40674C4.17734 4.07001 1.35079 6.3562 0.110261 9.49008C0.00819771 9.68272 -0.0242649 9.90334 0.0181264 10.1162C0.091671 10.2917 0.212124 10.4447 0.366921 10.5593L1.53176 11.5933C1.67901 11.7424 1.85444 11.8623 2.04838 11.9465C2.36268 12.0266 2.69402 12.0166 3.00263 11.9176C6.2043 11.2015 9.6067 10.3763 11.8541 8.03874C12.9202 6.93096 13.9041 5.40576 15.4737 5.36402C16.1318 5.36402 16.7471 5.61126 17.3953 5.68511C18.0436 5.75897 18.8234 5.48925 18.9781 4.87275C19.0283 4.56614 18.9919 4.25198 18.8728 3.96405L17.9054 0.820535C17.6421 -0.0399979 14.9867 -0.0849511 14.1015 0.0691742C12.7524 0.297151 11.8442 1.42098 10.4129 1.54942Z" transform="translate(134 111)" id="Path" fill="#65617D" stroke="none" />
    <path d="M9.92838 8.53104C9.88443 9.60342 9.9692 10.6886 9.79653 11.7514C9.64466 12.5894 9.38166 13.4025 9.01479 14.1682C8.45012 15.3996 7.73262 16.5518 6.87992 17.5967C6.08563 18.557 5.13436 19.4597 3.95704 19.8375C2.77973 20.2152 1.33241 19.9431 0.597768 18.9315C-0.00187812 18.1088 -0.0301337 17.0109 0.0138194 15.9833C0.120563 13.4576 0.509862 10.8967 1.62125 8.63667C2.09845 7.67633 2.70438 6.76081 3.191 5.79086C4.2082 3.77734 4.78901 1.38929 6.544 0C7.64502 0.518721 8.82246 0.848603 10.0288 0.976347C10.4966 1.02757 11.8341 1.05958 11.991 1.67099C12.0978 2.08394 11.2187 3.23955 11.0492 3.6461C10.3791 5.18855 9.99891 6.84556 9.92838 8.53104Z" transform="translate(145 122)" id="Path" fill="#65617D" stroke="none" />
    <path d="M1.02348 16.0728C1.40772 17.0505 1.89442 18.0091 1.98408 19.0508C2.04812 19.6899 1.98408 20.3289 1.98408 20.968C2.03799 21.8436 2.18395 22.7111 2.41955 23.5562L4.20307 30.8415C4.46884 31.9311 4.73461 33.0494 4.59692 34.1614C4.50406 34.9027 4.2351 35.6217 4.2383 36.3662C4.27235 36.9307 4.36245 37.4905 4.50727 38.0373C4.84494 39.7266 4.75246 41.4734 4.2383 43.1178C4.18562 43.2417 4.16684 43.3773 4.18386 43.5109C4.22869 43.7186 4.43042 43.8464 4.61293 43.9454C6.53308 44.9938 8.62624 45.6897 10.7928 46C12.7483 41.3578 14.1144 36.4898 14.8594 31.5093C15.3141 28.4929 15.535 25.4382 16.1178 22.4442C16.1311 22.2713 16.2047 22.1084 16.3259 21.9841C16.5436 21.802 16.8734 21.917 17.1296 22.0384C20.4019 23.6087 23.55 25.4246 26.5467 27.4704C28.6801 24.7137 29.4766 21.154 28.7209 17.7535C28.3445 16.3053 27.8075 14.9035 27.1199 13.574C26.3873 11.9569 25.4743 10.4273 24.3982 9.01435C22.0223 6.04272 18.5385 4.1447 14.9522 2.857C12.7717 2.07095 10.5271 1.48941 8.28564 0.89508C7.03045 0.559573 4.92673 -0.533221 3.70676 0.31673C2.42596 1.20183 1.57422 3.397 1.04909 4.79016C0.400871 6.51812 0.0480128 8.34244 0.00523512 10.187C-0.0474952 12.1967 0.298556 14.197 1.02348 16.0728Z" transform="translate(142 67)" id="Path" fill="#3F3D56" stroke="none" />
    <path d="M21 6.38945C20.3096 7.13272 20.891 8.31933 20.7588 9.32339C20.6724 9.77676 20.5082 10.2122 20.2732 10.6111L17.1118 16.7365C16.5834 17.6557 16.1876 18.6432 15.9358 19.6704C15.5031 21.8806 16.3917 24.3647 15.2553 26.3174C14.8886 26.9465 14.3204 27.4877 14.1685 28.1984C14.0562 28.7167 14.1685 29.2578 14.1123 29.7827C14.0363 30.3988 13.7027 30.953 13.5177 31.5463C13.3734 32.1164 13.2707 32.696 13.2105 33.2806C12.8097 35.7735 11.4868 38.0314 9.49741 39.6179C8.35747 40.5712 6.89374 41.0628 5.40113 40.9936C3.9278 40.8697 2.46437 39.8819 2.16376 38.4541C2.06135 37.9683 2.08117 37.4272 1.77395 37.0328C1.3379 36.4688 0.419538 36.446 0 35.869L1.6253 33.2284C2.13072 32.4102 2.64606 31.5561 2.72865 30.6009C2.82775 29.4306 2.25625 28.2636 2.46107 27.1063C2.63615 26.112 3.3596 25.284 3.57763 24.2995C3.84851 23.077 3.30675 21.8415 3.01274 20.6223C2.29259 17.6199 3.09863 14.4904 3.90137 11.4945C4.96838 7.53043 6.06182 3.50442 8.22227 0C12.5333 2.29173 16.4974 4.49218 21 6.38945Z" transform="translate(148 86)" id="Path" fill="#3F3D56" stroke="none" />
    <path d="M24.7684 2.45216C25.0208 3.13561 24.8849 3.8932 24.8363 4.61856C24.723 6.23046 25.0661 7.84236 24.9884 9.47682C24.9108 11.1113 24.4059 12.6716 24.0563 14.2609C23.0628 18.7968 23.3023 23.5229 22.4025 28.0782C21.2924 33.7198 18.4541 38.9746 17.8942 44.7001C17.7162 46.5183 17.7388 48.4655 16.7388 50C10.7961 47.3943 5.17858 44.1075 0 40.2061C1.13922 31.7887 2.2655 23.3295 2.11338 14.838C2.03966 13.8143 2.11157 12.7854 2.32699 11.7818C2.597 10.9388 2.98486 10.1379 3.47916 9.40268C4.73165 7.37491 6.11037 5.42773 7.48585 3.48378C8.36616 2.23939 9.31767 0.933751 10.7223 0.350243C12.1269 -0.233265 13.7904 0.0278629 15.3212 0.30511C17.1638 0.640385 19.0043 0.97566 20.8426 1.31094C21.9915 1.52048 24.2764 1.12073 24.7684 2.45216Z" transform="translate(144 29)" id="Path" fill="#6C63FF" stroke="none" />
    <path d="M2.59254 10.9763C1.79676 10.2476 0.928865 9.58807 0 9.00612C1.21099 7.6573 0.972203 5.70588 1.26898 3.97926C1.51209 2.85772 1.88134 1.76221 2.37081 0.710239C2.49362 0.413623 2.66759 0.0857839 3.0053 0.00772705C3.21265 -0.0157551 3.42304 0.0145363 3.6125 0.0951507C4.63588 0.426112 6.77131 0.407378 7.56613 1.0131C8.52469 1.74996 7.648 3.29236 7.28641 4.21343C7.03057 4.83164 3.10082 11.4446 2.59254 10.9763Z" transform="translate(122 52)" id="Path" fill="#BE6F72" stroke="none" />
    <path d="M17.0832 12.8406C17.5555 13.6073 17.8641 14.464 17.9894 15.3564C18.0647 16.2495 17.7386 17.2276 16.9797 17.6993C16.2209 18.171 15.1328 18.0138 14.2297 17.7308C10.3555 16.4671 7.20191 13.6075 5.55929 9.86869C5.27394 9.20828 5.02621 8.50698 4.52136 7.99752C4.14635 7.66692 3.72996 7.38677 3.28273 7.16414C2.05038 6.46599 0.861925 5.5477 0.291217 4.24574C-0.279491 2.94378 -0.0223589 1.20469 1.15982 0.431061C1.90409 -0.000166766 2.78989 -0.113478 3.61826 0.116579C4.43561 0.349382 5.21816 0.691018 5.94499 1.13236C7.16167 1.79592 8.64802 2.36828 9.7079 3.25197C10.6486 4.02874 11.4921 5.07912 12.2949 5.99426C13.2143 7.04717 14.0758 8.14949 14.8756 9.29633C15.1328 9.63283 17.2996 12.5355 17.0832 12.8406Z" transform="translate(111 110)" id="Path" fill="#65617D" stroke="none" />
    <path d="M9.77309 9.71641C9.65227 11.4074 9.33653 13.0808 8.8315 14.7069C8.54369 15.621 8.1635 16.5721 7.36403 17.1534C6.68776 17.5681 5.92145 17.8334 5.12197 17.9297C4.84309 18.0013 4.55175 18.0184 4.26565 17.9801C3.77531 17.8827 3.4271 17.4828 3.12508 17.103C1.93831 15.6176 0.783525 14.0482 0.282526 12.2469C-0.428112 9.63576 0.282526 6.83637 1.51548 4.39657C1.95867 3.41301 2.60495 2.52299 3.41644 1.77865C4.41907 0.999347 5.62372 0.487679 6.90567 0.296625C8.21679 0.0479405 9.82639 -0.483036 9.92233 1.02588C10.0627 3.92285 10.0128 6.82527 9.77309 9.71641L9.77309 9.71641Z" transform="translate(94 106)" id="Path" fill="#65617D" stroke="none" />
    <path d="M35.432 0C37.658 1.15256 40.1292 2.61827 40.5938 5.08158C40.8809 6.58604 40.3293 8.12601 40.4196 9.6563C40.5002 11.0026 41.0648 12.3036 40.9938 13.6467C40.9185 14.2813 40.8108 14.9117 40.6712 15.5353C40.4809 16.7266 40.5938 17.9405 40.5454 19.1447C40.439 21.8566 39.5324 24.4652 39.0937 27.1416C38.7831 29.0526 38.7105 30.9948 38.8775 32.9237C38.984 34.1699 39.2001 35.4097 39.2001 36.6623C39.2002 37.5644 39.1257 38.465 38.9775 39.3548C38.5451 42.1505 37.6741 44.8603 36.3966 47.384C34.8449 50.4413 35.0643 54.3865 35.2288 57.8119C35.3007 58.2839 35.2404 58.7667 35.0546 59.2066C34.6481 59.9459 33.6351 60.0524 32.7963 59.9814C29.6857 59.697 26.801 58.2351 24.731 55.8942C24.4291 55.5999 24.2242 55.2203 24.1439 54.8062C24.0729 54.1153 24.6278 53.5471 25.0278 52.9757C26.3892 51.0386 26.044 48.4139 26.2053 46.0345C26.3231 44.3034 26.7367 42.6054 27.428 41.0142C27.8281 40.0941 28.3281 39.1869 28.4185 38.1861C28.5023 37.2531 28.2184 36.3298 27.9378 35.4387L26.9699 32.3652C25.4698 27.5903 23.96 22.7864 21.6888 18.3279C20.1987 19.2981 19.1322 20.7981 18.7046 22.5249C17.8594 25.5661 19.0627 28.9624 17.911 31.8874C17.7203 32.293 17.5618 32.7129 17.4368 33.1433C17.369 33.5148 17.343 33.8927 17.3593 34.27C17.3892 37.4169 17.5809 40.5602 17.9336 43.6874C17.951 44.161 18.0839 44.6232 18.3207 45.0337C18.5111 45.3081 18.7885 45.5115 18.9918 45.773C19.5563 46.5058 19.4499 47.5325 19.3144 48.4461L18.6691 52.7658C18.6577 52.9848 18.585 53.1962 18.4595 53.376C18.3073 53.5234 18.1176 53.6262 17.911 53.673C15.861 54.31 13.7 54.508 11.5685 54.2541C10.9394 54.1799 10.3684 53.7569 9.84251 53.4018C9.78766 52.7561 10.591 52.3267 10.62 51.6843C10.5888 51.3036 10.412 50.9497 10.1264 50.6964C8.92629 49.3404 7.4939 47.9005 7.5068 46.0894C7.5068 45.6148 7.61972 45.1402 7.60358 44.6656C7.56165 43.4485 6.72286 42.4057 6.42928 41.2338C6.06796 39.7842 6.54865 38.2797 6.73253 36.7979C6.98417 34.8027 6.68737 32.7817 6.40992 30.7897L5.32918 23.4805C5.20355 22.346 4.97901 21.2247 4.65814 20.1294C4.2513 19.0509 3.77388 18.0005 3.22898 16.9849C2.19662 14.8864 1.34815 12.704 0.502912 10.528C0.234311 9.93676 0.065345 9.30514 0.00286477 8.65871C-0.0455269 7.55135 0.525495 6.50533 1.23524 5.65302C2.56458 4.06915 4.37894 2.9684 6.39702 2.52142C6.73429 2.42728 7.08882 2.41291 7.4326 2.47945C7.72171 2.57545 7.99309 2.71833 8.2359 2.90238C13.2914 6.21139 19.6036 6.96051 25.2924 4.92662C25.615 5.17198 26.2118 5.06544 26.5828 4.8911C27.6184 4.41652 28.4636 3.62555 29.3734 2.95403C31.0671 1.66911 33.3512 0.448755 35.432 0Z" transform="translate(86 56)" id="Path" fill="#3F3D56" stroke="none" />
    <path d="M0.123173 4.59282C0.294277 5.10045 0.551798 5.57275 0.883715 5.98769C2.05031 7.55154 3.67774 8.80063 4.42861 10.6262C4.58652 11.0172 4.70254 11.428 4.84756 11.8256C5.28859 13.0256 6.0076 14.0969 6.94227 14.9467C7.65523 15.5551 8.42991 16.0828 9.2529 16.5205C10.6773 17.319 12.2177 18.0412 13.8355 17.9982C14.1608 17.991 14.4846 17.951 14.8023 17.8789C15.3058 17.7716 15.7912 17.5885 16.2428 17.3355C17.2837 16.7458 18.1764 15.5928 17.9701 14.3901C17.9285 14.1608 17.8581 13.938 17.7607 13.7274C17.5897 13.3923 17.3925 13.072 17.1709 12.7699C16.6263 11.9946 16.0656 11.1994 15.2696 10.7024C14.3737 10.1392 13.2457 10 12.4401 9.30424C12.1222 9.00846 11.8476 8.66698 11.6248 8.29039C10.8945 7.13646 10.3504 5.86884 10.0134 4.5365C9.76852 3.54253 9.60417 2.45247 8.89841 1.72356C8.19265 0.99465 7.22264 0.828988 6.28163 0.663326C5.96363 0.595902 5.63952 0.563691 5.31484 0.567243C4.854 0.583809 4.37705 0.719651 3.94522 0.497665C3.51339 0.275678 3.36837 -0.0390793 2.8463 0.00399273C2.43076 0.0616024 2.03905 0.237145 1.71516 0.510918C0.490554 1.44194 -0.32155 3.09855 0.123173 4.59282Z" transform="translate(55 133)" id="Path" fill="#3F3D56" stroke="none" />
    <path d="M9.02494 4.55497C9.23086 5.70554 9.54764 6.93077 10.3776 7.68085C10.9067 8.16958 11.6448 8.47505 11.9077 9.16403C12.1707 9.85301 11.8317 10.7185 11.3945 11.3498C10.8363 12.148 10.1445 12.8282 9.3544 13.3556C8.68281 13.8002 7.88134 14.1396 7.11154 13.9428C6.47797 13.7833 5.97744 13.2945 5.50543 12.8228C4.42201 11.7469 3.31325 10.6302 2.70502 9.18779C2.07144 7.66727 2.03976 5.90578 1.34916 4.40903C0.946841 3.53677 0.325936 2.77311 0.0820091 1.83637C-0.0273364 1.49776 -0.0273364 1.12962 0.0820091 0.791014C0.32292 0.296887 0.803558 -0.00919025 1.32382 0.000210519C1.83389 0.0184534 2.33691 0.133362 2.80956 0.339611C4.23974 0.885822 5.70367 1.32471 7.19074 1.65309C7.78313 1.77188 8.1411 1.76849 8.45789 2.3828C8.75056 3.07111 8.94184 3.80387 9.02494 4.55497Z" transform="translate(58 135)" id="Path" fill="#FBBEBE" stroke="none" />
    <path d="M0.526767 1.8218C0.304864 2.18186 0.147573 2.58231 0.0628119 3.00298C-0.00782895 3.33008 -0.0190039 3.66846 0.0298861 4C0.497589 3.89714 0.948434 3.72167 1.36787 3.47926C2.33469 2.91408 3.16382 1.8091 2.97226 0.656497C2.93359 0.436773 2.86819 0.223307 2.77769 0.0214533C2.48698 -0.0476431 2.18358 0.0527823 1.98149 0.284996C1.42411 0.713795 0.933287 1.23231 0.526767 1.8218L0.526767 1.8218Z" transform="translate(70 147)" id="Path" fill="#FBBEBE" stroke="none" />
    <path d="M0.155021 2.0842C0.00779142 2.39201 -0.0360125 2.73702 0.0298132 3.07036C0.185477 3.72781 0.879197 4.10584 1.50524 4.40498L7.45769 7.23199C7.87062 7.41757 8.27279 7.62498 8.66239 7.85327C9.67759 8.45812 10.4762 9.3128 11.3425 10.0952C12.2088 10.8775 13.1733 11.6106 14.3204 11.8867C15.4656 12.1305 16.6625 11.9782 17.7044 11.4561C18.2659 11.1843 18.7872 10.8405 19.2543 10.4337C19.6586 10.0892 20.0322 9.71201 20.371 9.30623C20.6621 9.00771 20.8705 8.64242 20.9768 8.24445C21.0884 7.64289 20.7805 7.05119 20.4218 6.55482C20.2152 6.26866 19.9891 5.9963 19.745 5.73959C17.4879 3.31691 13.7891 2.06119 10.6082 1.5681C9.34257 1.37087 8.14125 0.910659 6.92302 0.535915C5.70478 0.161172 4.41547 -0.121529 3.14986 0.0526935C1.88424 0.226916 0.638933 0.933669 0.155021 2.0842Z" transform="translate(59 123)" id="Path" fill="#3F3D56" stroke="none" />
    <path d="M0.155021 2.0842C0.00779142 2.39201 -0.0360125 2.73702 0.0298132 3.07036C0.185477 3.72781 0.879197 4.10584 1.50524 4.40498L7.45769 7.23199C7.87062 7.41757 8.27279 7.62498 8.66239 7.85327C9.67759 8.45812 10.4762 9.3128 11.3425 10.0952C12.2088 10.8775 13.1733 11.6106 14.3204 11.8867C15.4656 12.1305 16.6625 11.9782 17.7044 11.4561C18.2659 11.1843 18.7872 10.8405 19.2543 10.4337C19.6586 10.0892 20.0322 9.71201 20.371 9.30623C20.6621 9.00771 20.8705 8.64242 20.9768 8.24445C21.0884 7.64289 20.7805 7.05119 20.4218 6.55482C20.2152 6.26866 19.9891 5.9963 19.745 5.73959C17.4879 3.31691 13.7891 2.06119 10.6082 1.5681C9.34257 1.37087 8.14125 0.910659 6.92302 0.535915C5.70478 0.161172 4.41547 -0.121529 3.14986 0.0526935C1.88424 0.226916 0.638933 0.933669 0.155021 2.0842Z" transform="translate(59 123)" id="Path" fill="#000000" fill-opacity="0.1" stroke="none" />
    <path d="M3.83383 0.828635C4.21369 1.25096 4.52626 1.72816 4.76074 2.24378C4.9717 2.58153 5.04688 2.98536 4.9714 3.37535C4.86096 3.63786 4.6839 3.8677 4.45739 4.04261L3.96584 4.49301C3.81738 4.64576 3.6447 4.77348 3.45464 4.87112C3.18575 4.97093 2.89863 5.01356 2.61199 4.99624C1.95192 4.99624 1.24129 4.99624 0.704805 4.60422C-0.0282962 4.08153 -0.160311 3.00001 0.173939 2.16872C0.508188 1.33742 1.20758 0.709084 1.9126 0.147473C2.4856 -0.311269 3.43217 0.408817 3.83383 0.828635Z" transform="translate(69 126)" id="Path" fill="#FBBEBE" stroke="none" />
    <path d="M0.0697676 1.32773C-0.0675221 1.7925 -0.00131347 2.27349 0.260629 2.71429C0.44725 3.13445 0.629629 3.55462 0.812008 3.98319C0.812008 3.98319 0.812008 3.98319 0.812008 4C1.31878 3.7064 1.787 3.38499 2.21166 3.03922C2.57644 2.78485 2.83764 2.47357 2.97087 2.13445C3.11083 1.62185 2.72487 1.11765 2.27528 0.694678C2.0164 0.450835 1.733 0.218753 1.42701 0C1.22766 0.170868 1.05377 0.338936 0.909559 0.448179C0.538422 0.698751 0.252167 0.99856 0.0697676 1.32773Z" transform="translate(77 128)" id="Path" fill="#FBBEBE" stroke="none" />
    <path d="M0.58559 20.9307C-0.0625857 23.7404 0.212967 26.6793 0.557408 29.5472C0.820436 31.7303 1.11478 33.991 0.48852 36.0934C0.256805 36.8782 -0.109555 37.6759 0.0313527 38.4865C0.297512 40.0141 2.08234 40.6019 3.56031 40.8893C3.98669 41.0012 4.42977 41.0286 4.86605 40.9701C5.30372 40.8471 5.70991 40.6267 6.05594 40.3242C8.15677 38.749 9.75228 36.5613 10.637 34.0427C11.1975 32.3569 11.376 30.5645 11.5482 28.7914C11.8363 25.8073 12.1275 22.7877 11.7048 19.823C11.5795 18.951 11.3916 18.0887 11.3134 17.2103C11.2148 15.6824 11.2968 14.1479 11.5576 12.6405C12.0968 8.90615 12.9133 5.22007 14 1.61478C11.0183 2.02311 7.9874 1.45844 5.33261 0C5.84614 0.2842 5.25746 4.81526 5.19484 5.45148C5.00485 7.3482 4.67299 9.22694 4.20222 11.0709C3.32859 14.5168 1.3778 17.5074 0.58559 20.9307Z" transform="translate(61 84)" id="Path" fill="#3F3D56" stroke="none" />
    <path d="M0.58559 20.9307C-0.0625857 23.7404 0.212967 26.6793 0.557408 29.5472C0.820436 31.7303 1.11478 33.991 0.48852 36.0934C0.256805 36.8782 -0.109555 37.6759 0.0313527 38.4865C0.297512 40.0141 2.08234 40.6019 3.56031 40.8893C3.98669 41.0012 4.42977 41.0286 4.86605 40.9701C5.30372 40.8471 5.70991 40.6267 6.05594 40.3242C8.15677 38.749 9.75228 36.5613 10.637 34.0427C11.1975 32.3569 11.376 30.5645 11.5482 28.7914C11.8363 25.8073 12.1275 22.7877 11.7048 19.823C11.5795 18.951 11.3916 18.0887 11.3134 17.2103C11.2148 15.6824 11.2968 14.1479 11.5576 12.6405C12.0968 8.90615 12.9133 5.22007 14 1.61478C11.0183 2.02311 7.9874 1.45844 5.33261 0C5.84614 0.2842 5.25746 4.81526 5.19484 5.45148C5.00485 7.3482 4.67299 9.22694 4.20222 11.0709C3.32859 14.5168 1.3778 17.5074 0.58559 20.9307Z" transform="translate(61 84)" id="Path" fill="#000000" fill-opacity="0.1" stroke="none" />
    <path d="M21.0577 8.69833C22.3811 12.4884 22.09 16.6283 21.5176 20.5983C20.9452 24.5682 20.1015 28.5381 20.3497 32.5374C20.4456 34.1071 20.7037 35.7192 20.2405 37.2202C19.9831 37.9525 19.6423 38.6535 19.2248 39.3098L8.66714 57.3543C8.1203 58.3056 7.1251 58.9204 6.02029 58.9893C4.89207 59.0678 3.7837 58.7015 2.73158 58.2928C2.03248 58.0638 1.38279 57.7078 0.815917 57.2431C0.245549 56.7735 -0.0560232 56.0577 0.00862814 55.3268C0.481753 52.194 1.19309 48.9861 1.71916 45.8435C2.07695 43.7112 2.85726 41.6698 4.0153 39.8363C4.83251 38.5283 5.83832 37.3543 6.54304 35.9939C8.56788 32.096 7.86646 27.3412 6.30482 23.2405C4.74318 19.1398 2.41726 15.3334 1.17655 11.1411C0.808729 9.97452 0.59847 8.76501 0.551232 7.54398C0.520347 4.99739 1.51547 2.54322 3.31719 0.72254C3.57754 0.431119 3.9057 0.20666 4.27337 0.0685188C4.70317 -0.0300289 5.15095 -0.022166 5.57694 0.0914096C11.4563 1.2196 19.1156 3.09991 21.0577 8.69833Z" transform="translate(57 80)" id="Path" fill="#3F3D56" stroke="none" />
    <path d="M21.9612 4.45975C22.1478 5.89557 21.6394 7.34777 20.9155 8.59017C18.1774 13.2451 11.8648 15.3037 6.98392 13.1369C4.97301 12.242 3.27098 10.7668 1.60434 9.31136C1.0445 8.81964 0.462141 8.30498 0.179005 7.61002C-0.319701 6.38073 0.281963 4.91541 1.26329 4.03688C2.24461 3.15834 3.5155 2.72563 4.77996 2.33554C8.953 1.01118 20.967 -3.16513 21.9612 4.45975Z" transform="translate(149 30)" id="Path" fill="#FBBEBE" stroke="none" />
    <path d="M8.89306 0.0306937C12.62 3.10101 18.0447 6.02589 22.2671 8.30115C23.703 9.07681 25.2967 9.94943 25.8142 11.5331C26.0919 12.3798 26.0004 13.3009 25.9089 14.1929C25.7322 15.9091 25.5491 17.6511 24.9022 19.2444C24.1417 21.1092 22.7973 22.6476 21.718 24.3411C19.8246 27.308 18.7138 30.8049 16.3753 33.426C17.9532 38.7942 19.6794 44.156 20.2411 49.7278C20.2722 49.881 20.2556 50.0404 20.1938 50.1835C20.1292 50.2776 20.0452 50.3559 19.9477 50.4129L16.0219 53.0502C15.5938 53.306 15.2108 53.6338 14.889 54.0198C14.1947 54.9441 14.2862 56.2433 13.8571 57.3195C13.3816 58.381 12.5041 59.198 11.4271 59.5819C10.3544 59.9605 9.21156 60.0843 8.08519 59.9438C6.65129 59.8514 5.27052 59.3535 4.09631 58.5056C3.09594 57.73 2.38274 56.6408 1.69479 55.5678C1.18508 54.836 0.761388 54.0452 0.432486 53.2118C0.0127709 52.0224 -0.0124751 50.7264 0.00330368 49.4595C0.0137245 47.0487 0.238714 44.6439 0.675479 42.275C0.858513 41.3345 1.08573 40.4069 1.23089 39.46C1.52122 37.5532 1.46442 35.6076 1.67901 33.691C1.9722 31.5354 2.44196 29.4088 3.08332 27.3339C3.43426 26.0486 3.70826 24.7427 3.90381 23.4233C4.27304 21.1027 5.00833 18.863 5.74362 16.6362L7.00592 12.8194C7.27416 11.9952 7.54555 11.1743 7.86428 10.3696C8.45756 8.86674 9.22126 7.40268 9.42322 5.79965C9.64728 4.05119 7.80432 1.9763 8.42601 0.334493C8.4765 0.153506 8.75105 -0.0856551 8.89306 0.0306937Z" transform="translate(159 29)" id="Path" fill="#3F3D56" stroke="none" />
    <path d="M22.5338 0C23.4138 0.398119 23.8999 1.34724 24.2144 2.2645C24.9234 4.33174 25.094 6.54626 24.71 8.69811C24.5859 9.23907 24.501 9.78831 24.4559 10.3415C24.4625 10.9828 24.5252 11.6223 24.6433 12.2525C24.961 14.689 24.6433 17.1637 24.7482 19.6225C24.8562 22.387 25.4566 25.3077 24.3002 27.8206C23.5314 29.4895 22.0764 30.7316 20.6404 31.8591C15.2943 36.0363 9.39566 39.4491 3.11337 42C4.1967 40.6942 4.21576 38.729 3.4946 37.1907C2.77344 35.6524 1.43279 34.4962 0 33.5981C1.8237 33.1917 3.58986 32.5594 5.25779 31.7158C8.5872 30.0214 11.4401 27.5403 14.258 25.0847C14.6737 24.7851 14.9973 24.3746 15.192 23.8999C15.4779 22.9444 14.69 22.0367 14.1436 21.1991C12.4884 18.6511 12.8729 15.3228 13.5654 12.3735C14.3374 9.14082 15.4716 5.92083 17.5397 3.32191C18.8296 1.69758 20.5133 0.449079 22.5338 0Z" transform="translate(161 40)" id="Path" fill="#3F3D56" stroke="none" />
    <path d="M11.7329 8.32164C11.4242 8.8138 11.0235 9.24461 10.5517 9.59147C9.52168 10.2633 8.10708 10.008 6.95686 9.53101C5.88794 9.08742 4.9017 8.47326 4.03839 7.71359C3.66726 7.32752 3.22897 7.00903 2.74397 6.77297C1.84439 6.43703 0.587733 6.68898 0.0830095 5.87938C0.0242803 5.79435 -0.00463805 5.69297 0.00060564 5.59047C0.0315071 5.29821 0.422925 5.21758 0.725073 5.20079C2.12682 5.11011 3.48737 4.69937 4.69762 4.00149C4.31105 3.72816 3.9803 3.38631 3.72251 2.99368C3.6156 2.85666 3.55769 2.68904 3.5577 2.51665C3.59966 2.32932 3.70489 2.16127 3.85642 2.03963C6.11378 -0.0447308 9.43534 -0.586373 12.2616 0.669005C12.5313 0.775785 12.768 0.949452 12.9483 1.17291C13.0754 1.37894 13.1605 1.6071 13.199 1.84478C13.4221 2.7854 14.229 4.19634 13.9372 5.14704C13.6144 6.23883 12.3955 7.39781 11.7329 8.32164Z" transform="translate(153 73)" id="Path" fill="#FBBEBE" stroke="none" />
    <path d="M3.49213 54.0919C7.30569 49.3879 9.01014 43.1976 10.592 37.2103L11.7232 32.9547L14.4515 22.7053C14.8531 21.1929 15.2547 19.6805 15.5214 18.1387C15.9782 15.4773 16.0211 12.757 15.9935 10.053C15.9545 8.93212 15.7141 7.82966 15.2853 6.80568C15.0186 6.0986 14.8899 5.34569 14.6722 4.61569C14.3953 3.59796 13.9812 2.62866 13.4429 1.73825C13.2931 1.47352 13.1059 1.23503 12.8881 1.03116C12.5108 0.757384 12.0835 0.572172 11.6343 0.487757C10.6597 0.178319 9.64974 0.014181 8.63308 0C7.61531 0.0392824 6.56689 0.415739 5.91086 1.24067C5.41117 1.87246 5.18125 2.69085 4.78579 3.40121C4.60171 3.69206 4.43483 3.9949 4.28611 4.30798C4.11756 4.78359 4.02432 5.28585 4.01021 5.79416C3.8508 7.85649 3.71489 9.921 3.60249 11.9877C3.55037 12.9272 3.50439 13.8733 3.53811 14.816C3.5657 15.5493 3.63927 16.2793 3.71285 17.0093L4.43939 24.1587C4.60799 25.838 4.48844 27.4093 4.62945 29.0919C4.97279 33.1544 4.15429 37.2168 3.31432 41.204C2.91274 43.0994 2.49888 45.021 1.64053 46.7363C0.883333 48.2552 -0.250925 49.7971 0.0495002 51.4895C0.153729 52.0787 0.432696 52.6287 0.475613 53.2244C0.454627 53.5934 0.488776 53.9636 0.576777 54.3211C0.833472 54.8199 1.36256 55.0846 1.88577 54.9758C2.49278 54.862 3.05303 54.5537 3.49213 54.0919L3.49213 54.0919Z" transform="translate(140 24)" id="Path" fill="#3F3D56" stroke="none" />
    <path d="M7.05834 4.48196C7.18851 5.39785 7.08917 6.32649 7.13713 7.24876C7.24463 8.43657 7.47405 9.61206 7.82223 10.7591C8.16478 12.0356 8.60325 13.4653 9.81246 14.1737C10.1157 14.3205 10.4056 14.4902 10.6791 14.6811C10.955 14.8838 11.0669 15.2246 10.96 15.5364L10.018 15.3896C10.3097 15.5973 10.4478 15.9423 10.3734 16.2773C10.2991 16.6122 10.0253 16.8778 9.66914 16.9607C9.31295 17.0436 8.93728 16.9291 8.70259 16.6661C8.73831 16.9536 8.70914 17.2449 8.61695 17.5213C8.51923 17.7991 8.24549 17.9904 7.93185 18C7.75426 17.9743 7.5861 17.9086 7.442 17.8085L4.98247 16.3884C4.24552 16.0188 3.63261 15.4666 3.21148 14.7928L2.13587 13.2834C1.89877 12.9924 1.7105 12.6696 1.57751 12.326C1.17672 11.0495 2.29687 9.6326 1.71453 8.42951C1.53961 8.13301 1.33426 7.853 1.10136 7.59341C-0.142104 5.9978 -0.0633166 3.82776 0.0737042 1.8492C0.118236 1.18224 0.248406 0.390812 0.895829 0.100411C1.40966 -0.132549 2.02625 0.0748807 2.5024 0.365282C2.97854 0.655684 3.39988 1.03863 3.94112 1.21096C4.28367 1.31946 4.66048 1.33222 5.00303 1.44711C5.4826 1.60348 5.92792 2.213 6.24992 2.57361C6.70522 3.12701 6.98525 3.78804 7.05834 4.48196L7.05834 4.48196Z" transform="translate(135 56)" id="Path" fill="#FBBEBE" stroke="none" />
    <path d="M9.60341 17.6689C9.33314 18.2896 8.95375 18.8568 8.48328 19.3435C8.00387 19.8366 7.31896 20.0729 6.63761 19.9802C5.93116 19.8401 5.41246 19.2575 4.94468 18.7067C3.72272 17.2709 2.48485 15.816 1.66385 14.1159C0.410065 11.5276 0.209587 8.57317 0.0282027 5.7047C-0.016348 4.9661 -0.0545342 4.18292 0.298689 3.53664C0.747377 2.71207 1.69885 2.32367 2.57714 1.99575L7.42997 0.18107C7.7274 0.040143 8.05658 -0.0202346 8.38463 0.00596884C9.14517 0.133315 9.4252 1.05021 9.63205 1.792C10.0023 3.12499 10.6174 4.37735 11.4459 5.48503C12.5342 6.93678 14.9749 8.89154 13.5811 10.703C11.8978 12.8743 10.8285 15.2174 9.60341 17.6689Z" transform="translate(105 12)" id="Path" fill="#BE6F72" stroke="none" />
    <path d="M29.2353 8.00863C31.4184 10.0312 32.157 13.181 32.0524 16.1278C31.9479 19.0747 31.1177 21.9475 30.6439 24.859C30.17 27.7704 30.0752 30.8783 31.3596 33.5547C31.8008 34.4726 32.4021 35.3228 32.7093 36.2922C32.9669 37.2503 33.0543 38.2452 32.9675 39.2327C32.9622 40.2737 32.7605 41.3046 32.3727 42.2729C31.6766 43.7931 30.2451 44.8494 28.8758 45.8156C26.0815 47.806 23.2316 49.8285 19.9504 50.8688C17.728 51.5741 15.3749 51.806 13.048 51.9316C11.4725 52.0554 9.88803 52.0111 8.32219 51.7996C5.5831 51.3497 3.06594 50.0366 1.14853 48.0572C0.81445 47.7381 0.539104 47.3644 0.334755 46.9525C0.135095 46.4166 0.0386681 45.8486 0.0504233 45.2778C-0.028013 43.1629 -0.0149402 41.048 0.0896415 38.9331C0.149649 36.9177 0.431269 34.9145 0.929564 32.9589C1.55379 30.7044 2.63555 28.5917 3.45587 26.3952C6.31225 18.7591 6.02465 10.0698 9.99222 2.93935C10.8485 1.39989 12.28 -0.220092 14.0448 0.0246766C14.3843 0.0448048 14.7038 0.189594 14.9402 0.430476C15.143 0.723607 15.2564 1.06782 15.2671 1.42243C15.6887 4.88783 16.2867 8.44341 17.9437 11.5706C18.5973 12.7977 19.5778 14.6657 21.0844 14.9942C22.5911 15.3227 23.48 13.9056 24.2872 12.9008C25.7057 11.0581 27.3701 9.41254 29.2353 8.00863Z" transform="translate(92 15)" id="Path" fill="#E3E8F4" stroke="none" />
    <path d="M12.5726 2.06476C12.9928 2.3056 13.3851 2.59755 13.7415 2.93471C14.6668 3.86352 15.0061 5.28618 14.9999 6.63362C14.9937 7.98106 14.6915 9.30887 14.5064 10.6432C14.0099 14.2408 14.4324 17.9233 14.6298 21.5666C14.69 22.1549 14.6566 22.7496 14.5311 23.3262C14.38 23.8756 14.0685 24.3596 13.868 24.8927C13.2789 26.4691 13.723 28.2679 13.3776 29.9227C13.0075 31.6855 11.7398 33.288 11.9773 35.077C12.0729 35.7769 12.3906 36.4212 12.5263 37.1145C12.662 37.8078 12.5448 38.6451 11.9804 39.0179C11.416 39.3908 10.5955 39.1193 9.92317 39.3253C9.65002 39.4323 9.38414 39.559 9.12743 39.7047C8.08802 40.2018 6.84814 40.0318 5.82415 39.4889C4.82056 38.908 3.9182 38.1492 3.15624 37.2453C1.98113 35.9698 0.843022 34.5733 0.327945 32.876C-0.424622 30.4166 0.244669 27.738 1.06201 25.2983C1.87934 22.8585 2.85398 20.3925 2.70902 17.799C2.62883 16.3469 2.19703 14.9505 1.93795 13.5245C1.61725 11.5489 1.50244 9.54181 1.59559 7.53954C1.63568 6.07437 1.72821 4.56341 2.32348 3.23886C3.18577 1.44347 4.84967 0.236024 6.74019 0.0337897C8.89919 -0.214767 10.7498 0.952795 12.5726 2.06476Z" transform="translate(119 15)" id="Path" fill="#3F3D56" stroke="none" />
    <path d="M0.038896 15.9037C0.0622215 16.9588 0.252544 18.0037 0.602872 19C1.19671 17.6546 1.26637 16.1444 1.34599 14.6803C1.67774 9.63849 2.80238 4.88355 4 0C3.1275 0.659493 2.6365 2.30823 2.2185 3.29747C0.55958 7.28664 -0.184967 11.5929 0.038896 15.9037L0.038896 15.9037Z" transform="translate(125 33)" id="Path" fill="#000000" fill-opacity="0.1" stroke="none" />
    <path d="M26.2955 0.195758C24.7517 0.60311 23.4129 1.52045 21.9172 2.12025C20.3638 2.76175 18.6918 3.03439 17.0616 3.42891C13.2885 4.34626 9.4995 6.04944 7.22223 9.2024C5.54391 11.5214 4.84888 14.3857 3.69904 17.0127C2.73817 19.2162 1.45701 21.2818 0.749163 23.5752C-0.176477 26.5678 -0.0707808 29.7753 0.156626 32.8994C0.342394 35.4654 0.62425 38.0602 1.7869 40.3343C2.39546 41.5275 3.23462 42.5956 3.84317 43.7888C4.57343 45.2226 4.95778 46.8039 5.56633 48.2793C6.17488 49.7548 7.0685 51.2302 8.48098 52L10.8191 50.6304C14.3071 48.5872 17.795 46.5408 21.1741 44.3213C24.1208 42.3968 27.0931 40.1868 28.6625 37.0242C30.0525 34.2305 30.1903 30.9653 29.8315 27.8636C29.4728 24.762 28.6529 21.7277 28.2301 18.6356C27.6915 14.7439 27.7726 10.7913 28.4703 6.92508C28.7906 5.1802 29.6426 3.37759 29.8187 1.63913C30.0141 -0.218009 27.6311 -0.157066 26.2955 0.195758Z" transform="translate(77 14)" id="Path" fill="#3F3D56" stroke="none" />
    <path d="M6.56843 3.94047C8.40517 5.61136 11.0469 6.09778 13.3437 7.09904C15.0502 7.86071 16.5867 8.93338 17.8682 10.2576C18.5746 11.003 19.2581 12.0169 18.9032 12.9645C18.6042 13.7794 17.6875 14.1964 16.8463 14.4996C15.8014 14.8786 14.635 15.2134 13.5934 14.8312C12.9822 14.607 12.4894 14.1585 11.9275 13.8394C10.5508 13.0529 8.81589 13.0498 7.40301 12.3233C5.41184 11.2999 4.41954 9.04788 2.54665 7.83183C1.52149 7.16853 0.105321 6.62526 0.000176577 5.44079C-0.00465246 5.01247 0.0896227 4.58847 0.276181 4.19948C0.654045 3.23295 1.29806 -0.0867059 2.73722 0.00173406C4.30453 0.0996498 5.40198 3.14135 6.56843 3.94047Z" transform="translate(82 61)" id="Path" fill="#FBBEBE" stroke="none" />
    <path d="M16.5523 8.86703C17.1302 10.9329 18.4722 12.6942 19.8647 14.3331C20.8657 15.5105 21.9645 16.7914 21.9993 18.333C22.0308 19.7898 21.052 21.1304 19.7889 21.8745C18.5258 22.6186 17.0386 22.8572 15.5766 22.9514C14.407 23.0633 13.2269 22.9816 12.0842 22.7096C9.19812 21.931 7.19617 19.4287 4.92581 17.4947C3.57749 16.3487 2.06182 15.3503 1.02927 13.9155C-0.00328758 12.4807 -0.439044 10.4211 0.577721 8.97378C0.944628 8.50461 1.36892 8.08274 1.84078 7.71793C3.56519 6.23131 5.03574 4.47652 6.19519 2.52186C6.66252 1.73381 7.11091 0.879834 7.89717 0.405751C9.02445 -0.275547 10.4707 0.0352756 11.7463 0.368075C13.1326 0.729132 17.0386 1.43555 17.3101 3.19373C17.4207 3.91585 16.5207 5.03983 16.3849 5.81532C16.2121 6.83229 16.2693 7.87477 16.5523 8.86703L16.5523 8.86703Z" transform="translate(63 41)" id="Path" fill="#FBBEBE" stroke="none" />
    <path d="M29.6789 8.12488C30.0988 8.87953 30.4444 9.67253 30.7109 10.4929C31.6884 13.8622 29.9417 17.3332 29.1085 20.7406C28.0445 25.1047 28.4963 29.6691 28.4451 34.1604C28.4226 36.2138 28.2015 38.4737 26.7112 39.8977C26.3267 40.2601 25.8652 40.5652 25.6056 41.0229C25.4451 41.3583 25.3257 41.7115 25.2498 42.075C24.7889 43.6661 23.6203 44.9611 22.077 45.5915C20.5336 46.2218 18.7844 46.1185 17.3275 45.3108C16.1128 44.6401 15.0584 43.4768 13.6675 43.4418C13.2302 43.4627 12.7946 43.5105 12.3632 43.5848C10.9787 43.7215 9.62304 43.2129 8.32508 42.7139C8.01528 42.6169 7.72626 42.4638 7.47259 42.2626C7.23863 42.0496 7.08801 41.7635 6.87328 41.5347C6.08169 40.6892 4.72924 40.8354 3.58832 40.6002C1.85059 40.2145 0.493518 38.8685 0.104658 37.1451C-0.12609 36.0517 0.0694051 34.9201 0.261696 33.8171L1.12059 28.9031C1.48103 27.1006 1.7304 25.2781 1.86732 23.4455C1.97262 21.3746 1.79364 19.2991 1.33532 17.2759C0.957146 15.6231 0.393094 14.0052 0.187984 12.3206C-0.169417 9.3014 0.631415 6.25937 2.43137 3.79887C2.87685 3.19176 3.46013 2.58466 4.21647 2.52745C4.82859 2.47341 5.40226 2.79762 5.93426 3.10912C10.5556 5.82149 15.2091 8.4777 19.8946 11.0778C21.1765 11.7929 22.4873 12.5113 23.9166 12.8641C24.3461 12.9722 24.9614 12.9277 25.0223 12.4954C25.0299 12.3306 24.9863 12.1675 24.8973 12.0281C24.0961 10.4993 22.9359 9.18652 22.013 7.73074C21.09 6.27496 20.3785 4.55219 20.6509 2.86119C21.0227 0.521779 23.2148 -1.02618 25.0063 0.807849C27.0157 2.8898 28.3617 5.56614 29.6789 8.12488Z" transform="translate(58 46)" id="Path" fill="#F86D70" stroke="none" />
    <path d="M8.62089 4.39189C12.4021 4.61694 16.2671 4.85699 19.7678 6.20729C20.8928 6.63938 22.0855 7.19751 23.2686 6.93045C23.8574 6.76364 24.4051 6.49037 24.8803 6.12627C26.3378 5.13148 27.7147 4.03829 29 2.85555C28.8711 2.1984 27.9137 2.10838 27.1981 2.11438C25.4531 2.12407 23.7318 1.73894 22.1822 0.992135C21.6729 0.706978 21.1327 0.47263 20.5705 0.29298C19.0393 -0.100107 17.4791 0.650059 15.9415 1.01614C13.6657 1.55626 11.2674 1.24119 8.94324 0.92312L2.67027 0.0619293C2.08681 -0.016088 1.42921 -0.0791019 0.965022 0.256972C0.654728 0.529899 0.442045 0.885006 0.355776 1.2742C-0.411422 3.67473 -0.0439406 3.87577 2.50909 4.02581L8.62089 4.39189Z" transform="translate(64 80)" id="Path" fill="#FBBEBE" stroke="none" />
    <path d="M10.5 20C16.299 20 21 15.5228 21 10C21 4.47715 16.299 0 10.5 0C4.70101 0 0 4.47715 0 10C0 15.5228 4.70101 20 10.5 20Z" transform="translate(148 19)" id="Oval" fill="#000000" fill-opacity="0.1" stroke="none" />
    <path d="M10.5 20C16.299 20 21 15.5228 21 10C21 4.47715 16.299 0 10.5 0C4.70101 0 0 4.47715 0 10C0 15.5228 4.70101 20 10.5 20Z" transform="translate(148 19)" id="Oval" fill="#FBBEBE" stroke="none" />
    <path d="M19.9605 2.97942C20.8175 3.50018 21.7147 4.06048 22.1834 4.9372C22.4354 5.5324 22.6272 6.15063 22.7559 6.78291C23.3417 8.76046 24.9018 10.4776 24.9955 12.5376C25.0993 14.7953 23.3786 16.7564 21.4302 17.9396C20.9854 18.2623 20.4493 18.4398 19.8969 18.4472C19.3311 18.4109 18.8423 18.0615 18.3234 17.8374C16.1239 16.875 13.6633 18.0945 11.3333 18.6548C8.91193 19.2305 6.37135 19.0836 4.0351 18.2329C2.77968 17.7715 1.56109 17.0794 0.77436 16.0082C-0.012368 14.937 -0.293581 13.4374 0.375974 12.2871C0.710752 11.7004 1.26648 11.1698 1.22966 10.5007C1.20957 10.0986 0.968531 9.73605 0.89488 9.34054C0.787751 8.71102 1.12253 8.09798 1.464 7.56075C3.01339 5.10609 4.97128 2.92562 7.25566 1.11064C7.92521 0.570107 8.69855 0.0427608 9.57567 0.00320984C11.3366 -0.0725962 12.8498 1.2194 14.6609 1.22599C16.7165 1.23259 18.1929 1.90495 19.9605 2.97942Z" transform="translate(146 12)" id="Path" fill="#3F3D56" stroke="none" />
    <path d="M10.5 22C16.299 22 21 17.0751 21 11C21 4.92487 16.299 0 10.5 0C4.70101 0 0 4.92487 0 11C0 17.0751 4.70101 22 10.5 22Z" transform="translate(109 5)" id="Oval" fill="#000000" fill-opacity="0.1" stroke="none" />
    <path d="M10.5 22C16.299 22 21 17.0751 21 11C21 4.92487 16.299 0 10.5 0C4.70101 0 0 4.92487 0 11C0 17.0751 4.70101 22 10.5 22Z" transform="translate(109 5)" id="Oval" fill="#BE6F72" stroke="none" />
    <path d="M18.1378 21.3628C19.6019 22.1863 21.4085 22.1011 23.0422 21.7256C23.9688 21.5508 24.8473 21.1785 25.6185 20.6339C26.3946 20.0769 26.873 19.1928 26.9161 18.2358C26.9161 17.1788 26.2249 16.2259 26.1401 15.1689C26.0364 13.8373 26.9004 12.6067 26.9915 11.2689C27.0826 9.931 26.426 8.72566 25.785 7.57712C24.6822 5.60503 23.5355 3.60771 21.8577 2.09946C20.18 0.591206 17.855 -0.371171 15.6558 0.136838C14.575 0.386109 13.5727 0.969846 12.4699 1.08344C11.4897 1.17494 10.522 0.878342 9.54489 0.752128C8.56778 0.625915 7.47128 0.704798 6.77065 1.3832C6.38735 1.76184 6.14228 2.29509 5.693 2.57276C5.38834 2.71389 5.07321 2.83099 4.75045 2.923C3.61625 3.38052 3.09785 4.66474 2.69569 5.8196L0 13.5786C0.901706 14.2096 1.98878 14.4968 2.97532 14.9827C3.96185 15.4686 4.92011 16.2448 5.12119 17.3303C5.27514 18.1538 4.98295 19.1004 5.46051 19.7883C5.89722 20.4193 6.78636 20.5266 7.5404 20.4193C8.29444 20.3121 9.05162 20.0502 9.80566 20.1669C11.6908 20.454 12.3914 21.6152 14.1351 20.1669C15.8788 18.7186 16.5166 20.4477 18.1378 21.3628Z" transform="translate(107 0)" id="Path" fill="#3F3D56" stroke="none" />
    <path d="M9.5 19C14.7467 19 19 14.7467 19 9.5C19 4.25329 14.7467 0 9.5 0C4.25329 0 0 4.25329 0 9.5C0 14.7467 4.25329 19 9.5 19Z" transform="translate(66 30)" id="Oval" fill="#000000" fill-opacity="0.1" stroke="none" />
    <path d="M9.5 19C14.7467 19 19 14.7467 19 9.5C19 4.25329 14.7467 0 9.5 0C4.25329 0 0 4.25329 0 9.5C0 14.7467 4.25329 19 9.5 19Z" transform="translate(66 30)" id="Oval" fill="#FBBEBE" stroke="none" />
    <path d="M28.163 4.72415C25.8911 2.95251 23.3385 1.58796 20.615 0.689259C18.8719 0.113771 16.9762 -0.280665 15.2077 0.24956C12.8094 0.944673 9.59996 1.98249 8.11454 4.02257C7.38296 5.02482 6.64184 6.05617 6.28877 7.25565C5.58264 9.66753 6.58776 12.2378 6.52097 14.7532C6.44145 17.6856 4.9115 20.3626 3.24159 22.755C1.57168 25.1475 1.23452 28.5746 0.24848 31.3356C-0.0886827 32.2829 -0.196829 33.5988 0.671523 34.0741C1.43491 34.5041 2.35733 33.9674 3.06347 33.4501L7.3098 30.3302C7.63986 30.0544 8.02039 29.8478 8.42943 29.7223C9.30415 29.5154 10.1598 30.0715 10.8914 30.5985L19.7975 37C20.1539 36.2605 20.1691 35.3983 19.8389 34.6463C20.6754 34.9082 21.2829 35.6162 22.0177 36.1206C22.7525 36.625 23.8689 36.7898 24.4033 36.085C24.9377 35.3802 24.5337 34.4329 23.9389 33.8639C23.3441 33.2949 22.5616 32.9554 21.9795 32.3702C20.8249 31.2031 20.7072 29.3602 19.9788 27.8859C19.4572 26.8514 18.6143 25.9849 18.2453 24.8824C17.6441 23.0816 18.4298 21.1417 19.1995 19.4088C20.1188 17.3526 21.1589 15.1573 23.1151 14.0839C23.7735 13.7218 24.5019 13.5084 25.1762 13.1787C26.8557 12.3607 28.9518 10.4305 29.7724 8.70084C30.4913 7.16512 29.3844 5.68114 28.163 4.72415Z" transform="translate(55 24)" id="Path" fill="#3F3D56" stroke="none" />
    <path d="M14.5322 0.323622C15.4287 0.927938 16.4409 1.3143 17.3218 1.94504C18.2027 2.57577 18.9743 3.53343 18.9993 4.6562C19.0243 5.72944 18.3745 6.67058 17.7498 7.52257L10.1401 18.0799L14.0199 19.1664C13.3951 20.0778 13.2358 21.2402 12.9109 22.3101C12.586 23.3801 11.9738 24.4929 10.9367 24.7736C9.9995 25.0279 9.01861 24.5061 8.05022 24.5656C7.33486 24.6118 6.66011 24.9685 5.94475 24.9982C5.02321 25.0345 4.16728 24.5226 3.39881 23.9811C1.68695 22.7691 -0.0124269 21.0322 6.84882e-05 18.8527C0.0406191 18.1155 0.180521 17.3883 0.41554 16.693C1.537 12.826 2.69907 8.86659 5.02321 5.65018C6.27275 3.933 7.80031 2.48331 9.32787 1.04352C9.6752 0.673854 10.0839 0.374967 10.5337 0.161811C11.5333 -0.234461 12.6235 0.254275 13.6575 0.571293C14.6915 0.88831 15.9942 0.934542 16.5908 0" transform="translate(53 61)" id="Path" fill="#000000" fill-opacity="0.1" stroke="none" />
    <path d="M14.5289 0.346601C15.4255 0.947376 16.4376 1.33689 17.3185 1.96737C18.1994 2.59786 18.971 3.55513 18.9991 4.67416C19.0272 5.79319 18.3744 6.69105 17.7496 7.5427L10.1369 18.086L14.0166 19.172C13.3919 20.083 13.2326 21.2417 12.9077 22.3145C12.5828 23.3873 11.9705 24.4964 10.9334 24.777C9.9963 25.0312 9.01542 24.5096 8.04704 24.5691C7.33169 24.612 6.65695 24.9718 5.94159 24.9982C5.02007 25.0345 4.16415 24.5228 3.39569 23.9815C1.68384 22.7733 -0.0155122 21.0337 0.000106849 18.8584C0.0375274 18.1214 0.176436 17.3942 0.41245 16.6996C1.5339 12.8308 2.69596 8.87298 5.02007 5.66115C6.26959 3.94135 7.80026 2.49223 9.32468 1.0398C9.67365 0.672371 10.082 0.373882 10.5305 0.158446C11.5301 -0.237669 12.6203 0.250873 13.6543 0.571066C14.6883 0.891259 15.9909 0.934172 16.5875 0" transform="translate(53 60)" id="Path" fill="#F86D70" stroke="none" />
    <g id="Group" transform="translate(146 20)" opacity="0.1">
      <path d="M1.10298 1.54314C1.87601 2.56457 3.07666 3.22771 4.30693 3.66457C6.60179 4.47898 9.09913 4.61908 11.478 4.06686C13.7806 3.53257 16.1852 2.36971 18.3464 3.28743C18.8563 3.50429 19.3332 3.83429 19.8892 3.872C20.4331 3.86262 20.9605 3.69243 21.399 3.38486C22.7313 2.59914 23.955 1.45514 24.5405 0.106857C24.5405 0.176 24.5405 0.245143 24.5602 0.317429C24.6622 2.47029 22.9714 4.34029 21.0569 5.46857C20.62 5.77628 20.0931 5.94554 19.5503 5.95257C18.9944 5.918 18.5142 5.58486 18.0043 5.37114C15.8431 4.45343 13.4253 5.61629 11.1359 6.15057C8.75672 6.69952 6.26039 6.55948 3.96482 5.74829C2.73127 5.30829 1.5339 4.64829 0.760874 3.62686C-0.0121526 2.60543 -0.288468 1.17543 0.369426 0.0785714L0.418768 0C0.525265 0.556202 0.758887 1.08311 1.10298 1.54314L1.10298 1.54314Z" transform="translate(0.31807366 4.4)" id="Path" fill="#000000" stroke="none" />
      <path d="M0.687743 0.616C0.714059 1.1 0.408138 1.50543 0.115375 1.91714C0.074583 1.81507 0.0426765 1.70995 0.0199799 1.60286C-0.0787043 1.04029 0.20419 0.493429 0.51669 0C0.606332 0.195771 0.66402 0.403519 0.687743 0.616L0.687743 0.616Z" transform="translate(1.1708095 0.07542857)" id="Path" fill="#000000" stroke="none" />
    </g>
    <path d="M3.47997 1.39427L0.750707 9.32741C1.66364 9.97291 2.76426 10.2698 3.76308 10.7636C4.7619 11.2574 5.73209 12.0546 5.93567 13.1649C6.09154 14.0073 5.79571 14.9755 6.27922 15.6823C6.72137 16.3278 7.62158 16.4343 8.38501 16.3278C9.14845 16.2213 9.91506 15.9502 10.6785 16.0696C12.5871 16.3633 13.2964 17.551 15.0619 16.0857C16.8273 14.6205 17.4667 16.3601 19.108 17.2961C20.5904 18.1417 22.4194 18.0545 24.0735 17.6672C25.0114 17.4893 25.9008 17.1096 26.6819 16.5537C26.793 16.4616 26.8992 16.3636 27 16.26C26.7565 16.789 26.3896 17.2498 25.9312 17.6027C25.1504 18.1597 24.2609 18.5405 23.3228 18.7194C21.6687 19.1034 19.8238 19.1906 18.3573 18.3482C16.716 17.4122 16.0416 15.7049 14.3111 17.1379C12.5807 18.5709 11.83 17.4155 9.92778 17.1379C9.16435 17.0185 8.40092 17.2864 7.63431 17.3961C6.8677 17.5058 5.97066 17.3961 5.52851 16.7506C5.045 16.047 5.34083 15.0788 5.18497 14.2364C4.98139 13.1262 4.01119 12.329 3.01237 11.8352C2.01355 11.3414 0.912936 11.0412 0 10.3989L2.74199 2.4432C3.06008 1.56855 3.40999 0.622903 4.04618 0C3.82576 0.45085 3.63656 0.916735 3.47997 1.39427Z" transform="translate(107 3)" id="Path" fill="#000000" fill-opacity="0.1" stroke="none" />
    <g id="Group" transform="translate(55 29)" opacity="0.1">
      <path d="M4.25398 31.5002C4.94378 31.824 5.81462 31.8726 6.2516 31.267C6.74164 30.6194 6.37957 29.6156 5.79589 29.0425C5.21221 28.4693 4.44438 28.1326 3.87318 27.5465C2.74016 26.3808 2.62467 24.535 1.9099 23.0585C1.39801 22.019 0.570868 21.1512 0.208799 20.047C-0.381123 18.2467 0.389834 16.3006 1.14518 14.5682C2.04723 12.5088 3.06789 10.3101 4.98748 9.23505C5.63359 8.87238 6.34836 8.65867 7.01007 8.32838C8.65811 7.50914 10.715 5.57276 11.5203 3.84038C12.1976 2.38 11.2425 0.961714 10.1064 0C10.6588 0.372381 11.1988 0.76419 11.7232 1.1819C12.9249 2.15333 14.008 3.62667 13.2838 5.15829C12.4786 6.89067 10.4216 8.82381 8.7736 9.64305C8.11188 9.96686 7.39711 10.187 6.75101 10.5497C4.83142 11.6248 3.81076 13.8234 2.90871 15.8829C2.15024 17.6185 1.37928 19.5613 1.97232 21.365C2.33439 22.4691 3.16153 23.337 3.67342 24.3731C4.39756 25.8497 4.50368 27.6954 5.63671 28.8644C6.2079 29.4505 6.97574 29.7872 7.55942 30.3604C8.1431 30.9335 8.4958 31.9244 8.01512 32.5849C7.53445 33.2455 6.39206 33.1095 5.67416 32.6206C5.19036 32.2806 4.75026 31.8337 4.25398 31.5002Z" transform="translate(16.13111 0.28495237)" id="Path" fill="#000000" stroke="none" />
      <path d="M1.2303 3.77668L5.39721 0.655152C5.72097 0.378009 6.09436 0.170019 6.4959 0.0431516C7.35425 -0.160848 8.19388 0.396104 8.91177 0.923914L17.6514 7.33534C18.0012 6.59355 18.0161 5.72903 17.6919 4.97477C18.4941 5.23382 19.0778 5.92677 19.7738 6.41249C19.6727 6.3649 19.5684 6.32486 19.4617 6.29268C19.7857 7.04583 19.7709 7.90933 19.4211 8.65001L10.6815 2.23858C9.96364 1.71077 9.1209 1.15382 8.26567 1.36106C7.86428 1.48671 7.49086 1.69362 7.16697 1.96982L3.00006 5.09458C2.30714 5.61268 1.40197 6.1502 0.65286 5.71953C0.235827 5.45368 -0.0128381 4.97723 0.000511693 4.46963C0.442613 4.30624 0.857508 4.07245 1.2303 3.77668L1.2303 3.77668Z" transform="translate(0.22422057 25.136276)" id="Path" fill="#000000" stroke="none" />
    </g>
    <path d="M22 3.59932C22 3.59932 3.65066 5.02231 0 2.50496L16.7866 0L22 3.59932Z" transform="translate(141 74)" id="Path" fill="#E3E8F4" stroke="none" />
    <path d="M22 3.59932C22 3.59932 3.65066 5.02231 0 2.50496L16.7866 0L22 3.59932Z" transform="translate(141 74)" id="Path" fill="#000000" fill-opacity="0.1" stroke="none" />
    <path d="M25 7L19.7923 3.58241C19.7923 3.58241 4.25698 8.21096 0 6.30034L4.3316 0L19.7242 3.11148L25 7Z" transform="translate(138 71)" id="Path" fill="#E3E8F4" stroke="none" />
    <path d="M7.46232 7.0555C6.8844 7.77126 6.42084 8.569 6.08753 9.42137C5.93731 9.87277 5.86221 10.3434 5.73485 10.8012C5.37652 11.9413 4.82451 13.0139 4.10208 13.9738C2.49216 16.2693 0.480589 18.4847 0.0756619 21.2411C-0.120271 22.6017 0.0952552 23.9847 0.369561 25.3325C0.518048 26.2213 0.776859 27.0889 1.14023 27.9161C1.55495 28.7933 2.17214 29.5649 2.64565 30.4132C3.07816 31.246 3.44286 32.1109 3.73634 33C4.29474 32.4526 4.62456 31.7194 5.07194 31.0791C5.51932 30.4388 6.18549 29.8626 6.97249 29.853C7.88031 29.853 8.62812 30.5893 9.52615 30.7046C9.6663 30.7323 9.81167 30.7189 9.94414 30.6661C10.2707 30.5157 10.2968 30.0835 10.2707 29.7377C10.0127 27.3206 8.602 24.9356 9.26817 22.5921C9.88209 20.4247 12.0765 19.0705 13.2293 17.1272C14.0653 15.7154 14.3134 14.0507 14.5355 12.4307C14.8131 10.4939 15.0939 8.54097 14.9698 6.59129C14.9078 5.60845 14.111 -0.602349 12.6545 0.0475441C12.1484 0.271645 11.7075 1.22247 11.3908 1.64827L10.0846 3.46348L7.46232 7.0555Z" transform="translate(133 27)" id="Path" fill="#3F3D56" stroke="none" />
    <path d="M23 1.05533L12.9414 10L0 7.47268L8.71411 0L23 1.05533L23 1.05533Z" transform="translate(78 73)" id="Path" fill="#E3E8F4" stroke="none" />
    <path d="M23 1.05533L12.9414 10L0 7.47268L8.71411 0L23 1.05533L23 1.05533Z" transform="translate(78 73)" id="Path" fill="#000000" fill-opacity="0.1" stroke="none" />
    <path d="M23 1.05874L12.9428 10L0 7.47609L8.71605 0L23 1.05874L23 1.05874Z" transform="translate(78 72)" id="Path" fill="#E3E8F4" stroke="none" />
    <path d="M23 1.05533L12.9396 10L0 7.47268L8.71605 0L23 1.05533L23 1.05533Z" transform="translate(80 72)" id="Path" fill="#000000" fill-opacity="0.1" stroke="none" />
    <path d="M23 1.05533L12.9414 10L0 7.47268L8.71411 0L23 1.05533L23 1.05533Z" transform="translate(78 71)" id="Path" fill="#E3E8F4" stroke="none" />
    <path d="M2.15783 0.174562L2.15783 0.174562C2.63262 -0.0760258 3.1909 -0.0557899 3.64921 0.228621C4.10753 0.513031 4.40662 1.02484 4.44821 1.59587L5 9.3579L1.72626 10L0 4.38833L2.15783 0.174562Z" transform="translate(236 186)" id="Path" fill="#3F3D56" stroke="none" />
    <path d="M54.3526 0.390372L1.98803 26.8136C0.76337 27.4348 -0.00541868 28.6885 2.87596e-05 30.0555C0.0054762 31.4225 0.784232 32.6701 2.01381 33.2816L114.794 89.5591C118.869 91.5881 123.692 91.4679 127.659 89.2387L175.162 62.6041C176.336 61.9378 177.043 60.6795 176.998 59.3357C176.953 57.992 176.163 56.7836 174.946 56.1969L57.5712 0.355132C56.551 -0.130468 55.3618 -0.117448 54.3526 0.390372Z" transform="translate(64 138)" id="Path" fill="#3F3D56" stroke="none" />
    <path d="M1.76177 0L0.12895 1.21228L0.000633818 7.01712C-0.0204887 7.94054 0.487776 8.79491 1.30946 9.21719L115.52 67.8108C116.047 68.0827 116.678 68.0603 117.184 67.7518C117.691 67.4433 118 66.8932 118 66.3003L118 57.8688L1.76177 0Z" transform="translate(64 160)" id="Path" fill="#3F3D56" stroke="none" />
    <path d="M54.3559 0.392032L1.99277 26.8129C0.767233 27.4323 -0.00339331 28.6849 1.12345e-05 30.0519C0.00341578 31.419 0.780271 32.6677 2.00888 33.2811L114.796 89.5603C118.871 91.5876 123.693 91.4676 127.66 89.24L175.162 62.6013C176.336 61.9349 177.043 60.6767 176.998 59.3328C176.953 57.989 176.163 56.7806 174.946 56.1939L57.5744 0.353588C56.5538 -0.131023 55.3646 -0.116819 54.3559 0.392032L54.3559 0.392032Z" transform="translate(64 131)" id="Path" fill="#E3E8F4" stroke="none" />
    <path d="M57.8182 0L0 29.3406L99.3738 79L159 48.7526L57.8182 0L57.8182 0Z" transform="translate(71 135)" id="Path" fill="#3F3D56" stroke="none" />
    <path d="M6 7C9.31371 7 12 5.433 12 3.5C12 1.567 9.31371 0 6 0C2.68629 0 0 1.567 0 3.5C0 5.433 2.68629 7 6 7Z" transform="translate(201 197)" id="Oval" fill="#3F3D56" stroke="none" />
    <path d="M0.5 1C0.776142 1 1 0.776142 1 0.5C1 0.223858 0.776142 0 0.5 0C0.223858 0 0 0.223858 0 0.5C0 0.776142 0.223858 1 0.5 1Z" transform="translate(96 145)" id="Oval" fill="#3F3D56" stroke="none" />
    <path d="M0.5 1C0.776142 1 1 0.776142 1 0.5C1 0.223858 0.776142 0 0.5 0C0.223858 0 0 0.223858 0 0.5C0 0.776142 0.223858 1 0.5 1Z" transform="translate(95 149)" id="Oval" fill="#3F3D56" stroke="none" />
    <path d="M0 3L7 0" transform="translate(97 144)" id="Path" fill="none" fill-rule="evenodd" stroke="#3F3D56" stroke-width="1" />
    <path d="M5.77969 0.0015807L27.75 0.000329193Q27.8919 0.000321112 28.0336 0.00727435Q28.1753 0.0142276 28.3164 0.0281254Q28.4576 0.0420232 28.5979 0.0628321Q28.7383 0.083641 28.8774 0.111311Q29.0165 0.138981 29.1542 0.173445Q29.2918 0.207909 29.4275 0.249084Q29.5633 0.29026 29.6969 0.338047Q29.8304 0.385834 29.9615 0.440119Q30.0925 0.494403 30.2208 0.555053Q30.349 0.615703 30.4741 0.682574Q30.5993 0.749444 30.7209 0.822373Q30.8426 0.895302 30.9606 0.974115Q31.0785 1.05293 31.1925 1.13743Q31.3064 1.22194 31.4161 1.31193Q31.5257 1.40193 31.6309 1.4972Q31.736 1.59246 31.8363 1.69278Q31.9366 1.79309 32.0319 1.8982Q32.1271 2.00331 32.2171 2.11297Q32.3071 2.22263 32.3916 2.33658Q32.4761 2.45052 32.5549 2.56848Q32.6337 2.68643 32.7067 2.80811Q32.7796 2.92979 32.8465 3.0549Q32.9133 3.18002 32.974 3.30826Q33.0346 3.4365 33.0889 3.56757Q33.1432 3.69863 33.191 3.8322Q33.2388 3.96577 33.28 4.10153Q33.3211 4.23728 33.3556 4.37489Q33.3901 4.5125 33.4177 4.65164Q33.4454 4.79078 33.4662 4.9311Q33.487 5.07143 33.5009 5.21261Q33.5148 5.35379 33.5218 5.49548Q33.5287 5.63717 33.5287 5.77903L33.5287 5.78103Q33.5287 5.9229 33.5217 6.06461Q33.5148 6.20631 33.5009 6.3475Q33.487 6.48869 33.4661 6.62902Q33.4453 6.76936 33.4176 6.90851Q33.3899 7.04765 33.3555 7.18527Q33.321 7.32289 33.2798 7.45866Q33.2386 7.59442 33.1908 7.728Q33.143 7.86157 33.0887 7.99265Q33.0344 8.12372 32.9738 8.25197Q32.9131 8.38022 32.8462 8.50534Q32.7793 8.63046 32.7064 8.75215Q32.6334 8.87383 32.5546 8.99179Q32.4758 9.10976 32.3913 9.22371Q32.3068 9.33766 32.2168 9.44733Q32.1268 9.557 32.0315 9.66212Q31.9362 9.76724 31.8359 9.86756Q31.7356 9.96788 31.6305 10.0632Q31.5253 10.1584 31.4157 10.2484Q31.306 10.3384 31.192 10.423Q31.0781 10.5075 30.9601 10.5863Q30.8422 10.6651 30.7205 10.7381Q30.5988 10.811 30.4737 10.8779Q30.3486 10.9448 30.2203 11.0054Q30.0921 11.0661 29.961 11.1204Q29.8299 11.1747 29.6963 11.2225Q29.5628 11.2703 29.427 11.3115Q29.2912 11.3526 29.1536 11.3871Q29.016 11.4216 28.8768 11.4493Q28.7377 11.477 28.5974 11.4978Q28.457 11.5186 28.3158 11.5325Q28.1746 11.5464 28.0329 11.5534Q27.8912 11.5604 27.7494 11.5604L5.77903 11.5616Q5.63717 11.5617 5.49548 11.5547Q5.35379 11.5477 5.21261 11.5338Q5.07143 11.5199 4.9311 11.4991Q4.79077 11.4783 4.65164 11.4507Q4.5125 11.423 4.37489 11.3885Q4.23728 11.3541 4.10152 11.3129Q3.96577 11.2717 3.8322 11.2239Q3.69863 11.1761 3.56757 11.1219Q3.4365 11.0676 3.30826 11.0069Q3.18002 10.9463 3.0549 10.8794Q2.92979 10.8125 2.80811 10.7396Q2.68643 10.6667 2.56848 10.5879Q2.45052 10.509 2.33658 10.4245Q2.22263 10.34 2.11297 10.25Q2.00331 10.16 1.8982 10.0648Q1.79309 9.96951 1.69277 9.86919Q1.59246 9.76888 1.4972 9.66377Q1.40193 9.55866 1.31193 9.449Q1.22194 9.33934 1.13743 9.22539Q1.05293 9.11145 0.974115 8.99349Q0.895302 8.87554 0.822373 8.75386Q0.749444 8.63218 0.682574 8.50707Q0.615703 8.38195 0.555053 8.25371Q0.494403 8.12547 0.440118 7.9944Q0.385834 7.86334 0.338047 7.72977Q0.29026 7.5962 0.249084 7.46045Q0.207909 7.32469 0.173445 7.18708Q0.138981 7.04947 0.111311 6.91033Q0.0836409 6.7712 0.0628321 6.63087Q0.0420232 6.49054 0.0281254 6.34936Q0.0142276 6.20818 0.00727433 6.06649Q0.000321091 5.9248 0.000329172 5.78294L0.000329286 5.78094Q0.000337367 5.63907 0.00730632 5.49736Q0.0142753 5.35566 0.0281883 5.21447Q0.0421013 5.07329 0.0629249 4.93295Q0.0837485 4.79261 0.111433 4.65347Q0.139117 4.51432 0.173594 4.3767Q0.208072 4.23908 0.24926 4.10332Q0.290449 3.96755 0.338249 3.83398Q0.386049 3.7004 0.440345 3.56933Q0.494641 3.43825 0.555303 3.31Q0.615965 3.18175 0.682846 3.05663Q0.749727 2.93151 0.822667 2.80983Q0.895606 2.68814 0.974428 2.57018Q1.05325 2.45222 1.13777 2.33826Q1.22228 2.22431 1.31228 2.11464Q1.40229 2.00497 1.49757 1.89985Q1.59284 1.79473 1.69316 1.69441Q1.79348 1.59409 1.8986 1.49882Q2.00372 1.40354 2.11339 1.31354Q2.22306 1.22353 2.33701 1.13902Q2.45096 1.0545 2.56893 0.97568Q2.68689 0.896857 2.80858 0.823918Q2.93026 0.750978 3.05538 0.684097Q3.1805 0.617216 3.30875 0.556554Q3.437 0.495892 3.56807 0.441596Q3.69915 0.3873 3.83273 0.3395Q3.9663 0.2917 4.10207 0.250512Q4.23783 0.209323 4.37545 0.174846Q4.51307 0.140368 4.65221 0.112684Q4.79136 0.085 4.9317 0.0641764Q5.07203 0.0433527 5.21322 0.0294397Q5.35441 0.0155267 5.49611 0.00855773Q5.63782 0.00158878 5.77969 0.0015807L5.77969 0.0015807Z" transform="matrix(0.8660254 -0.5 0.5 0.8660254 132.78125 176.53882)" id="Rectangle" fill="#6C63FF" stroke="none" />
    <path d="M5.77969 0.0015807L27.75 0.000329193Q27.8919 0.000321112 28.0336 0.00727435Q28.1753 0.0142276 28.3164 0.0281254Q28.4576 0.0420232 28.5979 0.0628321Q28.7383 0.083641 28.8774 0.111311Q29.0165 0.138981 29.1542 0.173445Q29.2918 0.207909 29.4275 0.249084Q29.5633 0.29026 29.6969 0.338047Q29.8304 0.385834 29.9615 0.440119Q30.0925 0.494403 30.2208 0.555053Q30.349 0.615703 30.4741 0.682574Q30.5993 0.749444 30.7209 0.822373Q30.8426 0.895302 30.9606 0.974115Q31.0785 1.05293 31.1925 1.13743Q31.3064 1.22194 31.4161 1.31193Q31.5257 1.40193 31.6309 1.4972Q31.736 1.59246 31.8363 1.69278Q31.9366 1.79309 32.0319 1.8982Q32.1271 2.00331 32.2171 2.11297Q32.3071 2.22263 32.3916 2.33658Q32.4761 2.45052 32.5549 2.56848Q32.6337 2.68643 32.7067 2.80811Q32.7796 2.92979 32.8465 3.0549Q32.9133 3.18002 32.974 3.30826Q33.0346 3.4365 33.0889 3.56757Q33.1432 3.69863 33.191 3.8322Q33.2388 3.96577 33.28 4.10153Q33.3211 4.23728 33.3556 4.37489Q33.3901 4.5125 33.4177 4.65164Q33.4454 4.79078 33.4662 4.9311Q33.487 5.07143 33.5009 5.21261Q33.5148 5.35379 33.5218 5.49548Q33.5287 5.63717 33.5287 5.77903L33.5287 5.78103Q33.5287 5.9229 33.5217 6.06461Q33.5148 6.20631 33.5009 6.3475Q33.487 6.48869 33.4661 6.62902Q33.4453 6.76936 33.4176 6.90851Q33.3899 7.04765 33.3555 7.18527Q33.321 7.32289 33.2798 7.45866Q33.2386 7.59442 33.1908 7.728Q33.143 7.86157 33.0887 7.99265Q33.0344 8.12372 32.9738 8.25197Q32.9131 8.38022 32.8462 8.50534Q32.7793 8.63046 32.7064 8.75215Q32.6334 8.87383 32.5546 8.99179Q32.4758 9.10976 32.3913 9.22371Q32.3068 9.33766 32.2168 9.44733Q32.1268 9.557 32.0315 9.66212Q31.9362 9.76724 31.8359 9.86756Q31.7356 9.96788 31.6305 10.0632Q31.5253 10.1584 31.4157 10.2484Q31.306 10.3384 31.192 10.423Q31.0781 10.5075 30.9601 10.5863Q30.8422 10.6651 30.7205 10.7381Q30.5988 10.811 30.4737 10.8779Q30.3486 10.9448 30.2203 11.0054Q30.0921 11.0661 29.961 11.1204Q29.8299 11.1747 29.6963 11.2225Q29.5628 11.2703 29.427 11.3115Q29.2912 11.3526 29.1536 11.3871Q29.016 11.4216 28.8768 11.4493Q28.7377 11.477 28.5974 11.4978Q28.457 11.5186 28.3158 11.5325Q28.1746 11.5464 28.0329 11.5534Q27.8912 11.5604 27.7494 11.5604L5.77903 11.5616Q5.63717 11.5617 5.49548 11.5547Q5.35379 11.5477 5.21261 11.5338Q5.07143 11.5199 4.9311 11.4991Q4.79077 11.4783 4.65164 11.4507Q4.5125 11.423 4.37489 11.3885Q4.23728 11.3541 4.10152 11.3129Q3.96577 11.2717 3.8322 11.2239Q3.69863 11.1761 3.56757 11.1219Q3.4365 11.0676 3.30826 11.0069Q3.18002 10.9463 3.0549 10.8794Q2.92979 10.8125 2.80811 10.7396Q2.68643 10.6667 2.56848 10.5879Q2.45052 10.509 2.33658 10.4245Q2.22263 10.34 2.11297 10.25Q2.00331 10.16 1.8982 10.0648Q1.79309 9.96951 1.69277 9.86919Q1.59246 9.76888 1.4972 9.66377Q1.40193 9.55866 1.31193 9.449Q1.22194 9.33934 1.13743 9.22539Q1.05293 9.11145 0.974115 8.99349Q0.895302 8.87554 0.822373 8.75386Q0.749444 8.63218 0.682574 8.50707Q0.615703 8.38195 0.555053 8.25371Q0.494403 8.12547 0.440118 7.9944Q0.385834 7.86334 0.338047 7.72977Q0.29026 7.5962 0.249084 7.46045Q0.207909 7.32469 0.173445 7.18708Q0.138981 7.04947 0.111311 6.91033Q0.0836409 6.7712 0.0628321 6.63087Q0.0420232 6.49054 0.0281254 6.34936Q0.0142276 6.20818 0.00727433 6.06649Q0.000321091 5.9248 0.000329172 5.78294L0.000329286 5.78094Q0.000337367 5.63907 0.00730632 5.49736Q0.0142753 5.35566 0.0281883 5.21447Q0.0421013 5.07329 0.0629249 4.93295Q0.0837485 4.79261 0.111433 4.65347Q0.139117 4.51432 0.173594 4.3767Q0.208072 4.23908 0.24926 4.10332Q0.290449 3.96755 0.338249 3.83398Q0.386049 3.7004 0.440345 3.56933Q0.494641 3.43825 0.555303 3.31Q0.615965 3.18175 0.682846 3.05663Q0.749727 2.93151 0.822667 2.80983Q0.895606 2.68814 0.974428 2.57018Q1.05325 2.45222 1.13777 2.33826Q1.22228 2.22431 1.31228 2.11464Q1.40229 2.00497 1.49757 1.89985Q1.59284 1.79473 1.69316 1.69441Q1.79348 1.59409 1.8986 1.49882Q2.00372 1.40354 2.11339 1.31354Q2.22306 1.22353 2.33701 1.13902Q2.45096 1.0545 2.56893 0.97568Q2.68689 0.896857 2.80858 0.823918Q2.93026 0.750978 3.05538 0.684097Q3.1805 0.617216 3.30875 0.556554Q3.437 0.495892 3.56807 0.441596Q3.69915 0.3873 3.83273 0.3395Q3.9663 0.2917 4.10207 0.250512Q4.23783 0.209323 4.37545 0.174846Q4.51307 0.140368 4.65221 0.112684Q4.79136 0.085 4.9317 0.0641764Q5.07203 0.0433527 5.21322 0.0294397Q5.35441 0.0155267 5.49611 0.00855773Q5.63782 0.00158878 5.77969 0.0015807L5.77969 0.0015807Z" transform="matrix(0.8660254 -0.5 0.5 0.8660254 149.79834 185.20999)" id="Rectangle" fill="#6C63FF" stroke="none" />
    <path d="M5.77969 0.0015807L27.75 0.000329193Q27.8919 0.000321112 28.0336 0.00727435Q28.1753 0.0142276 28.3164 0.0281254Q28.4576 0.0420232 28.5979 0.0628321Q28.7383 0.083641 28.8774 0.111311Q29.0165 0.138981 29.1542 0.173445Q29.2918 0.207909 29.4275 0.249084Q29.5633 0.29026 29.6969 0.338047Q29.8304 0.385834 29.9615 0.440119Q30.0925 0.494403 30.2208 0.555053Q30.349 0.615703 30.4741 0.682574Q30.5993 0.749444 30.7209 0.822373Q30.8426 0.895302 30.9606 0.974115Q31.0785 1.05293 31.1925 1.13743Q31.3064 1.22194 31.4161 1.31193Q31.5257 1.40193 31.6309 1.4972Q31.736 1.59246 31.8363 1.69278Q31.9366 1.79309 32.0319 1.8982Q32.1271 2.00331 32.2171 2.11297Q32.3071 2.22263 32.3916 2.33658Q32.4761 2.45052 32.5549 2.56848Q32.6337 2.68643 32.7067 2.80811Q32.7796 2.92979 32.8465 3.0549Q32.9133 3.18002 32.974 3.30826Q33.0346 3.4365 33.0889 3.56757Q33.1432 3.69863 33.191 3.8322Q33.2388 3.96577 33.28 4.10153Q33.3211 4.23728 33.3556 4.37489Q33.3901 4.5125 33.4177 4.65164Q33.4454 4.79078 33.4662 4.9311Q33.487 5.07143 33.5009 5.21261Q33.5148 5.35379 33.5218 5.49548Q33.5287 5.63717 33.5287 5.77903L33.5287 5.78103Q33.5287 5.9229 33.5217 6.06461Q33.5148 6.20631 33.5009 6.3475Q33.487 6.48869 33.4661 6.62902Q33.4453 6.76936 33.4176 6.90851Q33.3899 7.04765 33.3555 7.18527Q33.321 7.32289 33.2798 7.45866Q33.2386 7.59442 33.1908 7.728Q33.143 7.86157 33.0887 7.99265Q33.0344 8.12372 32.9738 8.25197Q32.9131 8.38022 32.8462 8.50534Q32.7793 8.63046 32.7064 8.75215Q32.6334 8.87383 32.5546 8.99179Q32.4758 9.10976 32.3913 9.22371Q32.3068 9.33766 32.2168 9.44733Q32.1268 9.557 32.0315 9.66212Q31.9362 9.76724 31.8359 9.86756Q31.7356 9.96788 31.6305 10.0632Q31.5253 10.1584 31.4157 10.2484Q31.306 10.3384 31.192 10.423Q31.0781 10.5075 30.9601 10.5863Q30.8422 10.6651 30.7205 10.7381Q30.5988 10.811 30.4737 10.8779Q30.3486 10.9448 30.2203 11.0054Q30.0921 11.0661 29.961 11.1204Q29.8299 11.1747 29.6963 11.2225Q29.5628 11.2703 29.427 11.3115Q29.2912 11.3526 29.1536 11.3871Q29.016 11.4216 28.8768 11.4493Q28.7377 11.477 28.5974 11.4978Q28.457 11.5186 28.3158 11.5325Q28.1746 11.5464 28.0329 11.5534Q27.8912 11.5604 27.7494 11.5604L5.77903 11.5616Q5.63717 11.5617 5.49548 11.5547Q5.35379 11.5477 5.21261 11.5338Q5.07143 11.5199 4.9311 11.4991Q4.79077 11.4783 4.65164 11.4507Q4.5125 11.423 4.37489 11.3885Q4.23728 11.3541 4.10152 11.3129Q3.96577 11.2717 3.8322 11.2239Q3.69863 11.1761 3.56757 11.1219Q3.4365 11.0676 3.30826 11.0069Q3.18002 10.9463 3.0549 10.8794Q2.92979 10.8125 2.80811 10.7396Q2.68643 10.6667 2.56848 10.5879Q2.45052 10.509 2.33658 10.4245Q2.22263 10.34 2.11297 10.25Q2.00331 10.16 1.8982 10.0648Q1.79309 9.96951 1.69277 9.86919Q1.59246 9.76888 1.4972 9.66377Q1.40193 9.55866 1.31193 9.449Q1.22194 9.33934 1.13743 9.22539Q1.05293 9.11145 0.974115 8.99349Q0.895302 8.87554 0.822373 8.75386Q0.749444 8.63218 0.682574 8.50707Q0.615703 8.38195 0.555053 8.25371Q0.494403 8.12547 0.440118 7.9944Q0.385834 7.86334 0.338047 7.72977Q0.29026 7.5962 0.249084 7.46045Q0.207909 7.32469 0.173445 7.18708Q0.138981 7.04947 0.111311 6.91033Q0.0836409 6.7712 0.0628321 6.63087Q0.0420232 6.49054 0.0281254 6.34936Q0.0142276 6.20818 0.00727433 6.06649Q0.000321091 5.9248 0.000329172 5.78294L0.000329286 5.78094Q0.000337367 5.63907 0.00730632 5.49736Q0.0142753 5.35566 0.0281883 5.21447Q0.0421013 5.07329 0.0629249 4.93295Q0.0837485 4.79261 0.111433 4.65347Q0.139117 4.51432 0.173594 4.3767Q0.208072 4.23908 0.24926 4.10332Q0.290449 3.96755 0.338249 3.83398Q0.386049 3.7004 0.440345 3.56933Q0.494641 3.43825 0.555303 3.31Q0.615965 3.18175 0.682846 3.05663Q0.749727 2.93151 0.822667 2.80983Q0.895606 2.68814 0.974428 2.57018Q1.05325 2.45222 1.13777 2.33826Q1.22228 2.22431 1.31228 2.11464Q1.40229 2.00497 1.49757 1.89985Q1.59284 1.79473 1.69316 1.69441Q1.79348 1.59409 1.8986 1.49882Q2.00372 1.40354 2.11339 1.31354Q2.22306 1.22353 2.33701 1.13902Q2.45096 1.0545 2.56893 0.97568Q2.68689 0.896857 2.80858 0.823918Q2.93026 0.750978 3.05538 0.684097Q3.1805 0.617216 3.30875 0.556554Q3.437 0.495892 3.56807 0.441596Q3.69915 0.3873 3.83273 0.3395Q3.9663 0.2917 4.10207 0.250512Q4.23783 0.209323 4.37545 0.174846Q4.51307 0.140368 4.65221 0.112684Q4.79136 0.085 4.9317 0.0641764Q5.07203 0.0433527 5.21322 0.0294397Q5.35441 0.0155267 5.49611 0.00855773Q5.63782 0.00158878 5.77969 0.0015807L5.77969 0.0015807Z" transform="matrix(0.8660254 -0.5 0.5 0.8660254 117.36963 166.58502)" id="Rectangle" fill="#6C63FF" stroke="none" />
  </g>
</svg>