<?xml version="1.0" encoding="utf-8"?>
<svg width="46px" height="46px" viewbox="0 0 46 46" version="1.1" xmlns:xlink="http://www.w3.org/1999/xlink" xmlns="http://www.w3.org/2000/svg">
  <g id="Group-6">
    <path d="M23 46C35.7025 46 46 35.7025 46 23C46 10.2975 35.7025 0 23 0C10.2975 0 0 10.2975 0 23C0 35.7025 10.2975 46 23 46Z" id="Oval" fill="#0A008E" fill-opacity="0.1" fill-rule="evenodd" stroke="none" />
    <path d="M9.53709 19.5937L0.292202 10.6795C0.105303 10.5006 0 10.2559 0 10.0005C0 9.74505 0.105303 9.50034 0.292202 9.32147L9.53709 0.407314C10.1036 -0.135766 11.0116 -0.135766 11.5781 0.407314C11.848 0.666773 12 1.02102 12 1.39073C12 1.76042 11.848 2.11468 11.5781 2.37414L3.66916 10.0005L11.5781 17.6249C11.8478 17.8847 11.9997 18.239 11.9997 18.6088C11.9997 18.9786 11.8478 19.3329 11.5781 19.5927C11.0116 20.1358 10.1036 20.1358 9.53709 19.5927" transform="matrix(-1 0 0 1 30 13)" id="back_Arrow" fill="#0A008E" fill-rule="evenodd" stroke="none" />
  </g>
</svg>