<?xml version="1.0" encoding="utf-8"?>
<svg width="16px" height="20px" viewbox="0 0 16 20" version="1.1" xmlns:xlink="http://www.w3.org/1999/xlink" xmlns="http://www.w3.org/2000/svg">
  <g id="709593Datenschutz">
    <path d="M14.9514 3.83525L7.91527 0.0859452C7.69763 -0.0301776 7.43687 -0.0284682 7.22067 0.0901021L0.379332 3.8394C0.145377 3.96772 0 4.2131 0 4.47996L0 9.78746C0 13.9575 2.47482 17.7368 6.30594 19.4164L7.25544 19.8304C7.34845 19.871 7.44802 19.8912 7.54736 19.8912C7.64596 19.8912 7.74456 19.8713 7.83683 19.8313L8.90587 19.3697C12.8134 17.7161 15.3382 13.9168 15.3382 9.68983L15.3382 4.47973C15.3382 4.20995 15.1895 3.96213 14.9514 3.83525ZM13.8774 9.68983C13.8774 13.3298 11.7018 16.6015 8.33427 18.0253C8.33256 18.026 8.33085 18.0268 8.32914 18.0275L7.54883 18.3644L6.89122 18.0776C3.59231 16.6315 1.46076 13.3773 1.46076 9.78723L1.46076 4.91236L7.57681 1.56085L13.8774 4.91823L13.8774 9.68983L13.8774 9.68983Z" transform="translate(0.023193473 2.9959536E-05)" id="Fill" fill="#0A008E" fill-rule="evenodd" stroke="none" />
    <path d="M7.45678 0.26952C7.20235 -0.0433396 6.74198 -0.0908143 6.42912 0.163848L2.67294 3.21956L1.28568 1.59516C1.02395 1.2884 0.562606 1.25211 0.256079 1.51408C-0.0506809 1.77581 -0.0869668 2.23692 0.174999 2.54368L2.02531 4.71027C2.16968 4.87947 2.37469 4.96641 2.58114 4.96641C2.7433 4.96641 2.90639 4.91284 3.04151 4.80254L7.35107 1.29691C7.66424 1.04252 7.71144 0.582379 7.45678 0.26952Z" transform="translate(4.0160265 7.718048)" id="Path" fill="#0A008E" stroke="none" />
  </g>
</svg>