<?xml version="1.0" encoding="utf-8"?>
<svg width="20px" height="20px" viewbox="0 0 20 20" version="1.1" xmlns:xlink="http://www.w3.org/1999/xlink" xmlns="http://www.w3.org/2000/svg">
  <defs>
    <filter id="filter_1">
      <feColorMatrix in="SourceGraphic" type="matrix" values="0 0 0 0 0.039215688 0 0 0 0 0 0 0 0 0 0.5568628 0 0 0 1 0" />
    </filter>
  </defs>
  <g id="push-copy">
    <g id="Actions--Operations--renew--20" filter="url(#filter_1)">
      <path d="M5.62501 4.38379L2.36251 4.38379C4.02259 1.83249 7.1627 0.676502 10.0808 1.5424C12.9989 2.4083 15.0002 5.08994 15 8.13379L16.25 8.13379C16.2535 4.70911 14.1093 1.64992 10.8889 0.484954C7.66842 -0.680007 4.06327 0.299419 1.87501 2.93379L1.87501 0.633786L0.625009 0.633786L0.625009 5.63379L5.62501 5.63379L5.62501 4.38379ZM10.625 11.8838L13.8875 11.8838C12.2274 14.4351 9.08732 15.5911 6.16924 14.7252C3.25116 13.8593 1.24981 11.1776 1.25001 8.13379L8.67331e-06 8.13379C-0.00351727 11.5585 2.1407 14.6177 5.36115 15.7826C8.58159 16.9476 12.1867 15.9682 14.375 13.3338L14.375 15.6338L15.625 15.6338L15.625 10.6338L10.625 10.6338L10.625 11.8838Z" transform="translate(1.8749913 1.8662143)" id="Fill" fill="#0A008E" fill-rule="evenodd" stroke="none"/>
    </g>
  </g>
</svg>