<?xml version="1.0" encoding="utf-8"?>
<svg width="20px" height="20px" viewbox="0 0 20 20" version="1.1" xmlns:xlink="http://www.w3.org/1999/xlink" xmlns="http://www.w3.org/2000/svg">
  <path d="M13.125 18.125L3.125 18.125C2.43464 18.125 1.875 17.5654 1.875 16.875L1.875 3.125C1.875 2.43464 2.43464 1.875 3.125 1.875L13.125 1.875L13.125 3.125L3.125 3.125L3.125 16.875L13.125 16.875L13.125 18.125ZM9.375 5.625L10.625 5.625L10.625 14.375L9.375 14.375L9.375 5.625ZM16.875 5.625L18.125 5.625L18.125 14.375L16.875 14.375L16.875 5.625ZM13.125 5.625L14.375 5.625L14.375 14.375L13.125 14.375L13.125 5.625Z" id="Fill" fill="#0A008E" fill-rule="evenodd" stroke="none" />
</svg>