<?xml version="1.0" encoding="utf-8"?>
<svg width="20px" height="20px" viewbox="0 0 20 20" version="1.1" xmlns:xlink="http://www.w3.org/1999/xlink" xmlns="http://www.w3.org/2000/svg">
  <g id="Actions--Operations--search--20">
    <path d="M16.8871 16.0058L12.1683 11.2621C14.5117 8.43468 14.2193 4.26483 11.5043 1.79214C8.78928 -0.680558 4.61032 -0.583019 2.01365 2.01365C-0.583019 4.61032 -0.680558 8.78928 1.79214 11.5043C4.26483 14.2193 8.43468 14.5117 11.2621 12.1683L16.0058 16.8871L16.8871 16.0058ZM1.26208 6.88708C1.26208 3.78048 3.78048 1.26208 6.88708 1.26208C9.99368 1.26208 12.5121 3.78048 12.5121 6.88708C12.5121 9.99368 9.99368 12.5121 6.88708 12.5121C3.78048 12.5121 1.26208 9.99368 1.26208 6.88708Z" transform="translate(1.8629193 1.8629193)" id="Fill" fill="#000000" fill-rule="evenodd" stroke="none" />
  </g>
</svg>