<?xml version="1.0" encoding="utf-8"?>
<svg width="20px" height="20px" viewbox="0 0 20 20" version="1.1" xmlns:xlink="http://www.w3.org/1999/xlink" xmlns="http://www.w3.org/2000/svg">
  <path d="M16.875 10.475L16.875 9.51875L18.075 8.46875C18.5317 8.06621 18.632 7.3932 18.3125 6.875L16.8375 4.375C16.6144 3.98865 16.2024 3.75046 15.7563 3.75C15.6204 3.74896 15.4853 3.77007 15.3562 3.8125L13.8375 4.325C13.5753 4.15075 13.3018 3.99416 13.0188 3.85625L12.7 2.28125C12.582 1.68736 12.0554 1.2634 11.45 1.275L8.525 1.275C7.91962 1.2634 7.39296 1.68736 7.275 2.28125L6.95625 3.85625C6.67121 3.99412 6.39561 4.15072 6.13125 4.325L4.64375 3.7875C4.51331 3.75351 4.37823 3.74085 4.24375 3.75C3.79763 3.75046 3.38556 3.98865 3.1625 4.375L1.6875 6.875C1.38663 7.39188 1.49404 8.04947 1.94375 8.44375L3.125 9.525L3.125 10.4812L1.94375 11.5313C1.48078 11.9287 1.37247 12.6024 1.6875 13.125L3.1625 15.625C3.38556 16.0114 3.79763 16.2495 4.24375 16.25C4.37959 16.251 4.5147 16.2299 4.64375 16.1875L6.1625 15.675C6.42471 15.8492 6.69823 16.0058 6.98125 16.1437L7.3 17.7187C7.41796 18.3126 7.94462 18.7366 8.55 18.725L11.5 18.725C12.1054 18.7366 12.632 18.3126 12.75 17.7187L13.0688 16.1437C13.3538 16.0059 13.6294 15.8493 13.8938 15.675L15.4063 16.1875C15.5353 16.2299 15.6704 16.251 15.8063 16.25C16.2524 16.2495 16.6644 16.0114 16.8875 15.625L18.3125 13.125C18.6134 12.6081 18.506 11.9505 18.0562 11.5562L16.875 10.475ZM15.7562 15L13.6125 14.275C13.1107 14.7001 12.5371 15.0323 11.9187 15.2563L11.475 17.5L8.525 17.5L8.08125 15.2813C7.46776 15.051 6.89732 14.7193 6.39375 14.3L4.24375 15L2.76875 12.5L4.46875 11C4.35319 10.353 4.35319 9.69071 4.46875 9.04375L2.76875 7.5L4.24375 5L6.3875 5.725C6.88933 5.29993 7.46288 4.96766 8.08125 4.74375L8.525 2.5L11.475 2.5L11.9187 4.71875C12.5322 4.94901 13.1027 5.28071 13.6062 5.7L15.7562 5L17.2312 7.5L15.5312 9C15.6468 9.64696 15.6468 10.3093 15.5312 10.9563L17.2312 12.5L15.7562 15ZM10 13.75C7.92893 13.75 6.25 12.0711 6.25 10C6.25 7.92893 7.92893 6.25 10 6.25C12.0711 6.25 13.75 7.92893 13.75 10C13.7601 10.9976 13.3683 11.9574 12.6628 12.6628C11.9574 13.3683 10.9976 13.7601 10 13.75ZM10 7.5C9.33231 7.48445 8.68735 7.74284 8.2151 8.2151C7.74284 8.68735 7.48445 9.33231 7.5 10C7.48445 10.6677 7.74284 11.3127 8.2151 11.7849C8.68735 12.2572 9.33231 12.5156 10 12.5C10.6677 12.5156 11.3127 12.2572 11.7849 11.7849C12.2572 11.3127 12.5156 10.6677 12.5 10C12.5156 9.33231 12.2572 8.68735 11.7849 8.2151C11.3127 7.74284 10.6677 7.48445 10 7.5Z" id="Fill" fill="#0A008E" fill-rule="evenodd" stroke="none" />
</svg>