<?xml version="1.0" encoding="utf-8"?>
<svg width="48px" height="48px" viewbox="0 0 48 48" version="1.1" xmlns:xlink="http://www.w3.org/1999/xlink" xmlns="http://www.w3.org/2000/svg">
  <g id="Group-3">
    <g id="Group-10">
      <path d="M23.999 0L24.001 0Q24.5901 0 25.1786 0.0289078Q25.767 0.0578157 26.3533 0.115562Q26.9396 0.173308 27.5224 0.259753Q28.1051 0.346198 28.683 0.461134Q29.2608 0.57607 29.8323 0.71922Q30.4038 0.86237 30.9675 1.03339Q31.5313 1.20441 32.086 1.40288Q32.6407 1.60136 33.185 1.82681Q33.7293 2.05227 34.2619 2.30416Q34.7945 2.55605 35.314 2.83377Q35.8336 3.11149 36.3389 3.41437Q36.8443 3.71725 37.3341 4.04456Q37.824 4.37187 38.2972 4.72282Q38.7704 5.07377 39.2258 5.44752Q39.6812 5.82127 40.1177 6.21691Q40.5543 6.61256 40.9708 7.02914Q41.3874 7.44573 41.7831 7.88226Q42.1787 8.31878 42.5525 8.77419Q42.9262 9.22961 43.2772 9.70281Q43.6281 10.176 43.9554 10.6659Q44.2827 11.1557 44.5856 11.661Q44.8885 12.1664 45.1662 12.6859Q45.4439 13.2055 45.6958 13.7381Q45.9477 14.2707 46.1732 14.815Q46.3986 15.3593 46.5971 15.914Q46.7956 16.4687 46.9666 17.0325Q47.1376 17.5962 47.2808 18.1677Q47.4239 18.7392 47.5389 19.317Q47.6538 19.8948 47.7402 20.4776Q47.8267 21.0604 47.8844 21.6467Q47.9422 22.233 47.9711 22.8214Q48 23.4099 48 23.999L48 24.001Q48 24.5901 47.9711 25.1786Q47.9422 25.767 47.8844 26.3533Q47.8267 26.9396 47.7402 27.5224Q47.6538 28.1051 47.5389 28.683Q47.4239 29.2608 47.2808 29.8323Q47.1376 30.4038 46.9666 30.9675Q46.7956 31.5313 46.5971 32.086Q46.3986 32.6407 46.1732 33.185Q45.9477 33.7293 45.6958 34.2619Q45.4439 34.7945 45.1662 35.314Q44.8885 35.8336 44.5856 36.3389Q44.2827 36.8443 43.9554 37.3341Q43.6281 37.824 43.2772 38.2972Q42.9262 38.7704 42.5525 39.2258Q42.1787 39.6812 41.7831 40.1177Q41.3874 40.5543 40.9708 40.9708Q40.5543 41.3874 40.1177 41.7831Q39.6812 42.1787 39.2258 42.5525Q38.7704 42.9262 38.2972 43.2772Q37.824 43.6281 37.3341 43.9554Q36.8443 44.2827 36.3389 44.5856Q35.8336 44.8885 35.314 45.1662Q34.7945 45.4439 34.2619 45.6958Q33.7293 45.9477 33.185 46.1732Q32.6407 46.3986 32.086 46.5971Q31.5313 46.7956 30.9675 46.9666Q30.4038 47.1376 29.8323 47.2808Q29.2608 47.4239 28.683 47.5389Q28.1051 47.6538 27.5224 47.7402Q26.9396 47.8267 26.3533 47.8844Q25.767 47.9422 25.1786 47.9711Q24.5901 48 24.001 48L23.999 48Q23.4099 48 22.8214 47.9711Q22.233 47.9422 21.6467 47.8844Q21.0604 47.8267 20.4776 47.7402Q19.8948 47.6538 19.317 47.5389Q18.7392 47.4239 18.1677 47.2808Q17.5962 47.1376 17.0325 46.9666Q16.4687 46.7956 15.914 46.5971Q15.3593 46.3986 14.815 46.1732Q14.2707 45.9477 13.7381 45.6958Q13.2055 45.4439 12.6859 45.1662Q12.1664 44.8885 11.661 44.5856Q11.1557 44.2827 10.6659 43.9554Q10.176 43.6281 9.70281 43.2772Q9.22961 42.9262 8.77419 42.5525Q8.31878 42.1787 7.88226 41.7831Q7.44573 41.3874 7.02914 40.9708Q6.61256 40.5543 6.21691 40.1177Q5.82127 39.6812 5.44752 39.2258Q5.07377 38.7704 4.72282 38.2972Q4.37187 37.824 4.04456 37.3341Q3.71725 36.8443 3.41437 36.3389Q3.11149 35.8336 2.83377 35.314Q2.55605 34.7945 2.30416 34.2619Q2.05227 33.7293 1.82681 33.185Q1.60136 32.6407 1.40288 32.086Q1.20441 31.5313 1.03339 30.9675Q0.86237 30.4038 0.71922 29.8323Q0.57607 29.2608 0.461134 28.683Q0.346198 28.1051 0.259753 27.5224Q0.173308 26.9396 0.115562 26.3533Q0.0578157 25.767 0.0289078 25.1786Q0 24.5901 0 24.001L0 23.999Q0 23.4099 0.0289078 22.8214Q0.0578157 22.233 0.115562 21.6467Q0.173308 21.0604 0.259753 20.4776Q0.346198 19.8948 0.461134 19.317Q0.57607 18.7392 0.71922 18.1677Q0.86237 17.5962 1.03339 17.0325Q1.20441 16.4687 1.40288 15.914Q1.60136 15.3593 1.82681 14.815Q2.05227 14.2707 2.30416 13.7381Q2.55605 13.2055 2.83377 12.6859Q3.11149 12.1664 3.41437 11.661Q3.71725 11.1557 4.04456 10.6659Q4.37187 10.176 4.72282 9.70281Q5.07377 9.22961 5.44752 8.77419Q5.82127 8.31878 6.21691 7.88226Q6.61256 7.44573 7.02914 7.02914Q7.44573 6.61256 7.88226 6.21691Q8.31878 5.82127 8.77419 5.44752Q9.22961 5.07377 9.70281 4.72282Q10.176 4.37187 10.6659 4.04456Q11.1557 3.71725 11.661 3.41437Q12.1664 3.11149 12.6859 2.83377Q13.2055 2.55605 13.7381 2.30416Q14.2707 2.05227 14.815 1.82681Q15.3593 1.60136 15.914 1.40288Q16.4687 1.20441 17.0325 1.03339Q17.5962 0.86237 18.1677 0.71922Q18.7392 0.57607 19.317 0.461134Q19.8948 0.346198 20.4776 0.259753Q21.0604 0.173308 21.6467 0.115562Q22.233 0.0578157 22.8214 0.0289078Q23.4099 0 23.999 0Z" id="background" fill="#DA1E28" fill-opacity="0.049999997" fill-rule="evenodd" stroke="none" />
      <g id="Actions--Formatting--trash-can--20" transform="translate(14 14)">
        <path d="M7.5 7.8125L8.75 7.8125L8.75 15.625L7.5 15.625L7.5 7.8125ZM11.25 7.8125L12.5 7.8125L12.5 15.625L11.25 15.625L11.25 7.8125ZM2.5 3.90625L2.5 5.20833L3.75 5.20833L3.75 18.2292C3.75 18.9483 4.30964 19.5313 5 19.5313L15 19.5313C15.6904 19.5313 16.25 18.9483 16.25 18.2292L16.25 5.20833L17.5 5.20833L17.5 3.90625L2.5 3.90625ZM5 18.2292L5 5.20833L15 5.20833L15 18.2292L5 18.2292ZM7.5 1.30208L12.5 1.30208L12.5 2.60417L7.5 2.60417L7.5 1.30208Z" transform="matrix(1 0 0 1 0 -2.2737368E-13)" id="Fill" fill="#DA1E28" fill-rule="evenodd" stroke="none" />
      </g>
    </g>
  </g>
</svg>