<?xml version="1.0" encoding="utf-8"?>
<svg width="20px" height="20px" viewbox="0 0 20 20" version="1.1" xmlns:xlink="http://www.w3.org/1999/xlink" xmlns="http://www.w3.org/2000/svg">
  <path d="M13.75 10.625L15 10.625L15 11.875L13.75 11.875L13.75 10.625ZM17.5 5L2.5 5L2.5 3.125L16.25 3.125L16.25 1.875L2.5 1.875C1.80964 1.875 1.25 2.43464 1.25 3.125L1.25 16.25C1.25 16.9404 1.80964 17.5 2.5 17.5L17.5 17.5C18.1904 17.5 18.75 16.9404 18.75 16.25L18.75 6.25C18.75 5.55964 18.1904 5 17.5 5ZM2.5 16.25L2.5 6.25L17.5 6.25L17.5 8.125L12.5 8.125C11.8096 8.125 11.25 8.68464 11.25 9.375L11.25 13.125C11.25 13.8154 11.8096 14.375 12.5 14.375L17.5 14.375L17.5 16.25L2.5 16.25ZM17.5 9.375L17.5 13.125L12.5 13.125L12.5 9.375L17.5 9.375Z" id="Fill" fill="#0A008E" fill-rule="evenodd" stroke="none" />
</svg>