<svg id="Layer_1" data-name="Layer 1" xmlns="http://www.w3.org/2000/svg" viewBox="0 0 876.78 217.62"><circle cx="60.79" cy="188.05" r="21.62" style="fill:#fff;stroke:#231f20;stroke-miterlimit:10;stroke-width:0px"/><path d="M60.79,159.89a28.17,28.17,0,1,1-28.15,28.16,28.44,28.44,0,0,1,28.15-28.16V173a15.08,15.08,0,1,0,15.09,15.07A15.2,15.2,0,0,0,60.79,173Z" style="fill:#2061cc"/><path d="M194.2,166.43a21.62,21.62,0,1,1-21.62,21.62A21.6,21.6,0,0,1,194.2,166.43Z" style="fill:#fff;stroke:#231f20;stroke-miterlimit:10;stroke-width:0px"/><path d="M194.2,159.89A28.17,28.17,0,1,1,166,188.05a28.42,28.42,0,0,1,28.17-28.16V173a15.08,15.08,0,1,0,15.07,15.07A15.22,15.22,0,0,0,194.2,173Z" style="fill:#2061cc"/><path d="M111.7,185.41c-6.3,0-10.71-1-12.63-7.56-4.76-10.39-10.24-26.21-38.37-26.21A40.71,40.71,0,0,0,23,175.14s-2.62,10.06-8.38,10.06H7.24c-2.46.08-4.16-.56-4.32-3.33v-37c0-3.7,2.3-7.69,8-7.63H238.57c5.76-.06,8,3.93,8.06,7.63v37c-.16,2.77-1.88,3.41-4.32,3.33h-5.17c-5.88.41-7.23-10.06-7.23-10.06s-7.26-23.5-35.37-23.5-33.62,15.82-38.37,26.21c-1.95,6.51-6.36,7.56-12.63,7.56Z" style="fill:#2061cc"/><path d="M238.92,15.42H8.35c-3.39,0-6.77,1.73-6.79,6.66v92.26c-.06,4.07,2.75,6.25,6.23,6.37H238.13c4.89,0,7.07-2.37,7.09-7v-91C245.22,18.77,242.35,15.42,238.92,15.42Z" style="fill:#2061cc"/><path d="M364.92,155.6a25.87,25.87,0,1,1-25.86,25.85A25.86,25.86,0,0,1,364.92,155.6Z" style="fill:#fff;stroke:#231f20;stroke-miterlimit:10;stroke-width:0px"/><path d="M364.92,147.56A33.91,33.91,0,1,1,331,181.45a34.21,34.21,0,0,1,33.91-33.89v16.1a17.81,17.81,0,1,0,17.82,17.79,18,18,0,0,0-17.82-17.79Z" style="fill:#2061cc"/><path d="M446.69,155.6a25.87,25.87,0,1,1-25.86,25.85A25.86,25.86,0,0,1,446.69,155.6Z" style="fill:#fff;stroke:#231f20;stroke-miterlimit:10;stroke-width:0px"/><path d="M446.69,147.56a33.91,33.91,0,1,1-33.91,33.89,34.24,34.24,0,0,1,33.91-33.89v16.1a17.81,17.81,0,1,0,17.82,17.79,18,18,0,0,0-17.82-17.79Z" style="fill:#2061cc"/><path d="M802.22,155.6a25.87,25.87,0,1,1-25.86,25.85A25.86,25.86,0,0,1,802.22,155.6Z" style="fill:#fff;stroke:#231f20;stroke-miterlimit:10;stroke-width:0px"/><path d="M802.22,147.56a33.91,33.91,0,1,1-33.92,33.89,34.23,34.23,0,0,1,33.92-33.89v16.1A17.81,17.81,0,1,0,820,181.45a18,18,0,0,0-17.82-17.79Z" style="fill:#2061cc"/><path d="M282.76,3.42c-5.86,0-8.34,3.45-8.32,7.74V173.53c.08,6.32,4.67,8,7.61,8.18.29,0,22.69,0,24.86,0,5.33,0,6.79-1.7,7.84-7.82,1.88-12.63,16.06-41.63,51.34-41,11.78.21,80.68,0,80.68,0,44.23.63,50.27,36,50.37,36.13,1.48,6.12,3,12.69,9.09,12.69H742.39c7.08.06,5.58-6.23,10.41-15.76,6.27-13.26,20.69-33.38,50.21-33.38,34.8,0,46.73,30.1,51.75,40.13,1,2,3.07,5.33,10.32,5.29,3.56,0,5.52.12,7.5-2.71s1.82-63.4-3.35-72.59c-2.29-3.74-6.31-4.75-10.19-5.6-4.89-1.29-8.38-1.32-8.34-8.61l-8-61.79c0-2.87,6.89-2.52,9.18-3.88,3.43-1.85,6-3.75,5-8.18-1.42-5-6.65-10.85-19.24-11.21C833,3.31,282.76,3.42,282.76,3.42Z" style="fill:#2061cc"/><path d="M301.05,22.47c-6.55.14-8.55,4.14-8.59,11.21V94.9c-.14,4.55,1.7,7.5,6.16,7.44h73.71c7.92-.12,5.74-7.88,5.74-7.88-.55-4.45-9.29-62.74-9.29-62.74-.93-6.81-3.62-9.11-8.53-9.25Z" style="fill:#fff"/><path d="M577.21,22.47c-8.24,0-9.87,5-8.36,12.83l8.61,58.39c.52,4.71,2.93,8.69,7.37,8.65h61.08c5.22,0,8.67-3.25,7.26-11.13L643,32.59c-1.23-7.94-3.31-10.1-9.79-10.12Z" style="fill:#fff"/><path d="M392.92,22.47c-8.24,0-9.86,5-8.36,12.83l8.62,58.39c.51,4.71,2.93,8.69,7.36,8.65h61.08c5.23,0,8.67-3.25,7.27-11.13l-10.2-58.62c-1.23-7.94-3.31-10.1-9.78-10.12Z" style="fill:#fff"/><path d="M669.15,22.47c-8.24,0-9.86,5-8.36,12.83l8.64,58.39c.51,4.71,2.91,8.69,7.34,8.65h61.08c5.23,0,8.67-3.25,7.27-11.13l-10.2-58.62c-1.21-7.94-3.28-10.1-9.76-10.12Z" style="fill:#fff"/><path d="M484.86,22.47c-8.23,0-9.85,5-8.35,12.83l8.63,58.39c.52,4.71,2.91,8.69,7.35,8.65h61.08c5.24,0,8.67-3.25,7.26-11.13l-10.2-58.62c-1.2-7.94-3.28-10.1-9.76-10.12Z" style="fill:#fff"/><path d="M761.11,22.47c-8.23,0-9.87,5-8.37,12.83l8.63,58.39c.52,4.71,2.91,8.69,7.37,8.65H829.8c5.24,0,8.67-3.25,7.28-11.13L826.87,32.59c-1.21-7.94-3.29-10.1-9.76-10.12Z" style="fill:#fff"/></svg>