<svg id="Layer_1" data-name="Layer 1" xmlns="http://www.w3.org/2000/svg" viewBox="0 0 657.87 197.52"><path d="M64.75,160.21a14.94,14.94,0,1,1-15,14.95A14.95,14.95,0,0,1,64.75,160.21Z" style="fill:#fff;stroke:#231f20;stroke-miterlimit:10;stroke-width:0px"/><path d="M64.75,154.23a20.92,20.92,0,1,1-20.91,20.93,21.13,21.13,0,0,1,20.91-20.93v12a9,9,0,1,0,9,9,9.05,9.05,0,0,0-9-9Z" style="fill:#2061cc"/><path d="M116.49,160.21a14.94,14.94,0,1,1-14.95,14.95A14.94,14.94,0,0,1,116.49,160.21Z" style="fill:#fff;stroke:#231f20;stroke-miterlimit:10;stroke-width:0px"/><path d="M116.49,154.23a20.92,20.92,0,1,1-20.93,20.93,21.12,21.12,0,0,1,20.93-20.93v12a9,9,0,1,0,8.94,9,9.05,9.05,0,0,0-8.94-9Z" style="fill:#2061cc"/><path d="M363.47,160.21a14.94,14.94,0,1,1-15,14.95A14.93,14.93,0,0,1,363.47,160.21Z" style="fill:#fff;stroke:#231f20;stroke-miterlimit:10;stroke-width:0px"/><path d="M363.47,154.23a20.92,20.92,0,1,1-20.92,20.93,21.11,21.11,0,0,1,20.92-20.93v12a9,9,0,1,0,9,9,9,9,0,0,0-9-9Z" style="fill:#2061cc"/><path d="M417.48,160.21a14.94,14.94,0,1,1-14.92,14.95A14.95,14.95,0,0,1,417.48,160.21Z" style="fill:#fff;stroke:#231f20;stroke-miterlimit:10;stroke-width:0px"/><path d="M417.48,154.23a20.92,20.92,0,1,1-20.9,20.93,21.12,21.12,0,0,1,20.9-20.93v12a9,9,0,1,0,9,9,9,9,0,0,0-9-9Z" style="fill:#2061cc"/><path d="M471.28,145h98c5.86.2,5.33,8.6,5.61,14.06.13,1.86.25,3.56,4.65,3.39,0,0,4.57-.18,6.69.81,1.8.75-1.11,6.93-1.15,9.46v.4c.87,6.49,2.55,13.58,8.34,17.83,4.31,4.21,10.05,5.17,16,5.17a40.88,40.88,0,0,0,10.2-1.26c9.05-1.63,15.66-11.37,17.09-19.41,1.44-2.57,4.31-3.32,7.32-3.88,3.17-.71,10-.43,9.84-4.59,3.11.08,4.54-62.49,0-62.49,0,0-15.84-51.92-16.55-53.79-3.74-8.75-4.49-11.14-14.39-11.14H533.05c-6.53,0-8.18,4.59-9.76,6.85,0,0-5.31,10.33-7,13.5V8c.08-3.78-1.15-6.28-6.22-6.28H8.8C3.22,1.76,1.42,4,1.46,9.52v100.1c0,6.91,2.27,8.77,8,8.79h489c2.6,0,2.95,4.68,2.95,7.17s-.2,7.46-2.95,7.48H324.16c-4.48.13-6.3,2.1-6.32,4.91v26.14a7.27,7.27,0,0,0,3.3,6.61,9.38,9.38,0,0,0,2.87.44,5.39,5.39,0,0,0,4.46-1.9c.85-1.27,9-26.69,35.12-26.69h54c26.16,0,34.29,25.42,35.14,26.69a5.41,5.41,0,0,0,4.46,1.9,9.38,9.38,0,0,0,2.87-.44,7.26,7.26,0,0,0,3.31-6.61C463.4,157.22,464.39,145,471.28,145Z" style="fill:#2061cc"/><path d="M566.67,48.92H538.36c-2.28,0-2.54,2-2.54,2.87v6.79c0,1.73,1.51,2.06,2.69,2.06H567.4c1.37,0,2.28-.29,2.3-2.42V51.4C569.68,49,568.63,48.92,566.67,48.92Z" style="fill:#fff"/><path d="M523.87,155.2a29.94,29.94,0,0,0-14.38,4.32,4,4,0,0,1-2.3.87c-1.28,0-2.43-.87-3.58-1.59a7.05,7.05,0,0,0-3.88-1.58,4.93,4.93,0,0,0-1.45.16c-3,0-3.72,3-3.72,5.15,0,0,0,4.15-.16,6.17-.27,4-.57,7.76,2.46,10.22a5.76,5.76,0,0,0,2.43.71c1.73,0,3-1.15,4.46-2.14,1.58-1.19,3-2.35,5.17-2.33,3.14,0,6.19,5.2,19.4,5.9,2.73.13,30.35.41,34.49-1.23,5.5-2.2,5.68-4.81,5.94-11.8,0-3.05.18-9.34-5.61-11.27S524.87,155.18,523.87,155.2Z" style="fill:#2061cc"/><path d="M566.87,69h-28.3c-2.29,0-2.53,2-2.53,2.87v58.86c0,1.72,1.49,2,2.67,2H567.6c1.38,0,2.27-.3,2.29-2.41V71.43C569.87,69,568.82,69,566.87,69Z" style="fill:#fff"/><path d="M70.29,142.57C35.51,142.57,36,168,35.15,169.26a5.38,5.38,0,0,1-4.45,1.9,9.38,9.38,0,0,1-2.87-.44,7.26,7.26,0,0,1-3.31-6.61V138c0-2.81,1.86-4.78,6.32-4.91H150.66c4.45.13,6.27,2.1,6.31,4.91v26.14a7.27,7.27,0,0,1-3.3,6.61,9.38,9.38,0,0,1-2.87.44,5.39,5.39,0,0,1-4.46-1.9c-.85-1.27.4-26.69-35.14-26.69Z" style="fill:#2061cc"/><path d="M611.41,158.61a14.94,14.94,0,1,1-14.94,14.92A14.94,14.94,0,0,1,611.41,158.61Z" style="fill:#fff;stroke:#231f20;stroke-miterlimit:10;stroke-width:0px"/><path d="M611.41,155.73a17.81,17.81,0,1,1-17.81,17.8,18,18,0,0,1,17.81-17.8v5.75a12.07,12.07,0,1,0,12.06,12.05,12.18,12.18,0,0,0-12.06-12.05Z" style="fill:#2061cc"/><path d="M622.42,48.92H591.83c-2.75,0-4,2.08-4.1,4.69,0,.85,0,43.52,0,43.52,0,3.76,2,4.2,4.86,4.18h37.47c5.19,0,12.24,1,10.28-5.74l-13-43.36A5.57,5.57,0,0,0,622.42,48.92Z" style="fill:#fff"/></svg>