<svg id="Layer_1" data-name="Layer 1" xmlns="http://www.w3.org/2000/svg" viewBox="0 0 413.06 223.81"><path d="M340.88,153.14c15.45,0,30.45,13.64,30.45,30.47a30.45,30.45,0,1,1-30.45-30.47Z" style="fill:#fff;stroke:#231f20;stroke-miterlimit:10;stroke-width:0px"/><path d="M340.88,144c21.13,0,39.66,18.55,39.66,39.66,0,21.6-18.06,39.63-39.66,39.63a39.65,39.65,0,1,1,0-79.29v18.4a21.26,21.26,0,1,0,21.26,21.26c0-11.09-10.15-21.26-21.26-21.26Z" style="fill:#2061cc"/><path d="M92.29,153.14a30.46,30.46,0,1,1-30.45,30.47A30.47,30.47,0,0,1,92.29,153.14Z" style="fill:#fff;stroke:#231f20;stroke-miterlimit:10;stroke-width:0px"/><path d="M92.29,144a39.65,39.65,0,1,1-39.64,39.66A40,40,0,0,1,92.29,144v18.4a21.26,21.26,0,1,0,21.26,21.26,21.47,21.47,0,0,0-21.26-21.26Z" style="fill:#2061cc"/><path d="M9.83,1.8C4,1.8,1.47,5.22,1.51,9.54V171.91c.08,6.31,4.65,8,7.58,8.18.3,0,22.72,0,24.87,0,5.33,0,6.79-1.71,7.84-7.85,1.9-12.63,16.08-41.61,51.36-41,41.18.74,49.3,36,49.44,36.13,1.48,6.12,3,12.7,9.08,12.7H280.24c7.08.06,5.58-6.24,10.41-15.79C296.93,151,311.34,131,340.86,131c34.79,0,46.73,27.77,51.76,37.83,1,2,3.06,5.3,10.31,5.27,3.56,0,5.5.12,7.51-2.69s1.82-61.11-3.35-70.29c-2.3-3.74-6.32-4.75-10.2-5.6-4.89-1.29-8.37-1.33-8.33-8.62L380.5,25.06c0-2.87,6.89-2.51,9.2-3.88,3.43-1.86,6-3.74,5-8.18-1.42-4.95-6.65-10.85-19.24-11.2C370.88,1.68,9.83,1.8,9.83,1.8Z" style="fill:#2061cc"/><path d="M23.63,20.61c-6.58.16-8.55,4.13-8.62,11.2V93c-.13,4.55,1.73,7.5,6.18,7.46H94.9c7.9-.13,5.74-7.89,5.74-7.89-.57-4.46-9.3-62.75-9.3-62.75-.93-6.79-3.6-9.08-8.53-9.24Z" style="fill:#fff"/><path d="M116.64,20.61c-8.24,0-9.86,5-8.37,12.83l8.63,58.38c.51,4.73,2.91,8.71,7.36,8.67h61.06c5.25,0,8.68-3.26,7.29-11.14L182.39,30.72c-1.21-7.94-3.28-10.09-9.76-10.11Z" style="fill:#fff"/><path d="M208.59,20.61c-8.24,0-9.86,5-8.36,12.83l8.61,58.38c.52,4.73,2.91,8.71,7.37,8.67h61.08c5.23,0,8.67-3.26,7.27-11.14l-10.2-58.63c-1.23-7.94-3.31-10.09-9.78-10.11Z" style="fill:#fff"/><path d="M300.53,20.61c-8.23,0-9.86,5-8.36,12.83l8.62,58.38c.51,4.73,2.93,8.71,7.36,8.67h61.08c5.23,0,8.67-3.26,7.27-11.14L366.3,30.72c-1.22-7.94-3.3-10.09-9.76-10.11Z" style="fill:#fff"/></svg>