<svg id="Layer_1" data-name="Layer 1" xmlns="http://www.w3.org/2000/svg" viewBox="0 0 372.4 184.6"><path d="M315.7,119.9c13.71,0,27,12.1,27,27a27,27,0,1,1-27-27Z" style="fill:#fff;stroke:#231f20;stroke-miterlimit:10;stroke-width:0px"/><path d="M315.7,111.87c18.7,0,35.07,16.39,35.07,35.06a35.06,35.06,0,1,1-35.07-35.06V128a19,19,0,1,0,19,19c0-9.9-9-19-19-19Z" style="fill:#2061cc"/><path d="M75.29,119.9a27,27,0,1,1-27,27A27,27,0,0,1,75.29,119.9Z" style="fill:#fff;stroke:#231f20;stroke-miterlimit:10;stroke-width:0px"/><path d="M75.29,111.87a35.05,35.05,0,1,1-35.06,35.06,35.4,35.4,0,0,1,35.06-35.06V128a19,19,0,1,0,19,19,19.14,19.14,0,0,0-19-19Z" style="fill:#2061cc"/><path d="M266,2.83c2.16,0,4,1.82,5.05,3.73l32.17,59.69a5.65,5.65,0,0,0,5,3h56.55a6,6,0,0,1,5.72,6.08v59.77a6,6,0,0,1-6.06,5.72h-2.77c-1-5.9-10.24-36.25-40.57-39.83-43-1.93-49.85,34.66-50.41,40.21H119.5c-.81-3.82-.87-5.74-2.53-11-5.87-19.18-25.15-28.63-44.18-27.88C56.4,102.9,40.66,112.2,34.23,131L33.79,132l-.2,1.09a81.47,81.47,0,0,0-1,8.12H8.47a5.75,5.75,0,0,1-5.74-5.76V8.58A5.77,5.77,0,0,1,8.49,2.83Z" style="fill:#2061cc"/><path d="M175.85,15.7a5.76,5.76,0,0,0-5.72,5.77V64.25A5.74,5.74,0,0,0,175.89,70h104A5.74,5.74,0,0,0,285,61.6L262.55,18.48a5.39,5.39,0,0,0-5.13-2.78Z" style="fill:#fff"/></svg>