<svg id="Layer_1" data-name="Layer 1" xmlns="http://www.w3.org/2000/svg" viewBox="0 0 468.7 194.77"><path d="M55,156.09a16.09,16.09,0,1,1-16.1,16.1A16.09,16.09,0,0,1,55,156.09Z" style="fill:#fff;stroke:#231f20;stroke-miterlimit:10;stroke-width:0px"/><path d="M55,150.33a21.85,21.85,0,1,1-21.84,21.86A22.05,22.05,0,0,1,55,150.33v11.5a10.35,10.35,0,1,0,10.35,10.36A10.44,10.44,0,0,0,55,161.83Z" style="fill:#2061cc"/><path d="M109.52,156.09a16.09,16.09,0,1,1-16.09,16.1A16.1,16.1,0,0,1,109.52,156.09Z" style="fill:#fff;stroke:#231f20;stroke-miterlimit:10;stroke-width:0px"/><path d="M109.52,150.33a21.85,21.85,0,1,1-21.83,21.86,22.05,22.05,0,0,1,21.83-21.86v11.5a10.35,10.35,0,1,0,10.36,10.36,10.43,10.43,0,0,0-10.36-10.36Z" style="fill:#2061cc"/><path d="M411.67,153.67a17.24,17.24,0,1,1-17.24,17.25A17.26,17.26,0,0,1,411.67,153.67Z" style="fill:#fff;stroke:#231f20;stroke-miterlimit:10;stroke-width:0px"/><path d="M411.67,147.93a23,23,0,1,1-23,23,23.21,23.21,0,0,1,23-23v11.49a11.49,11.49,0,1,0,11.48,11.5,11.59,11.59,0,0,0-11.48-11.5Z" style="fill:#2061cc"/><path d="M380.11,1.92c-5.9,0-8.63,2.51-8.77,8.12V117c-.26,6.12-4,6.45-8.91,6.45H7c-4.73.08-6.44,3.86-6.58,7.17v31.56c-.08,4.2.42,5.47,4.75,5.5h7.75c2.59,0,5,.16,6.47-2.13,3.88-8.48,5.58-13.62,12.49-18.81,10.91-8.24,26.47-10.2,49.28-10.2s41.08,3.09,47.48,6c10.31,4.73,14.18,11.94,15.24,19.5a5.05,5.05,0,0,0,4.95,5.21h8.64c3.79,0,4.73-2.44,8.31-5.74a35.48,35.48,0,0,1,7.62-5.61c5.88-2.47,12.22-2.29,18.67-2.29,0,0,169.36-.14,171.22,0,2.87-.08,4.79,2.73,6.08,4.59a25.52,25.52,0,0,0,2.16,2.73,5.46,5.46,0,0,0,3.45,1.59c2.51.11,3.7-3.55,4.59-5.74.69-1.87,11.42-19.39,31.48-20.52s25.93,10.67,27.93,12.26A72.24,72.24,0,0,1,445.86,162c.82,2,4.44,5.5,8.18,5.43,8.93-.2,14.41-5.41,14.41-18V88.28c-.06-9.32-15.8-72.4-15.8-72.4-1.86-5.61-3.88-13.94-9.92-14Z" style="fill:#2061cc"/><path d="M8.51,1.92c-4.45.06-7.3,4.53-7.27,9V94.66c-.07,4.23,3.9,7.74,6.79,7.68H351.09c3,0,7.34-2.44,7.46-7V10c0-4.28-1.78-8-6.63-8.06Z" style="fill:#2061cc"/><path d="M435.92,15.9H389.34c-3.59,0-6.58,1.78-6.65,5.8V66.62c0,6.36,2.43,9.32,6.63,9.63h51c4-.16,13.74,1.54,12.08-10.68,0,0-10.06-41.77-10.5-44.07C441,16.93,437.8,15.9,435.92,15.9Z" style="fill:#fff"/></svg>