<svg id="Layer_1" data-name="Layer 1" xmlns="http://www.w3.org/2000/svg" viewBox="0 0 679.66 223.5"><path d="M360.22,154.77a29.89,29.89,0,1,1-29.9,29.88A29.87,29.87,0,0,1,360.22,154.77Z" style="fill:#fff;stroke:#231f20;stroke-miterlimit:10;stroke-width:0px"/><path d="M360.22,146.73a37.93,37.93,0,1,1-37.94,37.92,38.3,38.3,0,0,1,37.94-37.92v16.08a21.84,21.84,0,1,0,21.83,21.84,22.05,22.05,0,0,0-21.83-21.84Z" style="fill:#2061cc"/><path d="M608.57,154.77a29.89,29.89,0,1,1-29.87,29.88A29.87,29.87,0,0,1,608.57,154.77Z" style="fill:#fff;stroke:#231f20;stroke-miterlimit:10;stroke-width:0px"/><path d="M608.57,146.73a37.93,37.93,0,1,1-37.93,37.92,38.31,38.31,0,0,1,37.93-37.92v16.08a21.84,21.84,0,1,0,21.84,21.84,22,22,0,0,0-21.84-21.84Z" style="fill:#2061cc"/><path d="M277.08,2.62c-5.88,0-8.35,3.42-8.33,7.74V172.71c.08,6.33,4.67,8,7.6,8.19h24.87c5.32,0,6.79-1.7,7.84-7.84,1.88-12.63,16.05-41.63,51.33-41,41.2.73,49.32,36,49.44,36.11,1.49,6.14,9.09,5.51,9.09,5.51H547.47c7.09.06,7.09-3.51,10.44-8.58,8.05-12.27,20.67-33.36,50.19-33.36,34.8,0,45.57,25.48,50.6,35.52,1,2,3.07,5.33,10.32,5.29,3.56,0,5.52.12,7.5-2.72s3-58.8-2.2-68c-2.29-3.73-6.31-4.74-10.19-5.59-4.87-1.29-8.36-1.33-8.34-8.62l-8-61.79c0-2.89,6.9-2.52,9.19-3.88,3.43-1.86,6-3.74,5-8.18-1.43-5-6.64-10.87-19.25-11.2C638.13,2.48,277.08,2.62,277.08,2.62Z" style="fill:#2061cc"/><path d="M290.86,21.41c-6.55.15-8.55,4.15-8.61,11.2V93.83c-.12,4.55,1.72,7.5,6.18,7.46h73.71c7.92-.11,5.74-7.88,5.74-7.88-.58-4.45-9.29-62.74-9.29-62.74-.94-6.81-3.62-9.11-8.53-9.26Z" style="fill:#fff"/><path d="M383.88,21.41c-8.24,0-9.86,5-8.36,12.85l8.64,58.38c.51,4.71,2.9,8.69,7.34,8.65h61.08c5.25,0,8.67-3.25,7.27-11.12l-10.2-58.63c-1.21-7.94-3.29-10.09-9.76-10.13Z" style="fill:#fff"/><path d="M475.84,21.41c-8.23,0-9.86,5-8.38,12.85l8.64,58.38c.51,4.71,2.91,8.69,7.36,8.65h61.06c5.25,0,8.67-3.25,7.29-11.12L541.59,31.54c-1.2-7.94-3.28-10.09-9.76-10.13Z" style="fill:#fff"/><path d="M567.79,21.41c-8.24,0-9.86,5-8.36,12.85L568,92.64c.52,4.71,2.91,8.69,7.37,8.65h61.08c5.22,0,8.67-3.25,7.26-11.12L633.56,31.54c-1.23-7.94-3.31-10.09-9.78-10.13Z" style="fill:#fff"/><circle cx="59.97" cy="195.18" r="21.62" style="fill:#fff;stroke:#231f20;stroke-miterlimit:10;stroke-width:0px"/><path d="M60,167a28.17,28.17,0,1,1-28.15,28.18A28.45,28.45,0,0,1,60,167v13.09a15.08,15.08,0,1,0,15.09,15.09A15.22,15.22,0,0,0,60,180.09Z" style="fill:#2061cc"/><path d="M193.37,173.56a21.62,21.62,0,1,1-21.62,21.62A21.6,21.6,0,0,1,193.37,173.56Z" style="fill:#fff;stroke:#231f20;stroke-miterlimit:10;stroke-width:0px"/><path d="M193.37,167a28.17,28.17,0,1,1-28.17,28.18A28.44,28.44,0,0,1,193.37,167v13.09a15.08,15.08,0,1,0,15.07,15.09,15.24,15.24,0,0,0-15.07-15.09Z" style="fill:#2061cc"/><path d="M110.87,192.55c-6.3,0-10.71-1.07-12.63-7.57C93.49,174.57,88,158.77,59.87,158.77a40.72,40.72,0,0,0-37.66,23.48s-2.61,10.06-8.37,10.06H6.41c-2.45.08-4.15-.55-4.31-3.33V152c0-3.7,2.29-7.69,8-7.6H237.74c5.76-.09,8,3.9,8.06,7.6v37c-.16,2.78-1.88,3.41-4.32,3.33h-5.16c-5.89.41-7.23-10.06-7.23-10.06s-7.27-23.48-35.38-23.48-33.62,15.8-38.37,26.21c-1.94,6.5-6.35,7.57-12.63,7.57Z" style="fill:#2061cc"/><path d="M238.1,22.55H7.52c-3.38,0-6.77,1.73-6.79,6.66v92.24c-.06,4.09,2.75,6.26,6.24,6.37H237.31c4.89,0,7.07-2.37,7.09-6.95v-91C244.4,25.88,241.52,22.55,238.1,22.55Z" style="fill:#2061cc"/></svg>