<svg id="Layer_1" data-name="Layer 1" xmlns="http://www.w3.org/2000/svg" viewBox="0 0 631.96 198.59"><path d="M61.87,146.68A21.84,21.84,0,1,1,40,168.52,21.85,21.85,0,0,1,61.87,146.68Z" style="fill:#fff;stroke:#231f20;stroke-miterlimit:10;stroke-width:0px"/><path d="M61.87,140.07a28.45,28.45,0,1,1-28.46,28.45,28.73,28.73,0,0,1,28.46-28.45V153.3a15.23,15.23,0,1,0,15.22,15.22A15.37,15.37,0,0,0,61.87,153.3Z" style="fill:#2061cc"/><path d="M196.6,146.68a21.84,21.84,0,1,1-21.84,21.84A21.83,21.83,0,0,1,196.6,146.68Z" style="fill:#fff;stroke:#231f20;stroke-miterlimit:10;stroke-width:0px"/><path d="M196.6,140.07a28.45,28.45,0,1,1-28.43,28.45,28.73,28.73,0,0,1,28.43-28.45V153.3a15.23,15.23,0,1,0,15.24,15.22A15.37,15.37,0,0,0,196.6,153.3Z" style="fill:#2061cc"/><path d="M339.8,146.68A21.84,21.84,0,1,1,318,168.52,21.84,21.84,0,0,1,339.8,146.68Z" style="fill:#fff;stroke:#231f20;stroke-miterlimit:10;stroke-width:0px"/><path d="M339.8,140.07a28.45,28.45,0,1,1-28.45,28.45,28.73,28.73,0,0,1,28.45-28.45V153.3A15.23,15.23,0,1,0,355,168.52,15.37,15.37,0,0,0,339.8,153.3Z" style="fill:#2061cc"/><path d="M577,146.68a21.84,21.84,0,1,1-21.84,21.84A21.84,21.84,0,0,1,577,146.68Z" style="fill:#fff;stroke:#231f20;stroke-miterlimit:10;stroke-width:0px"/><path d="M577,140.07a28.45,28.45,0,1,1-28.45,28.45A28.73,28.73,0,0,1,577,140.07V153.3a15.23,15.23,0,1,0,15.23,15.22A15.36,15.36,0,0,0,577,153.3Z" style="fill:#2061cc"/><path d="M543.91,22.19c-3.31,0-5.87,2.89-5.89,7.17v91.11c0,3.52-2.57,5-7.36,4.91h-237c-5.82-.08-8.08,1.6-8.14,5.36v31.53c.16,2.81,1.9,3.44,4.36,3.36h7.5c5.82,0,8.46-10.16,8.46-10.16s6.19-22.58,34.6-22.58,29.36,14.82,34.16,25.34c1.94,6.55,6.41,7.62,12.75,7.62H531.22s5.62.2,7.5-2.26c1.13-1.48,5.6-31.82,38.82-31.82S611.3,160.52,614,162.66c1,.62,8.64.83,10.06.22,7.23-3.45,6.14-10.08,6.22-18.14V102c-.52-7.31-2.85-14.12-5.19-20.91-1.8-5-15.78-47.53-18.23-52.66a5,5,0,0,1-.38-.83h0c-1.19-2.4-2.73-5.27-6.36-5.39H543.91ZM113.28,165.85c-6.35,0-10.81-1.07-12.75-7.62-4.81-10.52-10.35-26.5-38.76-26.5a41.16,41.16,0,0,0-38.05,23.74s-2.64,10.16-8.46,10.16H7.76c-2.46.08-4.2-.55-4.36-3.36V130.74c.06-3.76,2.32-5.44,8.14-5.36h229.9c5.8-.08,8.08,1.6,8.12,5.36v31.53c-.16,2.81-1.88,3.44-4.36,3.36H240c-6,.42-7.3-10.16-7.3-10.16s-7.33-23.74-35.74-23.74-34,16-38.76,26.5c-1.94,6.55-6.4,7.62-12.75,7.62Z" style="fill:#2061cc"/><path d="M519.14,2.27H292c-3.43,0-6.83,1.74-6.87,6.73V99.86c0,4.12,2.79,6.32,6.31,6.43H518.35c4.93,0,7.12-2.39,7.16-7V9.68C525.51,5.64,522.62,2.27,519.14,2.27Z" style="fill:#2061cc"/><path d="M241.78,2.27H8.88C5.46,2.27,2.06,4,2,9V99.86c0,4.12,2.79,6.32,6.32,6.43H241c4.94,0,7.14-2.39,7.16-7V9.68C248.15,5.64,245.26,2.27,241.78,2.27Z" style="fill:#2061cc"/><path d="M591.7,34.6H555.35c-2.75,0-4,2.08-4.08,4.71,0,.83,0,43.5,0,43.5,0,3.77,2,4.22,4.83,4.18h43.22c5.21,0,12.26,1,10.28-5.72l-13-43.36A5.61,5.61,0,0,0,591.7,34.6Z" style="fill:#fff"/></svg>