<svg width="364" height="659" xmlns="http://www.w3.org/2000/svg">
 <defs>
  <clipPath id="clip-path">
   <rect id="svg_1" fill="none" rx="12.85" height="659" width="364" y="0" x="0" class="cls-1"/>
  </clipPath>
  <clipPath id="clip-path-2">
   <rect id="svg_2" fill="none" rx="12.85" height="659" width="364" y="0" x="419.14" class="cls-1"/>
  </clipPath>
 </defs>
 <g>
  <title>Layer 1</title>
  <g id="svg_3" isolation="isolate" class="cls-2">
   <g data-name="Layer 4" id="Layer_4">
    <rect id="svg_4" fill="none" rx="12.85" height="659.16" width="335.26" y="14.26" x="16.14" class="cls-3"/>
    <g id="svg_5" mix-blend-mode="screen" opacity="0.2" class="cls-4">
     <g id="svg_6" clip-path="url(#clip-path)" class="cls-5">
      <rect id="svg_7" stroke-width="1.27px" stroke-miterlimit="10" stroke="#fff" fill="none" height="168.85" width="130.3" y="-164.78" x="349.69" class="cls-6"/>
      <rect id="svg_8" stroke-width="1.27px" stroke-miterlimit="10" stroke="#fff" fill="none" height="196.56" width="151.68" y="-178.64" x="339" class="cls-6"/>
      <rect id="svg_9" stroke-width="1.27px" stroke-miterlimit="10" stroke="#fff" fill="none" height="224.27" width="173.07" y="-192.49" x="328.3" class="cls-6"/>
      <rect id="svg_10" stroke-width="1.27px" stroke-miterlimit="10" stroke="#fff" fill="none" height="251.98" width="194.45" y="-206.35" x="317.61" class="cls-6"/>
      <rect id="svg_11" stroke-width="1.27px" stroke-miterlimit="10" stroke="#fff" fill="none" height="279.69" width="215.84" y="-220.2" x="306.92" class="cls-6"/>
      <rect id="svg_12" stroke-width="1.27px" stroke-miterlimit="10" stroke="#fff" fill="none" height="307.41" width="237.22" y="-234.06" x="296.23" class="cls-6"/>
      <rect id="svg_13" stroke-width="1.27px" stroke-miterlimit="10" stroke="#fff" fill="none" height="335.12" width="258.61" y="-247.91" x="285.54" class="cls-6"/>
      <rect id="svg_14" stroke-width="1.27px" stroke-miterlimit="10" stroke="#fff" fill="none" height="362.83" width="279.99" y="-261.77" x="274.84" class="cls-6"/>
      <rect id="svg_15" stroke-width="1.27px" stroke-miterlimit="10" stroke="#fff" fill="none" height="390.54" width="301.38" y="-275.62" x="264.15" class="cls-6"/>
      <rect id="svg_16" stroke-width="1.27px" stroke-miterlimit="10" stroke="#fff" fill="none" height="418.25" width="322.76" y="-289.48" x="253.46" class="cls-6"/>
      <rect id="svg_17" stroke-width="1.27px" stroke-miterlimit="10" stroke="#fff" fill="none" height="445.96" width="344.14" y="-303.34" x="242.77" class="cls-6"/>
      <rect id="svg_18" stroke-width="1.27px" stroke-miterlimit="10" stroke="#fff" fill="none" height="473.67" width="365.53" y="-317.19" x="232.07" class="cls-6"/>
      <rect id="svg_19" stroke-width="1.27px" stroke-miterlimit="10" stroke="#fff" fill="none" height="501.38" width="386.91" y="-331.05" x="221.38" class="cls-6"/>
      <rect id="svg_20" stroke-width="1.27px" stroke-miterlimit="10" stroke="#fff" fill="none" height="529.09" width="408.3" y="-344.9" x="210.69" class="cls-6"/>
      <rect id="svg_21" stroke-width="1.27px" stroke-miterlimit="10" stroke="#fff" fill="none" height="556.81" width="429.68" y="-358.76" x="200" class="cls-6"/>
      <rect id="svg_22" stroke-width="1.27px" stroke-miterlimit="10" stroke="#fff" fill="none" height="584.52" width="451.07" y="-372.61" x="189.31" class="cls-6"/>
      <rect id="svg_23" stroke-width="1.27px" stroke-miterlimit="10" stroke="#fff" fill="none" height="612.23" width="472.45" y="-386.47" x="178.61" class="cls-6"/>
      <rect id="svg_24" stroke-width="1.27px" stroke-miterlimit="10" stroke="#fff" fill="none" height="639.94" width="493.84" y="-400.32" x="167.92" class="cls-6"/>
      <rect id="svg_25" stroke-width="1.27px" stroke-miterlimit="10" stroke="#fff" fill="none" height="667.65" width="515.22" y="-414.18" x="157.23" class="cls-6"/>
      <rect id="svg_26" stroke-width="1.27px" stroke-miterlimit="10" stroke="#fff" fill="none" height="695.36" width="536.6" y="-428.04" x="146.54" class="cls-6"/>
      <rect id="svg_27" stroke-width="1.27px" stroke-miterlimit="10" stroke="#fff" fill="none" height="723.07" width="557.99" y="-441.89" x="135.84" class="cls-6"/>
      <rect id="svg_28" stroke-width="1.27px" stroke-miterlimit="10" stroke="#fff" fill="none" height="750.78" width="579.37" y="-455.75" x="125.15" class="cls-6"/>
      <rect id="svg_29" stroke-width="1.27px" stroke-miterlimit="10" stroke="#fff" fill="none" height="778.49" width="600.76" y="-469.6" x="114.46" class="cls-6"/>
      <rect id="svg_30" stroke-width="1.27px" stroke-miterlimit="10" stroke="#fff" fill="none" height="806.2" width="622.14" y="-483.46" x="103.77" class="cls-6"/>
      <rect id="svg_31" stroke-width="1.27px" stroke-miterlimit="10" stroke="#fff" fill="none" height="833.92" width="643.53" y="-497.31" x="93.08" class="cls-6"/>
      <rect id="svg_32" stroke-width="1.27px" stroke-miterlimit="10" stroke="#fff" fill="none" height="861.63" width="664.91" y="-511.17" x="82.38" class="cls-6"/>
      <rect id="svg_33" stroke-width="1.27px" stroke-miterlimit="10" stroke="#fff" fill="none" height="889.34" width="686.29" y="-525.02" x="71.69" class="cls-6"/>
      <rect id="svg_34" stroke-width="1.27px" stroke-miterlimit="10" stroke="#fff" fill="none" height="917.05" width="707.68" y="-538.88" x="61" class="cls-6"/>
      <rect id="svg_35" stroke-width="1.27px" stroke-miterlimit="10" stroke="#fff" fill="none" height="944.76" width="729.06" y="-552.73" x="50.31" class="cls-6"/>
      <rect id="svg_36" stroke-width="1.27px" stroke-miterlimit="10" stroke="#fff" fill="none" height="972.47" width="750.45" y="-566.59" x="39.62" class="cls-6"/>
      <rect id="svg_37" stroke-width="1.27px" stroke-miterlimit="10" stroke="#fff" fill="none" height="1000.18" width="771.83" y="-580.45" x="28.92" class="cls-6"/>
      <rect id="svg_38" stroke-width="1.27px" stroke-miterlimit="10" stroke="#fff" fill="none" height="1027.89" width="793.22" y="-594.3" x="18.23" class="cls-6"/>
      <rect id="svg_39" stroke-width="1.27px" stroke-miterlimit="10" stroke="#fff" fill="none" height="1055.6" width="814.6" y="-608.16" x="7.54" class="cls-6"/>
      <rect id="svg_40" stroke-width="1.27px" stroke-miterlimit="10" stroke="#fff" fill="none" height="1083.32" width="835.99" y="-622.01" x="-3.15" class="cls-6"/>
      <rect id="svg_41" stroke-width="1.27px" stroke-miterlimit="10" stroke="#fff" fill="none" height="1111.03" width="857.37" y="-635.87" x="-13.85" class="cls-6"/>
      <rect id="svg_42" stroke-width="1.27px" stroke-miterlimit="10" stroke="#fff" fill="none" height="1138.74" width="878.75" y="-649.72" x="-24.54" class="cls-6"/>
      <rect id="svg_43" stroke-width="1.27px" stroke-miterlimit="10" stroke="#fff" fill="none" height="1166.45" width="900.14" y="-663.58" x="-35.23" class="cls-6"/>
      <rect id="svg_44" stroke-width="1.27px" stroke-miterlimit="10" stroke="#fff" fill="none" height="1194.16" width="921.52" y="-677.43" x="-45.92" class="cls-6"/>
      <rect id="svg_45" stroke-width="1.27px" stroke-miterlimit="10" stroke="#fff" fill="none" height="1221.87" width="942.91" y="-691.29" x="-56.61" class="cls-6"/>
      <rect id="svg_46" stroke-width="1.27px" stroke-miterlimit="10" stroke="#fff" fill="none" height="1249.58" width="964.29" y="-705.15" x="-67.31" class="cls-6"/>
      <rect id="svg_47" stroke-width="1.27px" stroke-miterlimit="10" stroke="#fff" fill="none" height="1277.29" width="985.68" y="-719" x="-78" class="cls-6"/>
      <rect id="svg_48" stroke-width="1.27px" stroke-miterlimit="10" stroke="#fff" fill="none" height="1305" width="1007.06" y="-732.86" x="-88.69" class="cls-6"/>
      <rect id="svg_49" stroke-width="1.27px" stroke-miterlimit="10" stroke="#fff" fill="none" height="1332.71" width="1028.45" y="-746.71" x="-99.38" class="cls-6"/>
      <rect id="svg_50" stroke-width="1.27px" stroke-miterlimit="10" stroke="#fff" fill="none" height="1360.43" width="1049.83" y="-760.57" x="-110.08" class="cls-6"/>
      <rect id="svg_51" stroke-width="1.27px" stroke-miterlimit="10" stroke="#fff" fill="none" height="1388.14" width="1071.21" y="-774.42" x="-120.77" class="cls-6"/>
      <rect id="svg_52" stroke-width="1.27px" stroke-miterlimit="10" stroke="#fff" fill="none" height="1415.85" width="1092.6" y="-788.28" x="-131.46" class="cls-6"/>
      <rect id="svg_53" stroke-width="1.27px" stroke-miterlimit="10" stroke="#fff" fill="none" height="1443.56" width="1113.98" y="-802.13" x="-142.15" class="cls-6"/>
      <rect id="svg_54" stroke-width="1.27px" stroke-miterlimit="10" stroke="#fff" fill="none" height="1471.27" width="1135.37" y="-815.99" x="-152.84" class="cls-6"/>
      <rect id="svg_55" stroke-width="1.27px" stroke-miterlimit="10" stroke="#fff" fill="none" height="1498.98" width="1156.75" y="-829.85" x="-163.54" class="cls-6"/>
      <rect id="svg_56" stroke-width="1.27px" stroke-miterlimit="10" stroke="#fff" fill="none" height="1526.69" width="1178.14" y="-843.7" x="-174.23" class="cls-6"/>
      <rect id="svg_57" stroke-width="1.27px" stroke-miterlimit="10" stroke="#fff" fill="none" height="1554.4" width="1199.52" y="-857.56" x="-184.92" class="cls-6"/>
      <rect id="svg_58" stroke-width="1.27px" stroke-miterlimit="10" stroke="#fff" fill="none" height="1582.11" width="1220.9" y="-871.41" x="-195.61" class="cls-6"/>
      <rect id="svg_59" stroke-width="1.27px" stroke-miterlimit="10" stroke="#fff" fill="none" height="1609.83" width="1242.29" y="-885.27" x="-206.31" class="cls-6"/>
      <rect id="svg_60" stroke-width="1.27px" stroke-miterlimit="10" stroke="#fff" fill="none" height="1637.54" width="1263.67" y="-899.12" x="-217" class="cls-6"/>
      <rect id="svg_61" stroke-width="1.27px" stroke-miterlimit="10" stroke="#fff" fill="none" height="1665.25" width="1285.06" y="-912.98" x="-227.69" class="cls-6"/>
      <rect id="svg_62" stroke-width="1.27px" stroke-miterlimit="10" stroke="#fff" fill="none" height="1692.96" width="1306.44" y="-926.83" x="-238.38" class="cls-6"/>
      <rect id="svg_63" stroke-width="1.27px" stroke-miterlimit="10" stroke="#fff" fill="none" height="1720.67" width="1327.83" y="-940.69" x="-249.07" class="cls-6"/>
      <rect id="svg_64" stroke-width="1.27px" stroke-miterlimit="10" stroke="#fff" fill="none" height="1748.38" width="1349.21" y="-954.55" x="-259.77" class="cls-6"/>
      <rect id="svg_65" stroke-width="1.27px" stroke-miterlimit="10" stroke="#fff" fill="none" height="1776.09" width="1370.6" y="-968.4" x="-270.46" class="cls-6"/>
      <rect id="svg_66" stroke-width="1.27px" stroke-miterlimit="10" stroke="#fff" fill="none" rx="62.96" height="178.34" width="137.62" y="-169.31" x="346.38" class="cls-6"/>
      <rect id="svg_67" stroke-width="1.27px" stroke-miterlimit="10" stroke="#fff" fill="none" rx="71.89" height="201.5" width="155.49" y="-180.88" x="337.45" class="cls-6"/>
      <rect id="svg_68" stroke-width="1.27px" stroke-miterlimit="10" stroke="#fff" fill="none" rx="80.83" height="224.65" width="173.36" y="-192.46" x="328.51" class="cls-6"/>
      <rect id="svg_69" stroke-width="1.27px" stroke-miterlimit="10" stroke="#fff" fill="none" rx="89.76" height="247.81" width="191.23" y="-204.04" x="319.58" class="cls-6"/>
      <rect id="svg_70" stroke-width="1.27px" stroke-miterlimit="10" stroke="#fff" fill="none" rx="98.69" height="270.96" width="209.1" y="-215.62" x="310.64" class="cls-6"/>
      <rect id="svg_71" stroke-width="1.27px" stroke-miterlimit="10" stroke="#fff" fill="none" rx="107.63" height="294.12" width="226.97" y="-227.19" x="301.71" class="cls-6"/>
      <rect id="svg_72" stroke-width="1.27px" stroke-miterlimit="10" stroke="#fff" fill="none" rx="116.56" height="317.28" width="244.84" y="-238.77" x="292.77" class="cls-6"/>
      <rect id="svg_73" stroke-width="1.27px" stroke-miterlimit="10" stroke="#fff" fill="none" rx="125.5" height="340.43" width="262.71" y="-250.35" x="283.84" class="cls-6"/>
      <rect id="svg_74" stroke-width="1.27px" stroke-miterlimit="10" stroke="#fff" fill="none" rx="134.43" height="363.59" width="280.58" y="-261.93" x="274.9" class="cls-6"/>
      <rect id="svg_75" stroke-width="1.27px" stroke-miterlimit="10" stroke="#fff" fill="none" rx="143.37" height="386.74" width="298.45" y="-273.51" x="265.97" class="cls-6"/>
      <rect id="svg_76" stroke-width="1.27px" stroke-miterlimit="10" stroke="#fff" fill="none" rx="152.3" height="409.9" width="316.32" y="-285.08" x="257.04" class="cls-6"/>
      <rect id="svg_77" stroke-width="1.27px" stroke-miterlimit="10" stroke="#fff" fill="none" rx="161.24" height="433.05" width="334.18" y="-296.66" x="248.1" class="cls-6"/>
      <rect id="svg_78" stroke-width="1.27px" stroke-miterlimit="10" stroke="#fff" fill="none" rx="170.17" height="456.21" width="352.05" y="-308.24" x="239.17" class="cls-6"/>
      <rect id="svg_79" stroke-width="1.27px" stroke-miterlimit="10" stroke="#fff" fill="none" rx="179.11" height="479.37" width="369.92" y="-319.82" x="230.23" class="cls-6"/>
      <rect id="svg_80" stroke-width="1.27px" stroke-miterlimit="10" stroke="#fff" fill="none" rx="188.04" height="502.52" width="387.79" y="-331.4" x="221.3" class="cls-6"/>
      <path id="svg_81" stroke-width="1.27px" stroke-miterlimit="10" stroke="#fff" fill="none" d="m409.34,-343l11.66,0a197,197 0 0 1 197,197l0,131.73a197,197 0 0 1 -197,197l-11.66,0a197,197 0 0 1 -197,-197l0,-131.73a197,197 0 0 1 197,-197z" class="cls-6"/>
      <rect id="svg_82" stroke-width="1.27px" stroke-miterlimit="10" stroke="#fff" fill="none" rx="205.91" height="548.83" width="423.53" y="-354.55" x="203.43" class="cls-6"/>
      <rect id="svg_83" stroke-width="1.27px" stroke-miterlimit="10" stroke="#fff" fill="none" rx="214.84" height="571.99" width="441.4" y="-366.13" x="194.49" class="cls-6"/>
      <rect id="svg_84" stroke-width="1.27px" stroke-miterlimit="10" stroke="#fff" fill="none" rx="223.78" height="595.15" width="459.27" y="-377.71" x="185.56" class="cls-6"/>
      <rect id="svg_85" stroke-width="1.27px" stroke-miterlimit="10" stroke="#fff" fill="none" rx="232.71" height="618.3" width="477.14" y="-389.29" x="176.62" class="cls-6"/>
      <rect id="svg_86" stroke-width="1.27px" stroke-miterlimit="10" stroke="#fff" fill="none" rx="241.65" height="641.46" width="495.01" y="-400.86" x="167.69" class="cls-6"/>
      <rect id="svg_87" stroke-width="1.27px" stroke-miterlimit="10" stroke="#fff" fill="none" rx="250.58" height="664.61" width="512.88" y="-412.44" x="158.76" class="cls-6"/>
      <rect id="svg_88" stroke-width="1.27px" stroke-miterlimit="10" stroke="#fff" fill="none" rx="259.52" height="687.77" width="530.75" y="-424.02" x="149.82" class="cls-6"/>
      <rect id="svg_89" stroke-width="1.27px" stroke-miterlimit="10" stroke="#fff" fill="none" rx="268.45" height="710.92" width="548.61" y="-435.6" x="140.89" class="cls-6"/>
      <rect id="svg_90" stroke-width="1.27px" stroke-miterlimit="10" stroke="#fff" fill="none" rx="277.39" height="734.08" width="566.48" y="-447.17" x="131.95" class="cls-6"/>
      <rect id="svg_91" stroke-width="1.27px" stroke-miterlimit="10" stroke="#fff" fill="none" rx="286.32" height="757.24" width="584.35" y="-458.75" x="123.02" class="cls-6"/>
      <path id="svg_92" stroke-width="1.27px" stroke-miterlimit="10" stroke="#fff" fill="none" d="m409.34,-470.33l11.66,0a295.25,295.25 0 0 1 295.3,295.25l0,189.89a295.26,295.26 0 0 1 -295.3,295.25l-11.66,0a295.26,295.26 0 0 1 -295.26,-295.25l0,-189.89a295.26,295.26 0 0 1 295.26,-295.25z" class="cls-6"/>
      <rect id="svg_93" stroke-width="1.27px" stroke-miterlimit="10" stroke="#fff" fill="none" rx="304.19" height="803.55" width="620.09" y="-481.91" x="105.15" class="cls-6"/>
      <rect id="svg_94" stroke-width="1.27px" stroke-miterlimit="10" stroke="#fff" fill="none" rx="313.12" height="826.7" width="637.96" y="-493.49" x="96.21" class="cls-6"/>
      <rect id="svg_95" stroke-width="1.27px" stroke-miterlimit="10" stroke="#fff" fill="none" rx="322.06" height="849.86" width="655.83" y="-505.06" x="87.28" class="cls-6"/>
      <rect id="svg_96" stroke-width="1.27px" stroke-miterlimit="10" stroke="#fff" fill="none" rx="330.99" height="873.01" width="673.7" y="-516.64" x="78.34" class="cls-6"/>
      <rect id="svg_97" stroke-width="1.27px" stroke-miterlimit="10" stroke="#fff" fill="none" rx="339.93" height="896.17" width="691.57" y="-528.22" x="69.41" class="cls-6"/>
      <rect id="svg_98" stroke-width="1.27px" stroke-miterlimit="10" stroke="#fff" fill="none" rx="348.86" height="919.33" width="709.44" y="-539.8" x="60.47" class="cls-6"/>
      <rect id="svg_99" stroke-width="1.27px" stroke-miterlimit="10" stroke="#fff" fill="none" rx="357.8" height="942.48" width="727.31" y="-551.38" x="51.54" class="cls-6"/>
      <rect id="svg_100" stroke-width="1.27px" stroke-miterlimit="10" stroke="#fff" fill="none" rx="366.73" height="965.64" width="745.17" y="-562.95" x="42.61" class="cls-6"/>
      <rect id="svg_101" stroke-width="1.27px" stroke-miterlimit="10" stroke="#fff" fill="none" rx="375.67" height="988.79" width="763.04" y="-574.53" x="33.67" class="cls-6"/>
      <rect id="svg_102" stroke-width="1.27px" stroke-miterlimit="10" stroke="#fff" fill="none" rx="384.6" height="1011.95" width="780.91" y="-586.11" x="24.74" class="cls-6"/>
      <path id="svg_103" stroke-width="1.27px" stroke-miterlimit="10" stroke="#fff" fill="none" d="m409.34,-597.69l11.66,0a393.53,393.53 0 0 1 393.58,393.54l0,248a393.54,393.54 0 0 1 -393.58,393.57l-11.66,0a393.54,393.54 0 0 1 -393.54,-393.54l0,-248a393.54,393.54 0 0 1 393.54,-393.57z" class="cls-6"/>
      <rect id="svg_104" stroke-width="1.27px" stroke-miterlimit="10" stroke="#fff" fill="none" rx="402.47" height="1058.26" width="816.65" y="-609.27" x="6.87" class="cls-6"/>
      <rect id="svg_105" stroke-width="1.27px" stroke-miterlimit="10" stroke="#fff" fill="none" rx="411.4" height="1081.42" width="834.52" y="-620.84" x="-2.07" class="cls-6"/>
      <rect id="svg_106" stroke-width="1.27px" stroke-miterlimit="10" stroke="#fff" fill="none" rx="420.34" height="1104.57" width="852.39" y="-632.42" x="-11" class="cls-6"/>
      <rect id="svg_107" stroke-width="1.27px" stroke-miterlimit="10" stroke="#fff" fill="none" rx="429.27" height="1127.73" width="870.26" y="-644" x="-19.94" class="cls-6"/>
      <rect id="svg_108" stroke-width="1.27px" stroke-miterlimit="10" stroke="#fff" fill="none" rx="438.21" height="1150.88" width="888.13" y="-655.58" x="-28.87" class="cls-6"/>
      <rect id="svg_109" stroke-width="1.27px" stroke-miterlimit="10" stroke="#fff" fill="none" rx="447.14" height="1174.04" width="906" y="-667.16" x="-37.81" class="cls-6"/>
      <rect id="svg_110" stroke-width="1.27px" stroke-miterlimit="10" stroke="#fff" fill="none" rx="456.08" height="1197.2" width="923.87" y="-678.73" x="-46.74" class="cls-6"/>
      <rect id="svg_111" stroke-width="1.27px" stroke-miterlimit="10" stroke="#fff" fill="none" rx="465.01" height="1220.35" width="941.74" y="-690.31" x="-55.67" class="cls-6"/>
      <rect id="svg_112" stroke-width="1.27px" stroke-miterlimit="10" stroke="#fff" fill="none" rx="473.95" height="1243.51" width="959.6" y="-701.89" x="-64.61" class="cls-6"/>
      <rect id="svg_113" stroke-width="1.27px" stroke-miterlimit="10" stroke="#fff" fill="none" rx="482.88" height="1266.66" width="977.47" y="-713.47" x="-73.54" class="cls-6"/>
      <rect id="svg_114" stroke-width="1.27px" stroke-miterlimit="10" stroke="#fff" fill="none" rx="491.82" height="1289.82" width="995.34" y="-725.04" x="-82.48" class="cls-6"/>
      <rect id="svg_115" stroke-width="1.27px" stroke-miterlimit="10" stroke="#fff" fill="none" rx="500.75" height="1312.98" width="1013.21" y="-736.62" x="-91.41" class="cls-6"/>
      <path id="svg_116" stroke-width="1.27px" stroke-miterlimit="10" stroke="#fff" fill="none" d="m409.34,-748.2l11.66,0a509.68,509.68 0 0 1 509.73,509.68l0,316.77a509.68,509.68 0 0 1 -509.73,509.68l-11.66,0a509.68,509.68 0 0 1 -509.69,-509.68l0,-316.77a509.69,509.69 0 0 1 509.69,-509.68z" class="cls-6"/>
      <rect id="svg_117" stroke-width="1.27px" stroke-miterlimit="10" stroke="#fff" fill="none" rx="518.62" height="1359.29" width="1048.95" y="-759.78" x="-109.28" class="cls-6"/>
      <rect id="svg_118" stroke-width="1.27px" stroke-miterlimit="10" stroke="#fff" fill="none" rx="527.55" height="1382.44" width="1066.82" y="-771.36" x="-118.22" class="cls-6"/>
      <rect id="svg_119" stroke-width="1.27px" stroke-miterlimit="10" stroke="#fff" fill="none" rx="536.49" height="1405.6" width="1084.69" y="-782.93" x="-127.15" class="cls-6"/>
      <rect id="svg_120" stroke-width="1.27px" stroke-miterlimit="10" stroke="#fff" fill="none" rx="545.42" height="1428.75" width="1102.56" y="-794.51" x="-136.09" class="cls-6"/>
      <rect id="svg_121" stroke-width="1.27px" stroke-miterlimit="10" stroke="#fff" fill="none" rx="554.36" height="1451.91" width="1120.43" y="-806.09" x="-145.02" class="cls-6"/>
      <rect id="svg_122" stroke-width="1.27px" stroke-miterlimit="10" stroke="#fff" fill="none" rx="563.29" height="1475.07" width="1138.3" y="-817.67" x="-153.95" class="cls-6"/>
      <rect id="svg_123" stroke-width="1.27px" stroke-miterlimit="10" stroke="#fff" fill="none" rx="572.23" height="1498.22" width="1156.17" y="-829.25" x="-162.89" class="cls-6"/>
      <rect id="svg_124" stroke-width="1.27px" stroke-miterlimit="10" stroke="#fff" fill="none" rx="581.16" height="1521.38" width="1174.03" y="-840.82" x="-171.82" class="cls-6"/>
      <rect id="svg_125" stroke-width="1.27px" stroke-miterlimit="10" stroke="#fff" fill="none" rx="590.1" height="1544.53" width="1191.9" y="-852.4" x="-180.76" class="cls-6"/>
      <rect id="svg_126" stroke-width="1.27px" stroke-miterlimit="10" stroke="#fff" fill="none" rx="599.03" height="1567.69" width="1209.77" y="-863.98" x="-189.69" class="cls-6"/>
      <path id="svg_127" stroke-width="1.27px" stroke-miterlimit="10" stroke="#fff" fill="none" d="m409.34,-875.56l11.66,0a608,608 0 0 1 608,608l0,374.88a608,608 0 0 1 -608,608l-11.66,0a608,608 0 0 1 -608,-608l0,-374.91a608,608 0 0 1 608,-607.97z" class="cls-6"/>
      <rect id="svg_128" stroke-width="1.27px" stroke-miterlimit="10" stroke="#fff" fill="none" rx="616.9" height="1614" width="1245.51" y="-887.14" x="-207.56" class="cls-6"/>
      <rect id="svg_129" stroke-width="1.27px" stroke-miterlimit="10" stroke="#fff" fill="none" rx="625.83" height="1637.16" width="1263.38" y="-898.71" x="-216.5" class="cls-6"/>
      <rect id="svg_130" stroke-width="1.27px" stroke-miterlimit="10" stroke="#fff" fill="none" rx="634.77" height="1660.31" width="1281.25" y="-910.29" x="-225.43" class="cls-6"/>
      <rect id="svg_131" stroke-width="1.27px" stroke-miterlimit="10" stroke="#fff" fill="none" rx="643.7" height="1683.47" width="1299.12" y="-921.87" x="-234.37" class="cls-6"/>
      <rect id="svg_132" stroke-width="1.27px" stroke-miterlimit="10" stroke="#fff" fill="none" rx="652.64" height="1706.62" width="1316.99" y="-933.45" x="-243.3" class="cls-6"/>
      <rect id="svg_133" stroke-width="1.27px" stroke-miterlimit="10" stroke="#fff" fill="none" rx="661.57" height="1729.78" width="1334.86" y="-945.03" x="-252.24" class="cls-6"/>
      <rect id="svg_134" stroke-width="1.27px" stroke-miterlimit="10" stroke="#fff" fill="none" rx="670.51" height="1752.94" width="1352.73" y="-956.6" x="-261.17" class="cls-6"/>
      <rect id="svg_135" stroke-width="1.27px" stroke-miterlimit="10" stroke="#fff" fill="none" rx="679.44" height="1776.09" width="1370.6" y="-968.18" x="-270.1" class="cls-6"/>
     </g>
    </g>
    <g id="svg_136" mix-blend-mode="screen" opacity="0.2" class="cls-4">
     <g id="svg_137" clip-path="url(#clip-path-2)" class="cls-7">
      <rect id="svg_138" stroke-width="1.27px" stroke-miterlimit="10" stroke="#fff" fill="none" height="861.63" width="664.91" y="-317.17" x="356.38" class="cls-6"/>
      <rect id="svg_139" stroke-width="1.27px" stroke-miterlimit="10" stroke="#fff" fill="none" height="889.34" width="686.29" y="-331.02" x="345.69" class="cls-6"/>
      <rect id="svg_140" stroke-width="1.27px" stroke-miterlimit="10" stroke="#fff" fill="none" height="917.05" width="707.68" y="-344.88" x="335" class="cls-6"/>
      <rect id="svg_141" stroke-width="1.27px" stroke-miterlimit="10" stroke="#fff" fill="none" height="944.76" width="729.06" y="-358.73" x="324.31" class="cls-6"/>
      <rect id="svg_142" stroke-width="1.27px" stroke-miterlimit="10" stroke="#fff" fill="none" height="972.47" width="750.45" y="-372.59" x="313.62" class="cls-6"/>
      <rect id="svg_143" stroke-width="1.27px" stroke-miterlimit="10" stroke="#fff" fill="none" height="1000.18" width="771.83" y="-386.45" x="302.92" class="cls-6"/>
      <rect id="svg_144" stroke-width="1.27px" stroke-miterlimit="10" stroke="#fff" fill="none" height="1027.89" width="793.22" y="-400.3" x="292.23" class="cls-6"/>
      <rect id="svg_145" stroke-width="1.27px" stroke-miterlimit="10" stroke="#fff" fill="none" height="1055.6" width="814.6" y="-414.16" x="281.54" class="cls-6"/>
      <rect id="svg_146" stroke-width="1.27px" stroke-miterlimit="10" stroke="#fff" fill="none" height="1083.32" width="835.99" y="-428.01" x="270.85" class="cls-6"/>
      <rect id="svg_147" stroke-width="1.27px" stroke-miterlimit="10" stroke="#fff" fill="none" height="1111.03" width="857.37" y="-441.87" x="260.15" class="cls-6"/>
      <rect id="svg_148" stroke-width="1.27px" stroke-miterlimit="10" stroke="#fff" fill="none" height="1138.74" width="878.75" y="-455.72" x="249.46" class="cls-6"/>
      <rect id="svg_149" stroke-width="1.27px" stroke-miterlimit="10" stroke="#fff" fill="none" height="1166.45" width="900.14" y="-469.58" x="238.77" class="cls-6"/>
      <rect id="svg_150" stroke-width="1.27px" stroke-miterlimit="10" stroke="#fff" fill="none" height="1194.16" width="921.52" y="-483.43" x="228.08" class="cls-6"/>
      <rect id="svg_151" stroke-width="1.27px" stroke-miterlimit="10" stroke="#fff" fill="none" height="1221.87" width="942.91" y="-497.29" x="217.39" class="cls-6"/>
      <rect id="svg_152" stroke-width="1.27px" stroke-miterlimit="10" stroke="#fff" fill="none" height="1249.58" width="964.29" y="-511.15" x="206.69" class="cls-6"/>
      <rect id="svg_153" stroke-width="1.27px" stroke-miterlimit="10" stroke="#fff" fill="none" height="1277.29" width="985.68" y="-525" x="196" class="cls-6"/>
      <rect id="svg_154" stroke-width="1.27px" stroke-miterlimit="10" stroke="#fff" fill="none" height="1305" width="1007.06" y="-538.86" x="185.31" class="cls-6"/>
      <rect id="svg_155" stroke-width="1.27px" stroke-miterlimit="10" stroke="#fff" fill="none" height="1332.71" width="1028.45" y="-552.71" x="174.62" class="cls-6"/>
      <rect id="svg_156" stroke-width="1.27px" stroke-miterlimit="10" stroke="#fff" fill="none" height="1360.43" width="1049.83" y="-566.57" x="163.92" class="cls-6"/>
      <rect id="svg_157" stroke-width="1.27px" stroke-miterlimit="10" stroke="#fff" fill="none" height="1388.14" width="1071.21" y="-580.42" x="153.23" class="cls-6"/>
      <rect id="svg_158" stroke-width="1.27px" stroke-miterlimit="10" stroke="#fff" fill="none" height="1415.85" width="1092.6" y="-594.28" x="142.54" class="cls-6"/>
      <rect id="svg_159" stroke-width="1.27px" stroke-miterlimit="10" stroke="#fff" fill="none" height="1443.56" width="1113.98" y="-608.13" x="131.85" class="cls-6"/>
      <rect id="svg_160" stroke-width="1.27px" stroke-miterlimit="10" stroke="#fff" fill="none" height="1471.27" width="1135.37" y="-621.99" x="121.16" class="cls-6"/>
      <rect id="svg_161" stroke-width="1.27px" stroke-miterlimit="10" stroke="#fff" fill="none" height="1498.98" width="1156.75" y="-635.85" x="110.46" class="cls-6"/>
      <rect id="svg_162" stroke-width="1.27px" stroke-miterlimit="10" stroke="#fff" fill="none" height="1526.69" width="1178.14" y="-649.7" x="99.77" class="cls-6"/>
      <rect id="svg_163" stroke-width="1.27px" stroke-miterlimit="10" stroke="#fff" fill="none" height="1554.4" width="1199.52" y="-663.56" x="89.08" class="cls-6"/>
      <rect id="svg_164" stroke-width="1.27px" stroke-miterlimit="10" stroke="#fff" fill="none" height="1582.11" width="1220.9" y="-677.41" x="78.39" class="cls-6"/>
      <rect id="svg_165" stroke-width="1.27px" stroke-miterlimit="10" stroke="#fff" fill="none" height="1609.83" width="1242.29" y="-691.27" x="67.69" class="cls-6"/>
      <rect id="svg_166" stroke-width="1.27px" stroke-miterlimit="10" stroke="#fff" fill="none" height="1637.54" width="1263.67" y="-705.12" x="57" class="cls-6"/>
      <rect id="svg_167" stroke-width="1.27px" stroke-miterlimit="10" stroke="#fff" fill="none" height="1665.25" width="1285.06" y="-718.98" x="46.31" class="cls-6"/>
      <rect id="svg_168" stroke-width="1.27px" stroke-miterlimit="10" stroke="#fff" fill="none" height="1692.96" width="1306.44" y="-732.83" x="35.62" class="cls-6"/>
      <rect id="svg_169" stroke-width="1.27px" stroke-miterlimit="10" stroke="#fff" fill="none" height="1720.67" width="1327.83" y="-746.69" x="24.93" class="cls-6"/>
      <rect id="svg_170" stroke-width="1.27px" stroke-miterlimit="10" stroke="#fff" fill="none" height="1748.38" width="1349.21" y="-760.55" x="14.23" class="cls-6"/>
      <rect id="svg_171" stroke-width="1.27px" stroke-miterlimit="10" stroke="#fff" fill="none" height="1776.09" width="1370.6" y="-774.4" x="3.54" class="cls-6"/>
      <rect id="svg_172" stroke-width="1.27px" stroke-miterlimit="10" stroke="#fff" fill="none" rx="328.61" height="851.67" width="657.23" y="-311.97" x="360.58" class="cls-6"/>
      <rect id="svg_173" stroke-width="1.27px" stroke-miterlimit="10" stroke="#fff" fill="none" rx="338.8" height="878.08" width="677.61" y="-325.18" x="350.39" class="cls-6"/>
      <rect id="svg_174" stroke-width="1.27px" stroke-miterlimit="10" stroke="#fff" fill="none" rx="348.99" height="904.49" width="697.99" y="-338.38" x="340.2" class="cls-6"/>
      <path id="svg_175" stroke-width="1.27px" stroke-miterlimit="10" stroke="#fff" fill="none" d="m689.19,-351.59l0,0a359.18,359.18 0 0 1 359.19,359.19l0,212.53a359.19,359.19 0 0 1 -359.19,359.19l0,0a359.19,359.19 0 0 1 -359.19,-359.19l0,-212.53a359.19,359.19 0 0 1 359.19,-359.19z" class="cls-6"/>
      <rect id="svg_176" stroke-width="1.27px" stroke-miterlimit="10" stroke="#fff" fill="none" rx="369.38" height="957.32" width="738.75" y="-364.79" x="319.82" class="cls-6"/>
      <rect id="svg_177" stroke-width="1.27px" stroke-miterlimit="10" stroke="#fff" fill="none" rx="379.57" height="983.73" width="759.14" y="-378" x="309.63" class="cls-6"/>
      <rect id="svg_178" stroke-width="1.27px" stroke-miterlimit="10" stroke="#fff" fill="none" rx="389.76" height="1010.14" width="779.52" y="-391.21" x="299.43" class="cls-6"/>
      <rect id="svg_179" stroke-width="1.27px" stroke-miterlimit="10" stroke="#fff" fill="none" rx="399.95" height="1036.55" width="799.9" y="-404.41" x="289.24" class="cls-6"/>
      <rect id="svg_180" stroke-width="1.27px" stroke-miterlimit="10" stroke="#fff" fill="none" rx="410.14" height="1062.96" width="820.28" y="-417.62" x="279.05" class="cls-6"/>
      <rect id="svg_181" stroke-width="1.27px" stroke-miterlimit="10" stroke="#fff" fill="none" rx="420.33" height="1089.38" width="840.66" y="-430.82" x="268.86" class="cls-6"/>
      <rect id="svg_182" stroke-width="1.27px" stroke-miterlimit="10" stroke="#fff" fill="none" rx="430.52" height="1115.79" width="861.05" y="-444.03" x="258.67" class="cls-6"/>
      <rect id="svg_183" stroke-width="1.27px" stroke-miterlimit="10" stroke="#fff" fill="none" rx="440.71" height="1142.2" width="881.43" y="-457.24" x="248.48" class="cls-6"/>
      <rect id="svg_184" stroke-width="1.27px" stroke-miterlimit="10" stroke="#fff" fill="none" rx="450.9" height="1168.61" width="901.81" y="-470.44" x="238.29" class="cls-6"/>
      <path id="svg_185" stroke-width="1.27px" stroke-miterlimit="10" stroke="#fff" fill="none" d="m689.19,-483.65l0,0a461.09,461.09 0 0 1 461.1,461.1l0,272.83a461.1,461.1 0 0 1 -461.1,461.1l0,0a461.1,461.1 0 0 1 -461.1,-461.1l0,-272.83a461.1,461.1 0 0 1 461.1,-461.1z" class="cls-6"/>
      <rect id="svg_186" stroke-width="1.27px" stroke-miterlimit="10" stroke="#fff" fill="none" rx="471.29" height="1221.44" width="942.57" y="-496.85" x="217.91" class="cls-6"/>
      <rect id="svg_187" stroke-width="1.27px" stroke-miterlimit="10" stroke="#fff" fill="none" rx="481.48" height="1247.85" width="962.96" y="-510.06" x="207.72" class="cls-6"/>
      <rect id="svg_188" stroke-width="1.27px" stroke-miterlimit="10" stroke="#fff" fill="none" rx="491.67" height="1274.26" width="983.34" y="-523.27" x="197.52" class="cls-6"/>
      <rect id="svg_189" stroke-width="1.27px" stroke-miterlimit="10" stroke="#fff" fill="none" rx="501.86" height="1300.67" width="1003.72" y="-536.47" x="187.33" class="cls-6"/>
      <rect id="svg_190" stroke-width="1.27px" stroke-miterlimit="10" stroke="#fff" fill="none" rx="512.05" height="1327.09" width="1024.1" y="-549.68" x="177.14" class="cls-6"/>
      <rect id="svg_191" stroke-width="1.27px" stroke-miterlimit="10" stroke="#fff" fill="none" rx="522.24" height="1353.5" width="1044.48" y="-562.88" x="166.95" class="cls-6"/>
      <rect id="svg_192" stroke-width="1.27px" stroke-miterlimit="10" stroke="#fff" fill="none" rx="532.43" height="1379.91" width="1064.87" y="-576.09" x="156.76" class="cls-6"/>
      <rect id="svg_193" stroke-width="1.27px" stroke-miterlimit="10" stroke="#fff" fill="none" rx="542.62" height="1406.32" width="1085.25" y="-589.3" x="146.57" class="cls-6"/>
      <rect id="svg_194" stroke-width="1.27px" stroke-miterlimit="10" stroke="#fff" fill="none" rx="552.81" height="1432.73" width="1105.63" y="-602.5" x="136.38" class="cls-6"/>
      <path id="svg_195" stroke-width="1.27px" stroke-miterlimit="10" stroke="#fff" fill="none" d="m689.19,-615.71l0,0a563,563 0 0 1 563,563l0,333.14a563,563 0 0 1 -563,563l0,0a563,563 0 0 1 -563,-563l0,-333.13a563,563 0 0 1 563,-563l0,-0.01z" class="cls-6"/>
      <rect id="svg_196" stroke-width="1.27px" stroke-miterlimit="10" stroke="#fff" fill="none" rx="573.2" height="1485.56" width="1146.39" y="-628.91" x="116" class="cls-6"/>
      <rect id="svg_197" stroke-width="1.27px" stroke-miterlimit="10" stroke="#fff" fill="none" rx="583.39" height="1511.97" width="1166.78" y="-642.12" x="105.81" class="cls-6"/>
      <rect id="svg_198" stroke-width="1.27px" stroke-miterlimit="10" stroke="#fff" fill="none" rx="593.58" height="1538.38" width="1187.16" y="-655.33" x="95.61" class="cls-6"/>
      <rect id="svg_199" stroke-width="1.27px" stroke-miterlimit="10" stroke="#fff" fill="none" rx="603.77" height="1564.79" width="1207.54" y="-668.53" x="85.42" class="cls-6"/>
      <rect id="svg_200" stroke-width="1.27px" stroke-miterlimit="10" stroke="#fff" fill="none" rx="613.96" height="1591.21" width="1227.92" y="-681.74" x="75.23" class="cls-6"/>
      <rect id="svg_201" stroke-width="1.27px" stroke-miterlimit="10" stroke="#fff" fill="none" rx="624.15" height="1617.62" width="1248.3" y="-694.94" x="65.04" class="cls-6"/>
      <rect id="svg_202" stroke-width="1.27px" stroke-miterlimit="10" stroke="#fff" fill="none" rx="634.34" height="1644.03" width="1268.69" y="-708.15" x="54.85" class="cls-6"/>
      <rect id="svg_203" stroke-width="1.27px" stroke-miterlimit="10" stroke="#fff" fill="none" rx="644.53" height="1670.44" width="1289.07" y="-721.36" x="44.66" class="cls-6"/>
      <rect id="svg_204" stroke-width="1.27px" stroke-miterlimit="10" stroke="#fff" fill="none" rx="654.72" height="1696.86" width="1309.45" y="-734.56" x="34.47" class="cls-6"/>
      <path id="svg_205" stroke-width="1.27px" stroke-miterlimit="10" stroke="#fff" fill="none" d="m689.19,-747.77l0,0a664.91,664.91 0 0 1 664.92,664.92l0,393.43a664.91,664.91 0 0 1 -664.92,664.92l0,0a664.91,664.91 0 0 1 -664.91,-664.92l0,-393.43a664.92,664.92 0 0 1 664.91,-664.92z" class="cls-6"/>
      <rect id="svg_206" stroke-width="1.27px" stroke-miterlimit="10" stroke="#fff" fill="none" rx="675.11" height="1749.68" width="1350.21" y="-760.97" x="14.09" class="cls-6"/>
      <rect id="svg_207" stroke-width="1.27px" stroke-miterlimit="10" stroke="#fff" fill="none" rx="685.3" height="1776.09" width="1370.6" y="-774.18" x="3.9" class="cls-6"/>
     </g>
    </g>
   </g>
  </g>
 </g>
</svg>