<svg id="Layer_1" data-name="Layer 1" xmlns="http://www.w3.org/2000/svg" viewBox="0 0 334.79 227.02"><circle cx="59.44" cy="167.17" r="44.25" style="fill:#fff"/><path d="M59.44,109.12a58,58,0,1,1-58,58A58,58,0,0,1,59.44,109.12Zm0,13.8a44.25,44.25,0,1,0,22.89,6.38c-.93,2-2,4-3,5.94-2.59,4.87-5,9.76-6,15.22-1.62,3.59-1.46,7-1,10.26a15.52,15.52,0,1,1-28.55,8.45,14.81,14.81,0,0,1,6-12.15c5.61-9.23,9-23.47,11.09-34.08C60.38,122.92,59.9,122.92,59.44,122.92Z" style="fill:#2061cc"/><path d="M274.42,108.21c.4,0,2.08-.24,2.47-.22a58.06,58.06,0,1,1-45.67,20.73c.34-.41,1.94-2,2.27-2.33l6.06,14.07A44.26,44.26,0,1,0,279.82,122Z" style="fill:#2061cc"/><path d="M260.8,108.21c.57,1.15,1.58,3.45,1.58,3.45s1.59,3.74,2.3,5.6A301.94,301.94,0,0,0,276.89,145c1.29,1.58,3,3.16,4.6,4.75a15.53,15.53,0,1,1-23.38,13.4,8.77,8.77,0,0,1,.05-1l0-.39a18.4,18.4,0,0,0-.83-5.39c-1.58-4.31-3-8.61-4.31-12.79-3.45-10.47-9.29-24.25-11.65-30.31S237,99,244.8,95.62,258.36,102.77,260.8,108.21Z" style="fill:#2061cc"/><path d="M105.48,135.38l9.64,1.42c7.74.57,9.48,7.76,10.91,13.94a41.46,41.46,0,0,0,1.14,4.75,84.91,84.91,0,0,1-5.88,37.2c2.44,4.32,7.33,4.32,12.06,4.32,2.74,0,23.86,1.15,26.87,1.15,9.21,0,18.26-.71,26.29-4.16,10.93-5.9,15.68-16.71,20.83-42,1.84-13.23,3.86-21.74,5-27.58,1-2.74,1.88-5.61,2.73-8.61,3.88-12.36,7.9-26,21.7-30.89,5.88-2.73,12.65-3,19.54-3h6.75a73.92,73.92,0,0,0,12.66-.85c.13,0,.41-.16.57-.16,2.14-.71,4.73-1.56,5.44-3.58.74-6.75-1.72-21.41-1.86-22.12-.27-2.16-.71-4.61.87-6.18.58,0,1-.16,1.29-.16,1.86,0,3,1,4.16,1.89a19.86,19.86,0,0,0,2,1.28,14,14,0,0,0,4.32.72,12.73,12.73,0,0,0,7.74-2.44c4.47-8.91,3.6-22.27-.14-30.47a4,4,0,0,0-2.87-.85H295.7a2.48,2.48,0,0,1-.85.14c-8.91,2.3-12.65,11.2-14.08,18-.57,2-1.88,3.88-3.74,3.88h-.71c-5.46-3-8.91-7.47-12.65-11.92C260.8,25.32,242.8,2.51,216,2.76a23.94,23.94,0,0,0-7.89,1c-3,6.46-2,12.93-1,19.25.71,4.75,1.42,9.62.43,14.51-.73,12.49-13.94,18.53-23.72,23h-.28a139.45,139.45,0,0,1-21.84,1.58c-4.89,0-9.62-.14-14.51-.29s-9.34-.05-14.07-.05c-2.6,0-5.19-.23-7.77-.1-3.74-1.28-6.47-3.88-9.34-6.45a29,29,0,0,0-7.19-5.33L98.31,40.26a12.39,12.39,0,0,1-1.15-4A11.29,11.29,0,0,0,96,32.07C91.56,25.32,86.23,20.15,79.62,15a30.06,30.06,0,0,0-10.91-2.46,16.07,16.07,0,0,0-2.59.14c-.3.3-.14,1-.14,1.75.28,1,.43,2.13-.71,2.13a7.13,7.13,0,0,0-.74-.14c-1.28-2-3.44-3-5.46-3.88-2.44-1.14-4.87-2.29-6.45-5-.44-.28-.88-.58-1.29-.86a3.53,3.53,0,0,0-1.59-.87c-.43,0-.71.3-1,1h0a4.85,4.85,0,0,0-2.15-.57c-1.43,0-1.59,1.29-1.86,2.87-.15,1.86-.44,4-3.31,4.45l-8.91,9a20.43,20.43,0,0,0-10.63,5.19c-1.29,4.44.71,7.9,2.59,11.34,1.29,2.3,2.57,4.6,2.87,7.33A29.9,29.9,0,0,1,21,53.63c-3.15,2.87-6.32,5.74-7.17,10-.73,3.31.28,6.18,1.42,9.05A19.91,19.91,0,0,1,17,79.92a22,22,0,0,1-1.73,5.46c-1,2.87-2.15,5.45-1.14,8.75a24.59,24.59,0,0,0,9.2,1.29h4.87c1.72,0,3.45,0,5.19.16C35.8,97,35.8,100,35.8,102.9h0a13.53,13.53,0,0,0,1.73,2.58c1.72,2.16,3.44,5,1.28,7.76Z" style="fill:#2061cc"/><path d="M181.78,120.86h0a20.7,20.7,0,0,0-9.05-2c-7.62,0-15.08,3.88-20.85,8.2-2.29,1.86-5,2.3-7.89,2.3h-2.44l-2.3-.14a11.6,11.6,0,0,0-3.16.28,2.57,2.57,0,0,1,.43,1.72,4.77,4.77,0,0,0,.28,1.88h.3a145.69,145.69,0,0,1,21.12,1.86c5.31.71,10.63,1.44,16.08,1.72,5,.16,6.75-4.45,8.19-7.46,1.43-2.3.72-6-.71-8.34Z" style="fill:#fff"/></svg>