<svg id="Layer_1" data-name="Layer 1" xmlns="http://www.w3.org/2000/svg" viewBox="0 0 370.26 178.41"><path d="M308.66,114.91c13.71,0,27,12.07,27,27a27,27,0,1,1-27-27Z" style="fill:#fff;stroke:#231f20;stroke-miterlimit:10;stroke-width:0px"/><path d="M308.66,106.85c18.68,0,35.07,16.41,35.07,35.06a35.07,35.07,0,1,1-35.07-35.06v16.09a19,19,0,1,0,19,19c0-9.88-9.06-19-19-19Z" style="fill:#2061cc"/><path d="M55.6,114.91a27,27,0,1,1-27,27A27,27,0,0,1,55.6,114.91Z" style="fill:#fff;stroke:#231f20;stroke-miterlimit:10;stroke-width:0px"/><path d="M55.6,106.85a35.06,35.06,0,1,1,0,70.11,35.06,35.06,0,0,1,0-70.11v16.09a19,19,0,1,0,19,19,19.15,19.15,0,0,0-19-19Z" style="fill:#2061cc"/><path d="M71.36,1.54c-4.49,0-7.8,2.35-10.71,5.46-1.27,1.39-51.18,51.3-52,52-3.8,3.49-5.57,8-6.36,12.93-.71,4.48-.77,31.17-.93,33.76-.28,9.92-.57,20.39,4.18,27.87A3.51,3.51,0,0,0,8,134.72a2.35,2.35,0,0,0,1.29-.3c.71-.63,6.61-14.35,11.07-19.67C28,105.16,40,99.32,51,98a51.53,51.53,0,0,1,20.88,2.55c18.55,6.63,23.84,23.48,24.73,25.8,2,5.46,3.75,14.39,10,14.35H253.25c4.85-.1,9.23-.93,10.35-4.59a75.68,75.68,0,0,1,10.48-23c9.23-12.35,21.76-16.51,36.84-16.51a63.58,63.58,0,0,1,9.57,1.21c11.58,3.76,16.27,7.54,23,16.31a43.56,43.56,0,0,1,5.15,8.34c1.72,4,3.44,8,6.89,11.06a5,5,0,0,0,2.44.58c2.59,0,4.74-1.88,6.61-3.61,2.73-2.73,3-6,3.17-9.32.13-1.15.27-2.32.43-3.46.71-16.24,1.19-30.77-.87-47.4-.1-3.92-2.59-6.76-7.6-6.91,0,0-73.12.43-74-1-11.92-6.91-43.79-55.85-47.5-58.59C237,3,234.86,1.54,229,1.54Z" style="fill:#2061cc"/><path d="M122,19.35H73.08C59.92,19.48,54.29,29,43.64,39.61c-.79.79-5.4,5.24-7.18,7.19-5.19,5.62-20.42,21,.13,20.83H124c3.77,0,5.52-1.67,5.52-5.45V27.89C129.45,21.59,128.4,19.39,122,19.35Z" style="fill:#fff"/><path d="M149.38,19.35c-4.49,0-6.59,2.68-6.57,7.67V63c0,4.5,1.35,4.64,5.51,4.68H253.55c11,0,12.05-4.48,9-8.92l-27-36.4a6.41,6.41,0,0,0-5.28-3C228,19.37,149.38,19.35,149.38,19.35Z" style="fill:#fff"/></svg>