<svg id="Layer_1" data-name="Layer 1" xmlns="http://www.w3.org/2000/svg" viewBox="0 0 333.57 224.96"><path d="M272.31,108.34c.42,0,2.08-.22,2.48-.22a58.06,58.06,0,1,1-45.68,20.73c.34-.4,1.94-1.94,2.27-2.34l6.07,14.1a44.25,44.25,0,1,0,40.26-18.51Z" style="fill:#2061cc"/><path d="M96.66,122.45c.31.28,1.7,1.23,2,1.51A58,58,0,1,1,50.8,108.85c.54-.08,2.75-.13,3.29-.22l-4.93,14.54a44.25,44.25,0,1,0,42.35,13.14Z" style="fill:#2061cc"/><path d="M249.6,12.09h0c-.71-2.15-2.1-4.09-5.17-3.6a12.41,12.41,0,0,0-8.91,5.9c-3.72,6.76-4.45,17.09,0,23.84A7.46,7.46,0,0,0,241,40.11a12.28,12.28,0,0,0,3.44-.43c7-3.45,6.32-16.26,5.47-25a16.33,16.33,0,0,1-.3-2.58Z" style="fill:#2061cc"/><path d="M205.65,14.22c24.11,16.33,25,29.45,41.08,68.8,3.6,8.21,24.43,53.75,24.43,53.75l5.86,13c.87,2,3.76,3.3,5.9,5.46a29.56,29.56,0,0,1,3.31,3.58,15.52,15.52,0,0,1-11,26.52c-5.86,0-11.78-3.23-14.61-10.36a15.54,15.54,0,0,1-.85-9.66c.35-3.55,1.26-5.29.55-7.88,0,0-2.69-6.57-5.48-12.67-3.8-8.18-22.67-58.47-24.67-64.53-4.89-14.19-9.78-28.43-17.11-41.38-3.74-6-8.14-9.26-15.66-14.19-14.33-9.15-21.84-11.07-34.63-12.49-1.86-1.31-2.69-3.69-1.42-7.49s4.73-4,7.76-3.72C192.22,3,201.67,11.36,205.65,14.22Z" style="fill:#2061cc"/><path d="M160.11,63.81c3-.16,5.88-.16,8.75-.28,9.92-.16,20.22-.45,27.74-5.18,4.55-2.5,7.17,3.54,8.47,6a132.89,132.89,0,0,1,5.74,14.78,146.64,146.64,0,0,0,5.61,14.38c2,6.47.06,9.56-2.87,18.25-1.19,3.55-20.83,54.31-23.13,60.05-2,6.75-7.92,8.77-13.52,10.77a111,111,0,0,1-28.43,4.89,120.29,120.29,0,0,1-16.1-1c-3.15-.59-4.31-.25-5.46-2.41.29-3.31.57-6.76.87-10.2,1-9.78,2-20-.3-29.48a8,8,0,0,1,3.88-8.89,23.39,23.39,0,0,1,10.49-2.43,68.14,68.14,0,0,1,12.06,1.58c1.45.28,2.89.58,4.32.85a37.18,37.18,0,0,0,5.74.44c6.61,0,12.65-2.16,17.24-7.47.3-.15,12.08-12.57,5.17-21.58-2.87-3.7-7.76-4.71-12.35-4.71A40.81,40.81,0,0,0,162.55,104c-6.76,1.59-11.21,8.34-12.66,15.09-4.16,3.3-9.76,4.31-15.52,4.31-4.59,0-19.38-1.14-20.53-1.14a26.33,26.33,0,0,1-10.21-1.59,19.34,19.34,0,0,1-2.88-3.44c-2.14-2.89-4.37-6.3-7.9-6-8,.47-24.5,44.86-22.59,47.89.14.6.08.69.22,1.31l.18.51a15.67,15.67,0,0,1,1,5.55,15.52,15.52,0,1,1-21.86-14.18c.38-.3.8-.59,1.23-.91,8.91-9,16.1-38.77,17.4-46.07-.16-2.32-2.45-3.88-4.61-4.59a196.81,196.81,0,0,0-20.69-1.15c-9.33-.14-18.67-.14-27.15-2.32A4.93,4.93,0,0,1,15,92c.88-2,1.59-4,2.3-5.89,2.74-7.62,5.33-14.94,11.07-21a46.62,46.62,0,0,1,14.37-1.86c2.74,0,8.34.13,8.34.13s5.6.28,8.32.28c1.74,0,3.3,0,5-.12Z" style="fill:#2061cc"/></svg>