<svg id="Layer_1" data-name="Layer 1" xmlns="http://www.w3.org/2000/svg" viewBox="0 0 602.6 213.8"><path d="M92.64,153.27a25.87,25.87,0,1,1-25.86,25.86A25.86,25.86,0,0,1,92.64,153.27Z" style="fill:#fff;stroke:#231f20;stroke-miterlimit:10;stroke-width:0px"/><path d="M92.64,145.23a33.91,33.91,0,1,1-33.9,33.9,34.23,34.23,0,0,1,33.9-33.9v16.1a17.81,17.81,0,1,0,17.82,17.8,18,18,0,0,0-17.82-17.8Z" style="fill:#2061cc"/><path d="M174.41,153.27a25.87,25.87,0,1,1-25.86,25.86A25.87,25.87,0,0,1,174.41,153.27Z" style="fill:#fff;stroke:#231f20;stroke-miterlimit:10;stroke-width:0px"/><path d="M174.41,145.23a33.91,33.91,0,1,1-33.9,33.9,34.22,34.22,0,0,1,33.9-33.9v16.1a17.81,17.81,0,1,0,17.81,17.8,18,18,0,0,0-17.81-17.8Z" style="fill:#2061cc"/><path d="M529.93,153.27a25.87,25.87,0,1,1-25.86,25.86A25.87,25.87,0,0,1,529.93,153.27Z" style="fill:#fff;stroke:#231f20;stroke-miterlimit:10;stroke-width:0px"/><path d="M529.93,145.23A33.91,33.91,0,1,1,496,179.13a34.23,34.23,0,0,1,33.89-33.9v16.1a17.81,17.81,0,1,0,17.82,17.8,18,18,0,0,0-17.82-17.8Z" style="fill:#2061cc"/><path d="M10.49,1.1c-5.86,0-8.35,3.44-8.31,7.74V171.21c.08,6.31,4.65,8,7.58,8.17.3,0,22.71,0,24.87,0,5.33,0,6.79-1.7,7.84-7.82,1.9-12.63,16.07-41.63,51.36-41,11.76.22,80.67,0,80.67,0,44.21.63,50.28,36,50.37,36.13,1.47,6.12,3,12.69,9.07,12.69H470.1c7.11.06,5.6-6.23,10.43-15.78,6.28-13.26,20.67-33.36,50.22-33.36,34.78,0,46.7,30.1,51.73,40.14,1,2,3.07,5.32,10.31,5.28,3.57,0,5.53.12,7.51-2.71s1.82-63.4-3.35-72.58c-2.3-3.75-6.32-4.76-10.2-5.61-4.89-1.28-8.35-1.32-8.33-8.61l-8-61.79c0-2.87,6.89-2.51,9.19-3.88,3.42-1.84,6-3.74,5-8.18-1.43-5-6.64-10.85-19.25-11.2C560.76,1,10.49,1.1,10.49,1.1Z" style="fill:#2061cc"/><path d="M28.79,20.14c-6.56.14-8.56,4.14-8.61,11.21V92.56c-.15,4.56,1.72,7.51,6.17,7.45h73.71c7.9-.12,5.74-7.88,5.74-7.88-.57-4.46-9.3-62.74-9.3-62.74-.93-6.79-3.61-9.11-8.52-9.25Z" style="fill:#fff"/><path d="M304.92,20.14c-8.24,0-9.86,5-8.35,12.83l8.63,58.39c.51,4.71,2.91,8.69,7.34,8.65h61.08c5.25,0,8.67-3.25,7.27-11.13l-10.2-58.62c-1.21-7.94-3.29-10.1-9.76-10.12Z" style="fill:#fff"/><path d="M120.63,20.14c-8.23,0-9.86,5-8.35,12.83l8.63,58.39c.51,4.71,2.91,8.69,7.37,8.65h61.05c5.25,0,8.68-3.25,7.27-11.13L186.41,30.26c-1.21-7.94-3.29-10.1-9.77-10.12Z" style="fill:#fff"/><path d="M396.88,20.14c-8.23,0-9.86,5-8.37,12.83l8.63,58.39c.52,4.71,2.91,8.69,7.37,8.65h61.05c5.25,0,8.68-3.25,7.29-11.13L462.64,30.26c-1.21-7.94-3.29-10.1-9.77-10.12Z" style="fill:#fff"/><path d="M212.6,20.14c-8.24,0-9.86,5-8.38,12.83l8.63,58.39c.52,4.71,2.92,8.69,7.37,8.65h61.06c5.25,0,8.67-3.25,7.29-11.13L278.35,30.26c-1.21-7.94-3.29-10.1-9.76-10.12Z" style="fill:#fff"/><path d="M488.83,20.14c-8.24,0-9.86,5-8.36,12.83l8.62,58.39c.51,4.71,2.93,8.69,7.36,8.65h61.08c5.23,0,8.67-3.25,7.27-11.13L554.6,30.26c-1.23-7.94-3.31-10.1-9.78-10.12Z" style="fill:#fff"/></svg>