<svg id="Layer_1" data-name="Layer 1" xmlns="http://www.w3.org/2000/svg" viewBox="0 0 336.32 230.23"><path d="M275.83,113.58c.41,0,2.08-.23,2.47-.21a58.06,58.06,0,1,1-45.67,20.73c.33-.4,1.94-1.94,2.28-2.34L241,145.85a44.26,44.26,0,1,0,40.28-18.51Z" style="fill:#2061cc"/><path d="M98.67,128.31c.32.28,1.68,1.25,2,1.55a58.07,58.07,0,1,1-47.54-16.08c.52-.08,2.76-.1,3.27-.16l-5.21,14.44a44.25,44.25,0,1,0,42.05,14Z" style="fill:#2061cc"/><path d="M249.54,9.27a4.28,4.28,0,0,1,4.31,4.31c.2,2.81.44,5,.72,7.76.86,7,1.86,14.35-3.59,20-1.72,1.72-4.18,1.88-6.77,1.88s-5.44.28-7.46,2.57c.57,14.38,5.9,26.73,11.2,39.09,3.6,8.19,24.43,53.73,24.43,53.73l5.86,13.05c.87,2,3.77,3.31,5.9,5.46.16.14,3.05,3.09,3.05,3.09a16.47,16.47,0,0,1,1.33,1.31,15.52,15.52,0,1,1-27,12.27v-.45a9,9,0,0,1-.12-1.64c-.08-1.47-.18-3.14-.12-4.5.18-3.55,1.05-5.28.33-7.88,0,0-2.69-6.57-5.48-12.67-3.8-8.16-22.67-58.47-24.67-64.5-4.89-14.22-9.78-28.46-17.1-41.38-3.75-6-8.14-9.29-15.67-14.22C184.34,17.38,176.84,15.44,164,14c-1.86-1.31-2.69-3.68-1.42-7.49s4.73-4,7.76-3.72C193.45,4.75,206.87,16,206.87,16l21,17a1.51,1.51,0,0,0,.43.14,2.55,2.55,0,0,0,1,.14,1.45,1.45,0,0,0,1.43-.85,54.84,54.84,0,0,0,1.88-5.19C235.6,18.89,238.9,9.27,249.54,9.27Z" style="fill:#2061cc"/><path d="M159.45,83.41c7.9,0,15.82-.29,21.54-5.78,3.61-2.3,6.91-6,10.66-8.73,8.59-9.56,12.92-6.61,12.92-6.61,8.34,8.9,13.11,15.54,17.39,30.45,2.35,9.85-.44,15.08-3.61,22-1.14,2.3-12.77,33.46-14.07,38.49-5,14.81-16.24,33.48-31.9,38.94a51.16,51.16,0,0,1-12.22,1.45A110.62,110.62,0,0,1,143.65,192c-4.31-.58-13.62-.81-14.08-2.89s.86-6.89,1.59-10c.71-3.47,1-13.66.41-15.25-1-3.58-2.29-7.6,2.46-9.76a93.26,93.26,0,0,1,14.22-.87c2.59,0,5.32,0,8,.16l8.2.14a105,105,0,0,0,15.09-1c8.91.38,17-28.12,18-31.33,1.25-4.07,3.49-8.25,1.45-11.2-3.88-4.16-9.05-5.46-14.51-5.46A85.59,85.59,0,0,0,171.23,106c-3,.58-54.44,2.16-56.74,2.16-7.48,0-14.65,1-19.54,6.75-4.6,7.33-14.73,32.95-17.68,40.37-2.83,8.22-.63,9.68-.36,13.41a16.54,16.54,0,0,1-.89,6.49,15.52,15.52,0,0,1-30.67-3.39A13.85,13.85,0,0,1,48,163.2l.19-.44A14.43,14.43,0,0,1,51.29,159c4.61-3.72,6.42-1.48,10.59-10.43,3.43-7.33,6.67-19.56,9.21-27.52,2.42-6.93.57-10.2-3.15-12.08h-.73c-2.3,0-3.15,2.16-4.16,4.18-.29.71-.57,1.28-.87,1.86a29.72,29.72,0,0,0-1.86,3.6,51.41,51.41,0,0,1-2.79,5.09c-1.55,2.4-3.47,3.76-10.06,5.09L35.61,120c5.7-3.94,3.82-7.44,2.57-9.3-3.58-2.72-8-3-12.63-3.31-4.17-.14-8.19-.42-11.34-2.58-.54-7.74,15-21,21.68-21Z" style="fill:#2061cc"/></svg>