<svg id="Layer_1" data-name="Layer 1" xmlns="http://www.w3.org/2000/svg" viewBox="0 0 385.85 207.3"><path d="M326.81,153.25a23,23,0,1,1-23,23A23,23,0,0,1,326.81,153.25Z" style="fill:#fff;stroke:#231f20;stroke-miterlimit:10;stroke-width:0px"/><path d="M326.81,146.36a29.88,29.88,0,1,1-29.9,29.88,30.15,30.15,0,0,1,29.9-29.88v13.78a16.1,16.1,0,1,0,16.07,16.1,16.25,16.25,0,0,0-16.07-16.1Z" style="fill:#2061cc"/><path d="M62.57,153.25a23,23,0,1,1-23,23A23,23,0,0,1,62.57,153.25Z" style="fill:#fff;stroke:#231f20;stroke-miterlimit:10;stroke-width:0px"/><path d="M62.57,146.36A29.88,29.88,0,1,1,32.7,176.24a30.16,30.16,0,0,1,29.87-29.88v13.78a16.1,16.1,0,1,0,16.1,16.1,16.24,16.24,0,0,0-16.1-16.1Z" style="fill:#2061cc"/><path d="M288.69,1.5C285,1.43,282.2,5,282.18,10.11v109.6c-.08,4.26-2.87,6-8.2,5.9H10.76c-6.48-.08-9,2-9,6.46V170c.18,3.39,2.1,4.16,4.83,4h11c6.45,0,10.59-12.2,10.59-12.2s3.76-7.58,7.09-11.12c6.81-7.81,15-12.46,29.26-12.46a36.46,36.46,0,0,1,3.88.26c16.81,2.3,25.42,14,30.75,26.61,2.16,7.9,8.61,9.2,15.66,9.2H277.15s6.24.23,8.34-2.73c1.24-1.79,3.12-5.55,5.74-11.65,2.29-4.71,5.07-8.35,9.76-13.64,9.54-9.05,21.32-9.94,31.18-9.32,6.28.61,16.06,5.18,20.69,9.82a71.77,71.77,0,0,1,9.8,12.11c1.84,3.11,3.42,6.22,6.44,8.79a7,7,0,0,0,3.88,1,10.34,10.34,0,0,0,4.45-1c8-4.16,7.11-11.84,7.19-21.54V97.48c-.58-8.77-3.17-17-5.76-25.17-2-6-17.52-57.18-20.26-63.35a9.53,9.53,0,0,1-.41-1h0c-1.31-2.87-3-6.32-7.05-6.48h-3.31Z" style="fill:#2061cc"/><path d="M262,1.26H9.19C5.61,1.26,2,3.08,2,8.3V98.82c-.06,4.34,2.91,6.64,6.61,6.75H261.19c5.17,0,7.49-2.51,7.53-7.38V9C268.7,4.78,265.67,1.26,262,1.26Z" style="fill:#2061cc"/><path d="M343.1,15H299.36c-3.3,0-4.83,2.52-4.91,5.67,0,1,0,52.35,0,52.35,0,4.51,2.38,5,5.83,5h52c6.23,0,14.71,1.19,12.35-6.89L349,19S347.36,15,343.1,15Z" style="fill:#fff"/></svg>