<svg id="Layer_1" data-name="Layer 1" xmlns="http://www.w3.org/2000/svg" viewBox="0 0 368.27 252.24"><path d="M15.14,110H1.5V127.7H15.14Z" style="fill:#2061cc"/><path d="M254.65,193.24a51.41,51.41,0,0,1,79.31,0h32.75V103.71H303.93L303.65,3.13H272.9L273,104.58H249.62V68.82H226.77v35.64H200.34L143.44,4.71l-126-.39L17.3,141.09a78.27,78.27,0,0,1,136.93,52Z" style="fill:#2061cc"/><path d="M39.27,29.58h0V67.36H80.52V29.58Z" style="fill:#fff"/><path d="M99.92,29.58h0V67.36h60.62L140.13,29.58Z" style="fill:#fff"/><path d="M75.92,250.54a57.46,57.46,0,1,0-57.47-57.46,57.44,57.44,0,0,0,57.47,57.46Z" style="fill:#2061cc"/><path d="M294.3,250.85a31.62,31.62,0,1,0-31.62-31.64,31.59,31.59,0,0,0,31.62,31.64Z" style="fill:#2061cc"/></svg>