<svg id="Layer_1" data-name="Layer 1" xmlns="http://www.w3.org/2000/svg" viewBox="0 0 270.59 232.68"><path d="M12.61,118.81H2.55v14.37H12.61Z" style="fill:#2061cc"/><path d="M268.62,171.83,258.29,95.09l-30.75-6v-29H205.41l-.28,31.32-26.29-.44L128.41,1.56H14V140.79a33.44,33.44,0,0,0,2.46-2.74l.14-.11a56.66,56.66,0,0,1,10.63-10c7.62-5.74,14.37-8.31,24.71-9.89A75,75,0,0,1,64.62,117c11.92,0,22.69,3.12,34.33,10,14.23,8.51,24.87,22.13,28.88,44.86h46.42a42.88,42.88,0,0,1,69.82,0ZM111.74,182.17h0A48.78,48.78,0,1,0,62.9,231a48.89,48.89,0,0,0,48.84-48.86Z" style="fill:#2061cc"/><path d="M178.26,199.71a30.82,30.82,0,1,0,30.89-30.77,30.8,30.8,0,0,0-30.89,30.77Z" style="fill:#2061cc"/><path d="M123.38,24H87.17v33.9h54.6Z" style="fill:#fff"/><path d="M69.79,24H32.72v33.9H69.79Z" style="fill:#fff"/></svg>