<svg id="Layer_1" data-name="Layer 1" xmlns="http://www.w3.org/2000/svg" viewBox="0 0 731.48 211.58"><path d="M58.5,148a27,27,0,1,1-27,27A27,27,0,0,1,58.5,148Z" style="fill:#fff;stroke:#231f20;stroke-miterlimit:10;stroke-width:0px"/><path d="M58.5,139.89a35.06,35.06,0,0,1,0,70.11,35.06,35.06,0,1,1,0-70.11V156a19,19,0,1,0,19,19,19.15,19.15,0,0,0-19-19Z" style="fill:#2061cc"/><path d="M263.91,148a27,27,0,1,1-27,27A27,27,0,0,1,263.91,148Z" style="fill:#fff;stroke:#231f20;stroke-miterlimit:10;stroke-width:0px"/><path d="M263.91,139.89A35.06,35.06,0,1,1,228.86,175a35.4,35.4,0,0,1,35.05-35.07V156a19,19,0,1,0,19,19,19.15,19.15,0,0,0-19-19Z" style="fill:#2061cc"/><circle cx="669.86" cy="175.43" r="27" style="fill:#fff;stroke:#231f20;stroke-miterlimit:10;stroke-width:0px"/><path d="M669.86,140.37c18.67,0,35.06,16.41,35.06,35.06a35.06,35.06,0,1,1-35.06-35.06v16.09a19,19,0,1,0,19,19c0-9.88-9.07-19-19-19Z" style="fill:#2061cc"/><circle cx="416.79" cy="175.43" r="27" style="fill:#fff;stroke:#231f20;stroke-miterlimit:10;stroke-width:0px"/><path d="M416.79,140.37a35.06,35.06,0,1,1-35.06,35.06,35.4,35.4,0,0,1,35.06-35.06v16.09a19,19,0,1,0,19,19,19.16,19.16,0,0,0-19-19Z" style="fill:#2061cc"/><path d="M433.1,34.57c-4.47,0-7.78,2.35-10.68,5.46-1.27,1.38-51.18,51.3-52,52-3.8,3.49-5.58,8-6.35,12.91-.74,4.49-.79,31.18-.95,33.78-.28,9.91-.58,20.39,4.18,27.87a3.51,3.51,0,0,0,2.43,1.15,2.37,2.37,0,0,0,1.29-.3c.73-.65,6.61-14.35,11.06-19.67,7.69-9.59,19.64-15.43,30.61-16.72a51.77,51.77,0,0,1,20.89,2.56c18.55,6.63,23.84,23.48,24.73,25.8,2,5.46,3.72,14.39,10,14.35H615c4.85-.12,9.22-.93,10.35-4.59a75.68,75.68,0,0,1,10.48-23c9.24-12.35,21.78-16.51,36.86-16.51a65.59,65.59,0,0,1,9.54,1.19c11.6,3.78,16.28,7.56,23,16.33a43.75,43.75,0,0,1,5.15,8.34c1.72,4,3.44,8,6.89,11.06a5,5,0,0,0,2.43.58c2.6,0,4.75-1.88,6.62-3.61,2.73-2.73,3-6,3.16-9.32.14-1.15.28-2.32.44-3.47.71-16.23,1.2-30.78-.87-47.4-.08-3.92-2.6-6.75-7.6-6.91,0,0-73.1.44-74-1-11.92-6.91-43.8-55.86-47.5-58.59-1.23-.91-3.36-2.33-9.25-2.33Z" style="fill:#2061cc"/><path d="M483.77,52.38H434.83c-13.15.1-18.79,9.65-29.44,20.26-.79.77-5.39,5.24-7.19,7.19-5.18,5.62-20.39,21,.14,20.82h87.37c3.78,0,5.52-1.66,5.52-5.44V60.92C491.21,54.62,490.17,52.42,483.77,52.38Z" style="fill:#fff"/><path d="M511.13,52.38c-4.47,0-6.57,2.67-6.57,7.67V96c0,4.49,1.36,4.63,5.52,4.67H615.29c11,0,12.06-4.47,9.05-8.91l-27-36.43a6.41,6.41,0,0,0-5.3-2.93C589.77,52.4,511.13,52.38,511.13,52.38Z" style="fill:#fff"/><path d="M11.08.65C2.74.43,1.43,4,1.3,9V169.33c0,3.95,3,4.48,6,4.48,5.86,0,5.86-4.32,7.18-9.78.28-2.89,12.87-37.24,46.25-37.24s43.68,32.48,44.11,35.06c1.59,10.93,4.38,11.92,8.72,11.92h92.12c6.49-.12,7.32-5,9.8-11.48,0-.6,13-37.66,49.42-37.66S311.86,154.7,313,159.55c.77,4.2,2,9.9,5,9.72h5.9c5.54-.05,5.5-2.67,5.54-12.51V6.85c-.2-4.24-2.83-6.2-7.64-6.2Z" style="fill:#2061cc"/><path d="M26.42,21.63c-5.23,0-6.24,1.69-6.16,6.74V84.72c0,4.27.81,6.33,5.75,6.29H303.58c5.17.08,6.26-2.87,6.32-6.61,0,0,.16-53,0-53.73,0-6.76-1.15-8.93-6.89-9Z" style="fill:#fff"/></svg>