<svg id="Layer_1" data-name="Layer 1" xmlns="http://www.w3.org/2000/svg" viewBox="0 0 284.35 180.7"><path d="M21.34,126c0,19.08,16,34.9,35.07,34.9A35.27,35.27,0,0,0,91.31,126c0-19-15.81-35.11-34.9-35.11A35.41,35.41,0,0,0,21.34,126H4.1c0-28.52,23.78-52.33,52.31-52.33s52.15,23.9,52.15,52.33-23.78,52.15-52.15,52.15S4.1,154.44,4.1,126Z" style="fill:#2061cc"/><path d="M47.06,123.51h0a10,10,0,0,0,10.06,10.22,10.22,10.22,0,0,0,0-20.43,10,10,0,0,0-10.06,10.21Zm8.62.22a1,1,0,0,0,0,.34,1.35,1.35,0,0,0,.47.71,1.54,1.54,0,0,0,.6.3,1.75,1.75,0,0,0,.33,0,1.62,1.62,0,0,0,1.56-1.61,1.59,1.59,0,0,0-1.56-1.58,1.2,1.2,0,0,0-.39,0,1.4,1.4,0,0,0-.54.28,1.24,1.24,0,0,0-.49.77,1.37,1.37,0,0,0,0,.28v.43l-17.25-.43v.43a18.61,18.61,0,0,1,13.8-18.39,18.25,18.25,0,0,1,4.89-.66,18.84,18.84,0,0,1,0,37.68A18.73,18.73,0,0,1,39,128.26a18.79,18.79,0,0,1-.56-5Z" style="fill:#2061cc;stroke:#231f20;stroke-width:0px"/><path d="M125.51,122.21h0A11.29,11.29,0,1,0,136.85,111a11.28,11.28,0,0,0-11.34,11.21Zm8.61,0a2.72,2.72,0,0,0,2.73,2.75,2.67,2.67,0,0,0,2.59-2.75,2.63,2.63,0,0,0-2.59-2.6,2.67,2.67,0,0,0-2.73,2.6H116.87a19.91,19.91,0,1,1,20,20,20.08,20.08,0,0,1-20-20Z" style="fill:#2061cc;stroke:#231f20;stroke-width:0px"/><path d="M196.19,126.24c0,19,15.84,35.07,34.92,35.07a35.35,35.35,0,0,0,35-35.07c0-19.06-16-34.92-35-34.92a35.3,35.3,0,0,0-34.92,34.92H178.94c0-28.39,23.78-52.17,52.17-52.17s52.29,23.71,52.29,52.17-23.78,52.29-52.29,52.29-52.17-23.85-52.17-52.29Z" style="fill:#2061cc"/><path d="M221.05,126.24h0a10.09,10.09,0,0,0,10.06,10.18,10.12,10.12,0,1,0,0-20.23,10,10,0,0,0-10.06,10Zm8.62,0a1.51,1.51,0,0,0,1.44,1.57,1.59,1.59,0,0,0,1.56-1.57,1.51,1.51,0,0,0-1.56-1.42,1.4,1.4,0,0,0-1.44,1.42H212.42a18.75,18.75,0,1,1,18.69,18.81,18.82,18.82,0,0,1-18.69-18.81Z" style="fill:#2061cc;stroke:#231f20;stroke-width:0px"/><path d="M46.75,123.75Q60.31,91.83,73.89,59.92l15.86,6.75Q76.18,98.56,62.61,130.5ZM100.8,55.11Q122.87,84.57,144.91,114l-13.8,10.33L87,65.44Zm120.75,67.16c-2.26-18.22-4.77-36.44-7.19-54.65-.06-.59-.11-1.21-.2-1.8,0-.22-.06-.4-.07-.6,0-.45-.08-.89-.08-1.34l.08,1.11c-.87-6.7-1.77-13.37-3.07-20-.22-1.17-.46-2.32-.7-3.48-.47-2.32-.93-4.64-1.36-7l.2.85c-1.86-6.5-5.37-12.67-12.1-14.93l2.1.42a207.78,207.78,0,0,0-28.45,0L169.66,3.69a228.8,228.8,0,0,1,30.76,0l1.07.08,1,.34c12.18,4.07,19.74,14.51,23.21,26.49l.12.41.07.44c.4,2.22.85,4.41,1.29,6.63.26,1.19.5,2.38.72,3.59,1.38,7,2.33,14,3.24,21.1l.08.55v.56a4.87,4.87,0,0,1,0-.54,1.17,1.17,0,0,0,0,.26c.06.59.14,1.17.18,1.76,2.43,18.26,5,36.51,7.21,54.81Z" style="fill:#2061cc"/><path d="M31.27,41.62h0V66.49h78.16a7.62,7.62,0,0,0,5.6-2.73A14.38,14.38,0,0,0,118.62,54a14.35,14.35,0,0,0-3-9.07,8.18,8.18,0,0,0-6.34-3.29Z" style="fill:#2061cc"/><path d="M144.91,129.69v31.2h-13.8v-31.2Z" style="fill:#2061cc"/><path d="M131.11,152.69h24.57V166.5H131.11Z" style="fill:#2061cc"/><path d="M220.2,35.29h0c0,4.16,2.3,7.6,5.17,7.6s5.17-3.44,5.17-7.6-2.3-7.61-5.17-7.61-5.17,3.45-5.17,7.61Zm8.61,0a1.56,1.56,0,0,0,.11.65c.07.18-.24-.35-.38-.49a6.35,6.35,0,0,0-.74-.54l-.57-.28c-.47-.17-2-.39-1.46-.35a2.67,2.67,0,0,1-.4,0,2.94,2.94,0,0,1-.42,0c.5,0-1,.18-1.46.35a4.84,4.84,0,0,0-1,.56c-.28.22-.83,1.07-.69.75a1.41,1.41,0,0,0,.1-.65,1.48,1.48,0,0,0-.1-.66c-.08-.17.23.36.39.5a3.9,3.9,0,0,0,.73.53,3.66,3.66,0,0,0,.56.28c.48.2,2,.4,1.46.36a2.94,2.94,0,0,1,.42,0,2.67,2.67,0,0,1,.4,0c-.5,0,1-.16,1.46-.36a4.17,4.17,0,0,0,1-.55c.28-.2.83-1,.7-.76a1.7,1.7,0,0,0-.11.66H211.57a18.92,18.92,0,0,1,1.61-7.7c2-4.52,6.15-8.08,11.22-8.48a8,8,0,0,1,1,0,7.87,7.87,0,0,1,1,0c5.07.4,9.19,4,11.21,8.48a19.33,19.33,0,0,1,0,15.4c-2,4.51-6.12,8.08-11.19,8.48-.34,0-.67,0-1,0s-.65,0-1,0c-5.07-.4-9.19-4-11.22-8.48a19,19,0,0,1-1.61-7.7Z" style="fill:#2061cc;stroke:#231f20;stroke-width:0px"/><path d="M222.64,47.05l-7.33-12.79-74.58,73.45-8.31,4.44H65.16l.3,23.44,80.46-.16,7.6-9L164.59,117l12.93-15.49L185,92.19l37.66-45.14Z" style="fill:#2061cc"/></svg>