<?xml version="1.0" encoding="utf-8"?>
<svg width="19px" height="19px" viewbox="0 0 19 19" version="1.1" xmlns:xlink="http://www.w3.org/1999/xlink" xmlns="http://www.w3.org/2000/svg">
  <g id="ui-panelleftitem01-link02-with-icon01-enabled" transform="translate(0.100097656 0.1000061)">
    <g id="icon">
      <g id="icon">
        <path d="M8.75 5.55112e-16C3.91751 -2.77556e-16 5.55112e-16 3.91751 0 8.75C-5.55112e-16 13.5825 3.91751 17.5 8.75 17.5C13.5825 17.5 17.5 13.5825 17.5 8.75C17.5 6.42936 16.5781 4.20376 14.9372 2.56282C13.2962 0.921872 11.0706 2.77556e-16 8.75 5.55112e-16ZM8.75 16.25C4.60786 16.25 1.25 12.8921 1.25 8.75C1.25 4.60786 4.60786 1.25 8.75 1.25C12.8921 1.25 16.25 4.60786 16.25 8.75C16.25 12.8921 12.8921 16.25 8.75 16.25L8.75 16.25ZM8.75 6.375C9.26777 6.375 9.6875 5.95527 9.6875 5.4375C9.6875 4.91973 9.26777 4.5 8.75 4.5C8.23223 4.5 7.8125 4.91973 7.8125 5.4375C7.8125 5.95527 8.23223 6.375 8.75 6.375ZM8.75 12.375C9.26777 12.375 9.6875 11.5076 9.6875 10.4375C9.6875 9.36745 9.26777 8.5 8.75 8.5C8.23223 8.5 7.8125 9.36745 7.8125 10.4375C7.8125 11.5076 8.23223 12.375 8.75 12.375Z" transform="translate(0.25 0.25)" id="Fill" fill="#0A008E" fill-rule="evenodd" stroke="none" stroke-width="0.2" />
      </g>
    </g>
  </g>
</svg>