<?xml version="1.0" encoding="UTF-8"?>
<svg width="114px" height="117px" viewBox="0 0 114 117" version="1.1" xmlns="http://www.w3.org/2000/svg" xmlns:xlink="http://www.w3.org/1999/xlink">
    <title>Group 11</title>
    <defs>
        <rect id="path-1" x="0" y="0" width="90" height="93" rx="9.9"></rect>
        <filter x="-21.7%" y="-17.7%" width="143.3%" height="141.9%" filterUnits="objectBoundingBox" id="filter-2">
            <feMorphology radius="2" operator="dilate" in="SourceAlpha" result="shadowSpreadOuter1"></feMorphology>
            <feOffset dx="0" dy="3" in="shadowSpreadOuter1" result="shadowOffsetOuter1"></feOffset>
            <feGaussianBlur stdDeviation="4" in="shadowOffsetOuter1" result="shadowBlurOuter1"></feGaussianBlur>
            <feColorMatrix values="0 0 0 0 0.450980392   0 0 0 0 0.396078431   0 0 0 0 1  0 0 0 0.169006774 0" type="matrix" in="shadowBlurOuter1"></feColorMatrix>
        </filter>
    </defs>
    <g id="Invision-Flow" stroke="none" stroke-width="1" fill="none" fill-rule="evenodd">
        <g id="empty2a" transform="translate(-130.000000, -291.000000)">
            <g id="Group-9" transform="translate(20.000000, 140.000000)">
                <g id="Group-4" transform="translate(20.000000, 160.000000)">
                    <g id="Group-11" transform="translate(102.000000, 0.000000)">
                        <g id="Button/Illustration">
                            <g id="Rectangle-Copy">
                                <use fill="black" fill-opacity="1" filter="url(#filter-2)" xlink:href="#path-1"></use>
                                <use fill="#483DE1" fill-rule="evenodd" xlink:href="#path-1"></use>
                            </g>
                            <text id="Führerschein" font-family="IBMPlexSans-Bold, IBM Plex Sans" font-size="12" font-weight="bold" fill="#FFFFFF">
                                <tspan x="7.47927273" y="73.3236246">Führerschein</tspan>
                            </text>
                            <g id="noun_Car-Repair_4183231" transform="translate(20.242424, 21.669903)" fill="#FFFFFF" fill-rule="nonzero">
                                <path d="M33.9575041,7.67678228 L33.6780378,6.03741963 C33.6780378,6.03724268 33.6780378,6.03724268 33.6780378,6.03724268 C33.6033909,5.60072811 33.2062546,5.27798688 32.7491801,5.27798688 C32.7410903,5.27798688 32.7330005,5.27816383 32.7252784,5.27834077 L30.2634011,5.33885476 C29.7960305,5.35000206 29.4132352,5.68194424 29.3532971,6.12907534 L29.310205,6.45152903 L28.0478954,1.7646372 C27.7680614,0.725636935 26.7939743,0 25.6786832,0 L8.2911002,0 C7.17580909,0 6.20153818,0.725636935 5.92188803,1.76446025 L4.65939452,6.45181653 L4.61630248,6.12907531 C4.55673205,5.6822981 4.17412098,5.35000206 3.70656655,5.33885472 L1.24450539,5.27834074 C0.78761461,5.26737038 0.36712818,5.59311958 0.291561966,6.03741963 L0.0122795519,7.67713614 C-0.0298242472,7.92450031 0.0374682773,8.18000377 0.196874394,8.37817821 C0.356096644,8.57599875 0.596033143,8.70268885 0.85435561,8.72533736 L3.14935769,8.93032403 L1.59347056,12.2684132 C1.31860075,12.858336 1.17316799,13.5154966 1.17316799,14.1691184 L1.17316799,16.4282406 C1.05434869,16.6186739 0.981770168,16.8388333 0.981770168,17.0766205 L0.981770168,19.3230693 C0.981770168,19.5608565 1.05434866,19.7810159 1.17316799,19.9714492 L1.17316799,22.7479483 C1.17316799,23.6471648 1.93324274,24.3786408 2.86761618,24.3786408 L5.02042548,24.3786408 C5.95479892,24.3786408 6.71487366,23.6471648 6.71487366,22.7479483 L6.71487366,20.5913857 L27.254726,20.5913857 L27.254726,22.7479483 C27.254726,23.6471648 28.0148007,24.3786408 28.9491742,24.3786408 L31.1021677,24.3786408 C32.0365411,24.3786408 32.7966159,23.6471648 32.7966159,22.7479483 L32.7966159,19.9711174 C32.9153201,19.7807726 32.9878296,19.5607238 32.9878296,19.3230693 L32.9878296,17.0766205 C32.9878296,16.838966 32.9153201,16.6189172 32.7966159,16.4285724 L32.7966159,14.1691184 C32.7966159,13.5162044 32.6513669,12.8590438 32.3763133,12.2684132 L30.820587,8.93034613 L33.1146926,8.72569122 C33.3735666,8.70268881 33.613687,8.57599875 33.7729093,8.37817817 C33.9321315,8.18000381 33.999424,7.92450031 33.9575041,7.67678228 Z M7.01548372,2.03712704 C7.16606455,1.47781509 7.69061544,1.08712834 8.2911002,1.08712834 L25.6786832,1.08712834 C26.279168,1.08712834 26.8039027,1.47781509 26.9542997,2.03730399 L28.4870895,7.72844918 L5.48255602,7.72844918 L7.01548372,2.03712704 Z M1.15974604,7.66085755 L1.37982591,6.36918489 L3.51645594,6.42173649 L3.71226618,7.88875814 L1.15974604,7.66085755 Z M2.30280008,14.1691184 C2.30280008,13.6818659 2.40953047,13.1938392 2.60844333,12.7529232 L6.72057326,13.9543115 C6.80036825,13.9776677 6.85405519,14.0473826 6.85405519,14.1277141 L6.85405519,15.8083041 L2.30280008,15.8083041 L2.30280008,14.1691184 Z M5.5852415,22.7479483 C5.5852415,23.0476871 5.33188324,23.2915124 5.02042544,23.2915124 L2.86761614,23.2915124 C2.55615834,23.2915124 2.30280008,23.0476871 2.30280008,22.7479483 L2.30280008,20.5913857 L5.5852415,20.5913857 L5.5852415,22.7479483 Z M31.6669837,22.7479483 C31.6669837,23.0476871 31.4136255,23.2915124 31.1021677,23.2915124 L28.9491742,23.2915124 C28.6377164,23.2915124 28.3843581,23.0476871 28.3843581,22.7479483 L28.3843581,20.5913857 L31.6669837,20.5913857 L31.6669837,22.7479483 Z M31.8581975,17.0766205 L31.8581975,19.3230693 C31.8581975,19.4228643 31.7736222,19.5042574 31.6699255,19.5042574 L2.29967446,19.5042574 C2.19579391,19.5042574 2.11140244,19.4228643 2.11140244,19.3230693 L2.11140244,17.0766205 C2.11140244,16.9768255 2.19579391,16.8954325 2.29967446,16.8954325 L31.6699258,16.8954325 C31.7736222,16.8954325 31.8581975,16.9768255 31.8581975,17.0766205 Z M31.6669837,14.1691184 L31.6669837,15.8083041 L27.1157282,15.8083041 L27.1157282,14.1277141 C27.1157282,14.0473827 27.1694152,13.9776678 27.2492102,13.9543115 L31.3614554,12.7529453 C31.5602763,13.1944364 31.6669837,13.6826621 31.6669837,14.1691184 Z M30.897693,11.7521865 L26.921205,12.9138957 C26.3619047,13.0773896 25.9860961,13.5650403 25.9860961,14.1277141 L25.9860961,15.8083041 L7.98368731,15.8083041 L7.98368731,14.1277141 C7.98368731,13.5650403 7.6078787,13.0773896 7.04857844,12.9138957 L3.07225168,11.7521865 L4.39107478,8.92245018 C4.42141157,8.85768961 4.4887041,8.81557752 4.56279946,8.81557752 L29.4069841,8.81557752 C29.4808956,8.81557752 29.5485558,8.85768958 29.5790765,8.92280404 L30.897693,11.7521865 Z M30.2571499,7.88911204 L30.453144,6.42173649 L32.5895901,6.36918489 L32.8098537,7.66085755 L30.2571499,7.88911204 Z M23.9507726,12.6750247 C23.9507726,12.9751174 23.6977821,13.2185889 23.3859566,13.2185889 L10.583643,13.2185889 C10.2716336,13.2185889 10.0188269,12.9751174 10.0188269,12.6750247 C10.0188269,12.374932 10.2716336,12.1314605 10.583643,12.1314605 L23.3859565,12.1314605 C23.6977821,12.1314605 23.9507726,12.374932 23.9507726,12.6750247 Z M23.2476943,14.5134465 C23.2476943,14.8135392 22.9947038,15.0570107 22.6828782,15.0570107 L11.2869052,15.0570107 C10.9748958,15.0570107 10.7220891,14.8135392 10.7220891,14.5134465 C10.7220891,14.2133538 10.9748958,13.9698823 11.2869052,13.9698823 L22.6828782,13.9698823 C22.9947038,13.9698823 23.2476943,14.2133538 23.2476943,14.5134465 Z" id="Shape"></path>
                            </g>
                        </g>
                        <g id="Add" transform="translate(62.000000, 35.000000)" stroke="#FFFFFF" stroke-linecap="round" stroke-linejoin="round" stroke-width="1.87900997">
                            <path d="M16,8 C16,12.4185 12.4185,16 8,16 C3.582,16 0,12.4185 0,8 C0,3.582 3.582,0 8,0 C12.4185,0 16,3.582 16,8 Z" id="Stroke-35"></path>
                            <line x1="8" y1="5.2705" x2="8" y2="10.73" id="Stroke-37"></line>
                            <line x1="10.73" y1="8" x2="5.2705" y2="8" id="Stroke-39"></line>
                        </g>
                    </g>
                </g>
            </g>
        </g>
    </g>
</svg>