<?xml version="1.0" encoding="UTF-8"?>
<svg width="114px" height="117px" viewBox="0 0 114 117" version="1.1" xmlns="http://www.w3.org/2000/svg" xmlns:xlink="http://www.w3.org/1999/xlink">
    <title>Group 14</title>
    <defs>
        <rect id="path-1" x="0" y="0" width="90" height="93" rx="9.9"></rect>
        <filter x="-21.7%" y="-17.7%" width="143.3%" height="141.9%" filterUnits="objectBoundingBox" id="filter-2">
            <feMorphology radius="2" operator="dilate" in="SourceAlpha" result="shadowSpreadOuter1"></feMorphology>
            <feOffset dx="0" dy="3" in="shadowSpreadOuter1" result="shadowOffsetOuter1"></feOffset>
            <feGaussianBlur stdDeviation="4" in="shadowOffsetOuter1" result="shadowBlurOuter1"></feGaussianBlur>
            <feColorMatrix values="0 0 0 0 0.450980392   0 0 0 0 0.396078431   0 0 0 0 1  0 0 0 0.169006774 0" type="matrix" in="shadowBlurOuter1"></feColorMatrix>
        </filter>
        <filter x="-34.5%" y="-36.3%" width="169.1%" height="172.7%" filterUnits="objectBoundingBox" id="filter-3">
            <feOffset dx="0" dy="2" in="SourceAlpha" result="shadowOffsetOuter1"></feOffset>
            <feGaussianBlur stdDeviation="1.5" in="shadowOffsetOuter1" result="shadowBlurOuter1"></feGaussianBlur>
            <feColorMatrix values="0 0 0 0 0   0 0 0 0 0   0 0 0 0 0  0 0 0 0.175234921 0" type="matrix" in="shadowBlurOuter1" result="shadowMatrixOuter1"></feColorMatrix>
            <feMerge>
                <feMergeNode in="shadowMatrixOuter1"></feMergeNode>
                <feMergeNode in="SourceGraphic"></feMergeNode>
            </feMerge>
        </filter>
    </defs>
    <g id="Invision-Flow" stroke="none" stroke-width="1" fill="none" fill-rule="evenodd">
        <g id="empty2a" transform="translate(-232.000000, -291.000000)">
            <g id="Group-9" transform="translate(20.000000, 140.000000)">
                <g id="Group-4" transform="translate(20.000000, 160.000000)">
                    <g id="Group-14" transform="translate(204.000000, 0.000000)">
                        <g id="Button/Illustration/Impfzertifikat">
                            <g id="Rectangle-Copy-2">
                                <use fill="black" fill-opacity="1" filter="url(#filter-2)" xlink:href="#path-1"></use>
                                <use fill="#483DE1" fill-rule="evenodd" xlink:href="#path-1"></use>
                            </g>
                            <text id="Impfzertifikat" font-family="IBMPlexSans-Bold, IBM Plex Sans" font-size="12" font-weight="bold" fill="#FFFFFF">
                                <tspan x="5.40751515" y="73.3236246">Impfzertifikat</tspan>
                            </text>
                            <g id="noun_Vaccination_3507489-Copy" filter="url(#filter-3)" transform="translate(23.787879, 19.864078)" fill="#FFFFFF" fill-rule="nonzero">
                                <path d="M30.2111316,6.02659199 L28.4298149,4.33914623 L27.1828932,3.13382783 L24.1546547,0.206626011 C23.8696441,-0.068875337 23.4421281,-0.068875337 23.1571174,0.206626011 C22.8721067,0.482127359 22.8721067,0.895379381 23.1571174,1.17088073 L24.4040391,2.37619913 L21.8745693,4.82127359 L21.625185,4.58020991 C20.8057793,3.78814354 19.4163523,3.78814354 18.5969466,4.58020991 L8.01592525,14.8081975 C7.19651956,15.6002638 7.19651956,16.9088952 8.01592525,17.7353993 L7.26777222,18.4585903 C6.80462988,18.90628 6.55524554,19.526158 6.55524554,20.1804737 C6.55524554,20.5937258 6.66212454,20.9725401 6.84025621,21.3169168 L0.213758007,27.6878855 C-0.0712526689,27.9633868 -0.0712526689,28.3766389 0.213758007,28.6521402 C0.356263344,28.8243285 0.534395017,28.8932039 0.712526689,28.8932039 C0.890658361,28.8932039 1.06879003,28.8243285 1.21129537,28.6865779 L7.83779358,22.2811715 C8.19405692,22.4533599 8.5859466,22.5566729 9.01346261,22.5566729 C9.69036297,22.5566729 10.2960107,22.3156092 10.7947793,21.8679195 L11.5429324,21.1447285 L12.041701,21.6268558 C12.8611067,22.4189222 14.2505338,22.4189222 15.0699395,21.6268558 L24.1190284,12.8452504 L25.6153345,11.3988683 C26.0072241,11.0200539 26.2566085,10.5034889 26.2566085,9.9524862 C26.2566085,9.4014835 26.0428505,8.88491848 25.6153345,8.50610412 L25.4015765,8.23060277 L27.9310462,5.78552831 L29.1779679,6.99084671 C29.3204732,7.12859738 29.4986049,7.19747272 29.6767366,7.19747272 C29.8548683,7.19747272 30.0329999,7.12859738 30.1755053,6.99084671 C30.4605159,6.71534536 30.4605159,6.30209334 30.2111316,6.02659199 Z M24.6534234,10.4001759 L23.6558861,11.3644306 L21.1264163,8.91935615 C20.8414056,8.6438548 20.4138896,8.6438548 20.128879,8.91935615 C19.8438683,9.19485749 19.8438683,9.64254718 20.128879,9.88361086 L22.6583487,12.3286853 L21.1620427,13.7750674 L18.6325729,11.3299929 C18.3475622,11.0544916 17.9200462,11.0544916 17.6350355,11.3299929 C17.3500249,11.6054943 17.3500249,12.0187463 17.6350355,12.2942477 L20.1645053,14.7393221 L18.6681992,16.1857042 L16.1387295,13.7406297 C15.8537188,13.4651284 15.4262028,13.4651284 15.1411921,13.7406297 C14.8561815,14.0161311 14.8561815,14.4293831 15.1411921,14.7048845 L17.6706619,17.1499589 L16.1743558,18.596341 L13.6448861,16.1512665 C13.3598754,15.8757652 12.9323594,15.8757652 12.6473487,16.1512665 C12.362338,16.4267679 12.362338,16.8400199 12.6473487,17.1155213 L15.1768185,19.5605957 L14.0724021,20.6281634 C13.7873914,20.9036648 13.3242491,20.9036648 13.0748647,20.6281634 L12.5760961,20.1460361 C12.0060747,19.5950334 11.1154163,19.5950334 10.545395,20.1460361 L9.79724197,20.8692271 C9.40535229,21.2480415 8.6928256,21.2480415 8.30093592,20.8692271 C8.08717792,20.6626011 7.98029891,20.4215374 7.98029891,20.1460361 C7.98029891,19.8705347 8.08717792,19.5950334 8.30093592,19.422845 L9.04908895,18.699654 C9.58348396,18.1486513 9.58348396,17.2877096 9.04908895,16.7367069 C8.76407827,16.4612055 8.76407827,16.0479535 9.04908895,15.7724522 L19.6301103,5.54446463 C19.7726156,5.40671396 19.9507473,5.33783862 20.128879,5.33783862 C20.3070106,5.33783862 20.4851423,5.40671396 20.6276476,5.54446463 L22.6583487,7.50741174 L24.6890498,9.47035884 C24.8315551,9.60810952 24.9028078,9.78029786 24.9028078,9.9524862 C24.8671814,10.1246745 24.7959288,10.2968629 24.6534234,10.4001759 Z M24.4040391,7.23191039 L22.907733,5.78552831 L25.4372028,3.34045385 L26.9335088,4.78683592 L24.4040391,7.23191039 Z" id="Shape"></path>
                            </g>
                        </g>
                        <g id="Add" transform="translate(55.000000, 35.000000)" stroke="#FFFFFF" stroke-linecap="round" stroke-linejoin="round" stroke-width="1.87900997">
                            <path d="M16,8 C16,12.4185 12.4185,16 8,16 C3.582,16 0,12.4185 0,8 C0,3.582 3.582,0 8,0 C12.4185,0 16,3.582 16,8 Z" id="Stroke-35"></path>
                            <line x1="8" y1="5.2705" x2="8" y2="10.73" id="Stroke-37"></line>
                            <line x1="10.73" y1="8" x2="5.2705" y2="8" id="Stroke-39"></line>
                        </g>
                    </g>
                </g>
            </g>
        </g>
    </g>
</svg>