<?xml version="1.0" encoding="UTF-8"?>
<svg width="114px" height="117px" viewBox="0 0 114 117" version="1.1" xmlns="http://www.w3.org/2000/svg" xmlns:xlink="http://www.w3.org/1999/xlink">
    <title>Group 10</title>
    <defs>
        <rect id="path-1" x="0" y="0" width="90" height="93" rx="9.9"></rect>
        <filter x="-21.7%" y="-17.7%" width="143.3%" height="141.9%" filterUnits="objectBoundingBox" id="filter-2">
            <feMorphology radius="2" operator="dilate" in="SourceAlpha" result="shadowSpreadOuter1"></feMorphology>
            <feOffset dx="0" dy="3" in="shadowSpreadOuter1" result="shadowOffsetOuter1"></feOffset>
            <feGaussianBlur stdDeviation="4" in="shadowOffsetOuter1" result="shadowBlurOuter1"></feGaussianBlur>
            <feColorMatrix values="0 0 0 0 0.450980392   0 0 0 0 0.396078431   0 0 0 0 1  0 0 0 0.169006774 0" type="matrix" in="shadowBlurOuter1"></feColorMatrix>
        </filter>
        <filter x="-26.9%" y="-22.5%" width="153.9%" height="145.0%" filterUnits="objectBoundingBox" id="filter-3">
            <feOffset dx="0" dy="1" in="SourceAlpha" result="shadowOffsetOuter1"></feOffset>
            <feGaussianBlur stdDeviation="1" in="shadowOffsetOuter1" result="shadowBlurOuter1"></feGaussianBlur>
            <feColorMatrix values="0 0 0 0 0   0 0 0 0 0   0 0 0 0 0  0 0 0 0.0800098339 0" type="matrix" in="shadowBlurOuter1" result="shadowMatrixOuter1"></feColorMatrix>
            <feMerge>
                <feMergeNode in="shadowMatrixOuter1"></feMergeNode>
                <feMergeNode in="SourceGraphic"></feMergeNode>
            </feMerge>
        </filter>
    </defs>
    <g id="Invision-Flow" stroke="none" stroke-width="1" fill="none" fill-rule="evenodd">
        <g id="empty2a-copy-2" transform="translate(-29.000000, -293.000000)">
            <g id="Group-9" transform="translate(21.000000, 142.000000)">
                <g id="Group-10" transform="translate(20.000000, 160.000000)">
                    <g id="Rectangle">
                        <use fill="black" fill-opacity="1" filter="url(#filter-2)" xlink:href="#path-1"></use>
                        <use fill="#5AA96F" fill-rule="evenodd" xlink:href="#path-1"></use>
                    </g>
                    <g id="Add" transform="translate(56.000000, 36.000000)" stroke="#FFFFFF" stroke-linecap="round" stroke-linejoin="round" stroke-width="1.87900997">
                        <path d="M16,8 C16,12.4185 12.4185,16 8,16 C3.582,16 0,12.4185 0,8 C0,3.582 3.582,0 8,0 C12.4185,0 16,3.582 16,8 Z" id="Stroke-35"></path>
                    </g>
                    <text id="Basis-ID" font-family="IBMPlexSans-Bold, IBM Plex Sans" font-size="12" font-weight="bold" fill="#FFFFFF">
                        <tspan x="19.878" y="73.3236246">Basis-ID</tspan>
                    </text>
                    <g id="noun_identity_883111-copy" filter="url(#filter-3)" transform="translate(29.181818, 13.864078)" fill="#FFFFFF" fill-rule="nonzero">
                        <path d="M12.6428571,11.207994 C12.6428571,10.9283762 12.4003277,10.7011866 12.1008282,10.7011866 C11.8013288,10.7011866 11.5587993,10.9276163 11.5587993,11.207994 C11.5587993,16.3528113 7.6148472,20.6663731 2.18235021,21.4649557 C1.88610618,21.5090259 1.68426959,21.7666087 1.73065945,22.0447069 C1.77298002,22.2931717 2.00248776,22.4724919 2.26536365,22.4724919 C2.29303479,22.4724919 2.3215198,22.4694526 2.3500048,22.4648936 C8.31476441,21.5880484 12.6428571,16.8550597 12.6428571,11.207994 Z" id="Path"></path>
                        <path d="M12.0677796,0 C5.41360591,0 0,5.07447744 0,11.3118088 C0,11.5893252 0.239746554,11.8140532 0.536613931,11.8140532 C0.83267679,11.8140532 1.07242334,11.5893252 1.07242334,11.3118088 C1.07242334,5.62800196 6.00492711,1.00448862 12.0685841,1.00448862 C18.1314365,1.00448862 23.0647448,5.62800196 23.0647448,11.3118088 C23.0647448,13.6224343 22.6673126,15.8945997 21.8821024,18.0642046 C21.7871692,18.3273927 21.9368097,18.6116961 22.2183912,18.7006824 C22.2747075,18.7187813 22.3334374,18.7270766 22.3897537,18.7270766 C22.6126053,18.7270766 22.8217802,18.5958596 22.8982095,18.3862141 C23.719623,16.1125405 24.1363636,13.73329 24.1363636,11.3118088 C24.1355591,5.07447744 18.7219532,0 12.0677796,0 Z" id="Path"></path>
                        <path d="M15.5162338,11.2637948 C15.5162338,9.77309744 14.2075453,8.5609493 12.5999639,8.5609493 C10.9907311,8.5609493 9.68204263,9.77309744 9.68204263,11.2637948 C9.68204263,15.5346273 6.22660959,19.0700594 1.64496133,19.4878832 C1.34276575,19.5161973 1.1223116,19.7649019 1.15203575,20.0457468 C1.18175991,20.3250613 1.4492773,20.5286165 1.75312422,20.5033634 C6.90035711,20.0335029 10.7818364,16.0611159 10.7818364,11.26456 C10.7818364,10.3363178 11.5975993,9.58102094 12.5999639,9.58102094 C13.6015028,9.58102094 14.41644,10.3363178 14.41644,11.26456 C14.41644,17.1163888 9.94790869,22.3062807 3.79253154,23.6049015 C3.49694133,23.6668864 3.31116536,23.9400788 3.37804471,24.2148018 C3.43666735,24.4512625 3.6629012,24.6127292 3.91390518,24.6127292 C3.95436305,24.6127292 3.9956466,24.6081378 4.03693015,24.5981896 C10.6885356,23.1947302 15.5162338,17.5877798 15.5162338,11.2637948 Z" id="Path"></path>
                        <path d="M12.2701617,27.5101435 C12.2532731,27.4950556 12.2339718,27.4780817 12.2178874,27.4617364 C12.0490013,27.2787952 11.7249008,27.2335315 11.4852433,27.3586355 C10.9994947,27.6126157 10.528222,27.8389347 10.0456902,28.0463937 C9.78673144,28.1589246 9.69344196,28.4135334 9.83659306,28.6159631 C9.97893993,28.8177642 10.3054531,28.8913179 10.5644118,28.7794157 C10.9407866,28.6172205 11.3099235,28.4455953 11.6830814,28.2588821 C11.8777025,28.42925 12.0851912,28.6021325 12.3023305,28.7706144 C12.4076833,28.8529694 12.5444006,28.8932039 12.681118,28.8932039 C12.8186395,28.8932039 12.9561611,28.8529694 13.0607096,28.7706144 C13.2698067,28.6071619 13.2698067,28.3418657 13.0607096,28.1790418 C12.7768201,27.9602668 12.5146445,27.7370912 12.2701617,27.5101435 Z" id="Path"></path>
                        <path d="M14.7278355,22.9169227 C14.3392556,22.2273695 14.0492463,21.4876671 13.8659539,20.71994 C13.8203345,20.5326175 13.6598518,20.385857 13.452935,20.3445576 C13.2460183,20.3017831 13.0309552,20.3725822 12.9022432,20.5252426 C10.8827683,22.927985 8.14397246,24.663299 4.9799383,25.5460745 C4.69400215,25.6257234 4.53351947,25.9008072 4.62149982,26.1604037 C4.70948018,26.4200002 5.01333825,26.5652857 5.30008903,26.4841618 C8.33785509,25.6375233 11.009851,24.0541322 13.0855356,21.8807492 C13.2671987,22.3918298 13.4920374,22.8874231 13.759237,23.3638416 C14.6292649,24.9103581 15.9391946,26.2378401 17.5448361,27.2061645 C17.6336311,27.2592638 17.740348,27.2880259 17.8470649,27.2880259 C18.1468498,27.2880259 18.3887958,27.0675164 18.3896104,26.7968576 C18.3896104,26.6205974 18.286152,26.466462 18.133001,26.3794382 C16.6886569,25.5047751 15.5106977,24.3085663 14.7278355,22.9169227 Z" id="Path"></path>
                        <path d="M21.5435442,23.1105325 C19.7468052,22.2468528 18.6304081,20.5141288 18.6304081,18.5875175 C18.6304081,18.1698552 18.6837214,17.7506601 18.7911438,17.3452594 C19.2136719,16.1880665 19.510476,14.9887241 19.6767817,13.7801856 C19.7857956,13.0077018 19.8414961,12.2007322 19.8414961,11.3815009 C19.8414961,7.46620378 16.5328864,4.28047465 12.4675457,4.28047465 C8.40220492,4.28047465 5.09439098,7.46620378 5.09439098,11.3815009 C5.09439098,13.5042985 3.30322206,15.2454524 1.10066517,15.2615458 C0.807839687,15.2646112 0.572306147,15.4952834 0.574675325,15.776535 C0.577080475,16.0577865 0.814205459,16.2838606 1.10464378,16.2838606 C1.10623522,16.2838606 1.10782666,16.2838606 1.10941811,16.2838606 C3.89126019,16.2616364 6.15429191,14.0622035 6.15429191,11.3815009 C6.15429191,8.02870683 8.98626445,5.30125675 12.4675457,5.30125675 C15.9488269,5.30125675 18.7815951,8.02870683 18.7815951,11.3815009 C18.7815951,12.154751 18.7298732,12.9157395 18.6264295,13.6445411 C18.4688766,14.7925378 18.1848041,15.9305719 17.7837605,17.0279893 C17.7789861,17.0417836 17.7742118,17.055578 17.7702332,17.0693724 C17.636552,17.5652027 17.5689157,18.0755938 17.5689157,18.5882839 C17.5689157,20.9042024 18.9120934,22.987916 21.0700899,24.0247916 C21.1464792,24.0615765 21.2260513,24.0776699 21.3064192,24.0776699 C21.5005752,24.0776699 21.6875698,23.9742123 21.7814649,23.7948857 C21.9127589,23.5412229 21.8061322,23.2346817 21.5435442,23.1105325 Z" id="Path"></path>
                        <path d="M20.4116281,24.7329197 C17.985904,23.4561919 16.4793243,21.0520433 16.4793243,18.4574521 C16.4793243,17.8328 16.5667452,17.2073862 16.7407698,16.5994931 C17.0022153,15.9169465 17.2179079,15.1963114 17.3804943,14.4604408 C17.6076251,13.4221472 17.7236415,12.3564299 17.7236415,11.2945214 C17.7236415,8.60699411 15.3779852,6.42071197 12.4955485,6.42071197 C9.61229487,6.42071197 7.2658215,8.60775588 7.2658215,11.2945214 C7.2658215,14.5297619 4.55495846,17.181486 1.09325663,17.3315548 C0.793411322,17.3452667 0.56137844,17.5814157 0.575267732,17.8609855 C0.589157024,18.1413172 0.848968491,18.3576601 1.1439117,18.34471 C5.18732977,18.1695027 8.35490541,15.0729045 8.35490541,11.2952832 C8.35490541,9.16689563 10.2119855,7.43615242 12.4955485,7.43615242 C14.7782946,7.43615242 16.6353746,9.1676574 16.6353746,11.2952832 C16.6353746,12.2893941 16.5267113,13.2857902 16.3142869,14.2562862 C16.1598706,14.95483 15.9556163,15.6389002 15.704792,16.2871671 C15.6966219,16.3077349 15.6892687,16.330588 15.6860007,16.3526794 C15.4899165,17.0413202 15.3910574,17.749767 15.3910574,18.4597374 C15.3910574,21.4199786 17.1100616,24.1623534 19.8764818,25.6173356 C19.9614516,25.6622801 20.0529575,25.6828479 20.1428294,25.6828479 C20.3315604,25.6828479 20.5178403,25.5906736 20.6166994,25.4238458 C20.7662135,25.1793174 20.6738906,24.8692767 20.4116281,24.7329197 Z" id="Path"></path>
                        <path d="M22.6754897,20.976624 C21.6146505,20.5128637 20.9303437,19.5134715 20.9303437,18.4323727 C20.9303437,18.2243237 20.9557187,18.0140049 21.0081058,17.808982 L21.0171099,17.7885554 C21.0203841,17.7802334 21.0236583,17.7734245 21.0269325,17.7666156 C21.3739971,16.8277468 21.6441182,15.8616425 21.8291103,14.9015905 C22.0321104,13.8734497 22.1475257,12.8210995 22.1696266,11.7838802 C22.1761749,11.6310587 22.1786306,11.4767241 22.1786306,11.3201199 C22.1786306,6.2580963 17.7240881,2.14023732 12.2463597,2.14023732 C6.76944984,2.14023732 2.31408884,6.2580963 2.31408884,11.3201199 C2.31408884,12.2249443 1.51682232,12.972408 0.537837986,12.9845127 C0.236612036,12.9882954 -0.00404130533,13.2167711 0,13.4951786 C0.00414418246,13.7735861 0.243978975,13.986931 0.552571864,13.9922268 C2.12500407,13.9725567 3.40439581,12.7734374 3.40439581,11.3201199 C3.40439581,6.81415479 7.37026464,3.14795148 12.2463597,3.14795148 C17.1216362,3.14795148 21.0875051,6.81415479 21.0875051,11.3201199 C21.0875051,11.4638629 21.085868,11.6045798 21.0793196,11.7543751 C21.0588559,12.7469584 20.9491703,13.7448375 20.7551743,14.7238031 C20.5808234,15.6324102 20.3262547,16.543287 19.9971981,17.4307109 C19.9857384,17.4564334 19.9767344,17.4813993 19.9669118,17.5086348 C19.9620005,17.5230091 19.9570892,17.5351137 19.953815,17.5487315 C19.87769,17.8407568 19.8383996,18.1380778 19.8383996,18.4361555 C19.8383996,19.9038473 20.7690896,21.2603273 22.2080983,21.8897704 C22.2834048,21.9223017 22.3619855,21.9374326 22.4405662,21.9374326 C22.6452034,21.9374326 22.8391995,21.8300036 22.9341511,21.64919 C23.0634818,21.3942353 22.9472479,21.0946446 22.6754897,20.976624 Z" id="Path"></path>
                        <path d="M14.2224051,25.9897879 C13.7363456,25.4633216 13.3042032,24.9020048 12.9412681,24.3236334 C12.8607946,24.1960951 12.7239898,24.1085979 12.5654571,24.0841284 C12.4093387,24.0611418 12.2467824,24.0996999 12.1268769,24.1968366 C10.6678936,25.3565454 9.02945457,26.2878716 7.25662487,26.9626382 C7.04658921,27.0293734 6.8961039,27.2132658 6.8961039,27.4305258 C6.8961039,27.702657 7.13752419,27.924366 7.43286168,27.924366 C7.50287357,27.924366 7.57208072,27.911019 7.6372642,27.8865494 C9.33364414,27.2436674 10.9149471,26.3790763 12.3449599,25.3150213 C12.6636347,25.7688204 13.0185226,26.2085309 13.4064045,26.6282209 C13.9463812,27.2147488 14.5563698,27.7597526 15.2194709,28.2498853 C15.3176485,28.323294 15.4375539,28.3581446 15.5542404,28.3581446 C15.7103589,28.3581446 15.867282,28.2958584 15.973507,28.1742521 C16.1577911,27.9614411 16.1215781,27.6500104 15.8898146,27.4787235 C15.2782165,27.0301149 14.7189262,26.5303427 14.2224051,25.9897879 Z" id="Path"></path>
                    </g>
                    <polyline id="Path" stroke="#FFFFFF" stroke-width="1.5" stroke-linecap="round" stroke-linejoin="round" points="60.3185 44.125 62.5685 46.375 68.1935 40.75"></polyline>
                </g>
            </g>
        </g>
    </g>
</svg>